<svg width="349" height="63" viewBox="0 0 349 63" fill="none" xmlns="http://www.w3.org/2000/svg">
<path fill-rule="evenodd" clip-rule="evenodd" d="M15.4561 0.0759378C12.4856 0.692101 9.53139 2.43078 6.71181 5.22216C3.67011 8.23371 1.83006 11.25 0.735579 15.0191C-0.436487 19.0556 -0.191193 24.4355 1.35215 28.5441C2.43327 31.422 3.96394 33.6381 7.25421 37.0886C7.97809 37.8478 8.57039 38.5101 8.57039 38.5604C8.57039 38.6107 8.26047 39.1755 7.88169 39.8155C5.65277 43.5816 3.89386 47.9278 3.09689 51.638C2.8186 52.9332 2.77729 53.4974 2.77838 55.9841C2.77974 59.5288 3.05108 60.7244 4.14965 62.0273C4.80481 62.8043 5.43625 63.0241 6.85102 62.9671C7.89219 62.9252 8.22557 62.8517 8.91127 62.5131C9.92326 62.0134 11.6617 60.3206 12.5682 58.9521C14.8887 55.4486 16.7112 49.9821 17.4591 44.2813C17.6686 42.6843 17.6689 35.9465 17.4595 33.3363L17.3238 31.6445L17.7534 31.1106C18.6593 29.9845 23.8936 25.3048 24.0606 25.4716C24.0877 25.4987 24.0055 25.976 23.8779 26.5323C23.5471 27.9731 23.5565 31.286 23.8951 32.5563C24.8499 36.1393 26.8375 38.4551 29.7728 39.4047C31.1462 39.849 33.3492 39.9078 34.7496 39.5374C38.1975 38.6255 40.704 36.0243 41.7245 32.2991C41.9684 31.4086 42.0228 30.8279 42.0325 29.0091L42.0444 26.8005L42.7943 26.6469C44.0104 26.3979 45.6578 25.8479 46.6721 25.3524C47.1925 25.0982 47.6373 24.8901 47.6606 24.8901C47.6838 24.8901 47.7029 27.8931 47.7029 31.5634C47.7029 37.8581 47.7176 38.2653 47.9626 38.7416C48.394 39.5804 49.4428 39.9879 50.4637 39.7136C51.4701 39.4432 51.9386 38.814 53.7538 35.295C55.5381 31.8359 58.5576 26.3383 59.365 25.0783C59.6924 24.5676 59.9214 24.3419 60.0809 24.3724C60.2973 24.4139 60.3213 24.9137 60.3938 30.8794C60.4618 36.4903 60.5026 37.4226 60.7032 37.9579C61.4474 39.9448 63.6505 40.4215 65.29 38.9503C66.1943 38.1389 71.1895 30.6922 73.8604 26.1738C74.5493 25.0085 74.9241 24.5887 75.2239 24.6461C75.43 24.6856 75.4563 25.2918 75.5183 31.4237C75.585 38.0141 75.5928 38.1696 75.8833 38.7112C76.2565 39.407 76.4 39.5224 77.1368 39.719C78.0007 39.9497 78.8902 39.705 79.6661 39.0235C80.1863 38.5666 80.5682 37.9149 82.1912 34.7154C84.2131 30.7297 86.7602 25.9965 87.362 25.1069C87.7642 24.5124 88.131 24.2327 88.2946 24.3958C88.3545 24.4555 88.4346 27.4845 88.4727 31.1269C88.5201 35.6618 88.5912 37.8592 88.6979 38.0974C88.9369 38.6308 89.5478 39.2998 90.0217 39.547C90.2782 39.6809 90.7778 39.7706 91.2732 39.7718C93.1822 39.7763 94.321 38.7077 97.5611 33.8713C98.8211 31.9906 101.262 28.1363 101.848 27.1025C102.028 26.7849 102.215 26.5247 102.264 26.5242C102.521 26.5212 104.199 29.8706 104.056 30.101C103.996 30.1975 103.6 30.7331 103.176 31.2914C101.356 33.6853 100.763 35.8161 101.424 37.5799C101.937 38.9488 103.129 39.7783 104.561 39.7634C105.772 39.7506 106.83 39.3274 107.751 38.4867C110.02 36.4176 110.589 33.3621 109.392 29.6706L109.055 28.6323L110.212 27.52C111.714 26.0754 114.024 24.3636 115.406 23.6707C116.901 22.9211 117.079 22.9377 116.561 23.7782C115.35 25.7431 114.816 28.7194 115.206 31.3277C115.59 33.8882 116.698 36.2091 118.217 37.6332C120.438 39.7162 124.026 40.3648 127.211 39.2593C129.698 38.3959 131.69 36.4608 132.726 33.9008C133.427 32.1695 133.515 31.6301 133.547 28.8534L133.577 26.2168L134.281 25.8323C134.669 25.621 135.472 25.0928 136.066 24.6588C137.579 23.5538 138.107 23.262 138.598 23.2594C139.417 23.2551 139.392 23.0331 139.467 31.0003C139.53 37.7928 139.552 38.3294 139.792 38.8101C140.471 40.1756 142.704 40.1157 143.951 38.6986C144.191 38.4259 144.836 37.2741 145.385 36.1391C147.368 32.0356 150.979 25.2891 151.54 24.6388C151.796 24.3408 151.876 24.3138 152.057 24.4635C152.244 24.6185 152.276 25.3991 152.311 30.7188L152.352 36.797L152.739 37.634C153.433 39.1331 154.476 39.7695 156.238 39.7695C158.433 39.7695 159.554 38.7809 162.106 34.5961C163.395 32.482 163.563 31.9488 163.078 31.511C162.941 31.3872 162.638 31.2858 162.404 31.2858C162.035 31.2858 161.79 31.4946 160.532 32.8847C159.011 34.5645 158.439 34.9887 158.036 34.7355C157.827 34.6037 157.799 34.0014 157.729 28.1413C157.649 21.4094 157.638 21.2915 157.007 20.2165C156.153 18.7622 153.868 18.5163 152.356 19.716C151.198 20.6339 149.568 23.2036 146.765 28.5302C145.81 30.3451 144.98 31.8301 144.92 31.8301C144.86 31.8301 144.786 29.5184 144.755 26.6932C144.701 21.769 144.686 21.5241 144.394 20.7819C143.82 19.3234 142.581 18.7097 140.83 19.0174C139.675 19.2204 138.979 19.5816 137.468 20.7596C135.742 22.1062 134.223 23.1534 133.399 23.5649L132.717 23.9052L132.275 23.0029C131.133 20.6714 129.164 19.1748 127.24 19.1748C126.097 19.1748 125.437 19.4252 124.73 20.1274C123.818 21.0339 123.569 22.2063 123.989 23.6181C124.628 25.7647 126.499 26.9072 129.46 26.9592L130.868 26.984L130.957 27.5789C131.059 28.259 130.927 30.1079 130.712 31.0137C130.301 32.7378 129.132 34.253 127.712 34.9006C126.982 35.2336 126.682 35.2918 125.695 35.2918C124.172 35.2918 123.167 34.8594 122.103 33.7457C120.713 32.2913 120.105 30.5197 120.105 27.9244C120.105 24.7885 120.799 22.8503 122.798 20.4039C123.817 19.1561 123.474 18.7648 121.577 19.0124C118.094 19.4669 114.188 21.428 109.96 24.8455C108.132 26.3237 108.132 26.3237 108.064 26.2462C107.922 26.0845 104.858 19.9766 104.602 19.3452C104.297 18.5957 103.99 18.3584 103.622 18.589C103.501 18.6649 103.114 19.4154 102.763 20.2568C101.089 24.2647 94.6621 34.7283 94.0077 34.511C93.9023 34.476 93.8371 32.4942 93.7892 27.8726L93.7211 21.2841L93.3582 20.5115C92.5356 18.7605 90.429 18.4122 88.6345 19.7306C87.6966 20.4198 85.7656 23.4974 81.7761 30.661C81.4465 31.2528 81.1155 31.7275 81.0405 31.7158C80.9538 31.7024 80.8793 29.802 80.836 26.4893L80.7678 21.2841L80.3795 20.4947C79.8189 19.3555 79.1885 18.968 77.9143 18.9793C76.0772 18.9956 75.1829 19.671 73.6743 22.1807C71.0508 26.5455 66.3623 33.8467 66.0613 34.0357C65.9769 34.0888 65.8643 34.0886 65.811 34.0354C65.7577 33.9822 65.6958 31.0914 65.6734 27.6113L65.6329 21.2841L65.2446 20.4947C64.9768 19.9505 64.6834 19.5912 64.3001 19.338C63.1201 18.5587 61.1572 19.0227 59.9779 20.3598C58.998 21.4709 57.0772 24.5728 54.7291 28.8364C53.1428 31.7165 53.049 31.8637 52.8688 31.7526C52.802 31.7115 52.7478 29.4533 52.7478 26.7132V21.7482L53.66 20.6317C54.9255 19.0823 56.0468 17.3319 56.903 15.5688C57.8218 13.6769 58.2144 12.5712 58.6928 10.5284C59.0354 9.06569 59.0746 8.64603 59.081 6.38345C59.0876 4.05066 59.0651 3.81184 58.774 3.12777C58.3203 2.062 57.7493 1.41386 56.8972 0.99787C56.2391 0.676452 56.0313 0.640392 55.1608 0.696184C51.8601 0.907514 49.2139 4.68546 48.032 10.874C47.8635 11.7561 47.7949 13.2198 47.7431 17.0387L47.6751 22.0465L47.1095 22.4049C45.9307 23.1519 42.5299 24.3545 41.6353 24.3409C41.4282 24.3378 41.2265 24.0515 40.7966 23.1506C39.6612 20.7706 37.6469 19.1748 35.7782 19.1748C34.5927 19.1748 33.7836 19.4856 33.1318 20.1912C31.5016 21.9564 32.2794 24.9307 34.7069 26.215C35.7874 26.7865 36.5005 26.9679 38.022 27.0584L39.3174 27.1354L39.3559 28.6636C39.3979 30.3335 39.1983 31.4034 38.6397 32.5009C37.1876 35.354 33.7539 36.2098 31.222 34.3496C28.8784 32.6278 27.9639 28.9216 28.8946 24.918C29.2308 23.4719 29.9157 22.0782 30.881 20.8758C31.8984 19.6084 32.0206 19.3372 31.6843 19.0918C31.3527 18.8499 31.0431 18.8537 30.0401 19.1121C27.3071 19.8162 22.9223 22.8326 18.4949 27.0545C17.1675 28.3201 17.0278 28.4185 16.9652 28.1315C16.8912 27.7928 16.3083 22.2967 16.0731 19.7191C15.5589 14.0844 15.8321 8.73366 16.8995 3.54091C17.3158 1.51538 17.3773 0.49574 17.0996 0.218684C16.8778 -0.00271558 16.1429 -0.0665364 15.4561 0.0759378ZM200.279 0.267809C195.618 1.47578 190.171 6.38018 187.668 11.6225C186.3 14.4882 185.827 16.4893 185.729 19.8224C185.598 24.2844 186.246 27.4537 187.972 30.7784C188.252 31.3194 188.498 31.7927 188.517 31.8301C188.536 31.8676 187.677 31.9055 186.609 31.9146C185.19 31.9266 184.304 32.0091 183.322 32.2208C182.583 32.3802 181.923 32.5105 181.856 32.5105C181.79 32.5105 181.735 32.1537 181.735 31.7177C181.735 28.142 180.591 23.692 179.609 23.4459C179.087 23.3153 177.426 23.9785 176.457 24.7041C175.955 25.0797 175.969 25.1977 176.627 26.1148C176.868 26.4516 177.225 27.0433 177.419 27.4295C177.755 28.0953 178.326 29.9099 178.326 30.3092C178.326 30.4111 178.029 30.2286 177.665 29.9037C175.594 28.0541 172.348 27.1094 169.342 27.4823C166.843 27.7921 165.612 28.8947 165.612 30.8218C165.612 33.1998 168.026 34.899 172.259 35.4995C174.094 35.7599 177.338 35.6524 178.483 35.2931C178.68 35.2311 178.718 35.4331 178.799 36.9623C178.906 38.9827 179.047 39.5482 179.493 39.7511C179.747 39.8664 179.891 39.8476 180.174 39.6625C180.807 39.2483 181.231 37.9742 181.449 35.827C181.514 35.1935 181.603 34.6385 181.647 34.5942C181.804 34.4381 184.545 33.8777 185.912 33.7223C186.944 33.6051 187.636 33.6041 188.639 33.718L189.984 33.8706L190.595 34.5853C190.93 34.9784 191.903 36.0135 192.755 36.8855L194.306 38.4708L193.603 39.6583C191.811 42.6855 190.151 46.4322 189.323 49.3162C188.562 51.9653 188.363 53.361 188.364 56.0521C188.364 58.5716 188.518 59.576 189.117 60.9641C189.477 61.7998 190.561 62.8113 191.231 62.9367C192.122 63.1036 193.757 62.9244 194.416 62.5874C198.23 60.6367 201.526 54.0794 202.887 45.7308C203.259 43.4522 203.374 38.3917 203.145 34.4324L202.977 31.5236L204.457 30.0351C206.667 27.813 209.593 25.2955 209.766 25.4678C209.785 25.4871 209.713 25.8396 209.605 26.2511C208.538 30.3368 209.583 34.8655 212.194 37.4651C213.718 38.9824 215.685 39.7626 218.004 39.7692C219.715 39.7741 220.668 39.5578 222.231 38.8093C223.317 38.2894 223.703 38.0103 224.617 37.0848C226.844 34.8308 227.685 32.5485 227.685 28.7621V26.8004L228.06 26.7171C229.703 26.3522 231.165 25.8947 232.128 25.4444L233.266 24.9123L233.305 31.6773C233.341 37.93 233.362 38.4706 233.59 38.8168C234.101 39.596 235.184 39.9793 236.144 39.7213C237.084 39.4686 237.636 38.7352 239.198 35.6601C240.936 32.2371 244.912 25.0737 245.308 24.652C245.672 24.2631 245.902 24.2631 246.006 24.652C246.052 24.8205 246.089 27.6874 246.09 31.0229C246.092 37.625 246.133 38.0404 246.862 38.9046C247.388 39.5293 247.953 39.7695 248.9 39.7718C249.916 39.7741 250.704 39.3643 251.464 38.438C252.513 37.1606 257.805 29.0484 259.725 25.7746C260.173 25.0115 260.552 24.618 260.839 24.618C260.983 24.618 261.115 24.7459 261.157 24.9242C261.196 25.0926 261.243 28.1696 261.262 31.7621C261.292 37.6914 261.318 38.3384 261.536 38.7761C262.282 40.2692 264.721 40.0904 265.84 38.4608C266.057 38.1444 267.039 36.2935 268.021 34.3476C269.971 30.484 272.476 25.8477 273.117 24.9186C273.371 24.5506 273.607 24.3466 273.749 24.3738C273.956 24.4134 273.983 25.0027 274.051 30.9474C274.134 38.1717 274.135 38.1805 275.014 39.0574C276.267 40.3086 278.321 39.9765 279.928 38.2624C281.216 36.8884 283.658 33.3437 286.452 28.7941C287.614 26.9031 287.888 26.5375 288.037 26.6856C288.135 26.7839 288.581 27.5641 289.026 28.4191L289.836 29.9736L289.243 30.7004C288.372 31.7669 287.449 33.3014 287.123 34.2213C286.684 35.4622 286.709 36.8916 287.186 37.8647C287.891 39.3026 289.268 40.0161 290.814 39.7443C292.281 39.4863 293.565 38.6301 294.426 37.3355C295.779 35.3023 295.986 32.7717 295.046 29.7793L294.662 28.558L295.773 27.5517C297.244 26.2185 298.454 25.2543 299.571 24.5269C300.523 23.9066 302.082 23.1214 302.362 23.1212C302.452 23.1211 302.261 23.6329 301.929 24.2838C301.107 25.8898 300.74 27.5159 300.746 29.5168C300.76 34.2823 303.037 38.0409 306.683 39.32C309.088 40.1636 311.839 39.9064 314.305 38.6075C315.377 38.0427 317.029 36.407 317.714 35.2311C318.867 33.2511 319.503 29.9755 319.227 27.4409L319.097 26.2496L319.784 25.8959C320.162 25.7014 320.901 25.2301 321.426 24.8485C323.295 23.4899 323.693 23.2572 324.15 23.2572C324.992 23.2572 324.964 23.015 325.039 30.9323C325.098 37.1933 325.137 38.2213 325.327 38.6341C325.626 39.2821 326.002 39.5869 326.693 39.7419C327.614 39.9484 328.467 39.6787 329.275 38.925C329.861 38.3786 330.189 37.8184 331.714 34.7558C333.714 30.7397 335.811 26.7907 336.721 25.3252C337.798 23.5928 337.775 23.4914 337.869 30.4711C337.956 36.9913 337.972 37.1478 338.709 38.2457C339.261 39.0683 339.977 39.5187 341.055 39.7217C343.112 40.109 344.751 39.1811 346.428 36.6793C347.586 34.9534 348.9 32.6836 348.984 32.2657C349.09 31.7338 348.667 31.2858 348.058 31.2858C347.691 31.2858 347.477 31.4479 346.662 32.3404C344.754 34.4287 344.323 34.8239 343.952 34.8239C343.758 34.8239 343.549 34.7474 343.488 34.6538C343.428 34.5603 343.347 31.5444 343.31 27.9519L343.242 21.4201L342.883 20.6571C341.925 18.6179 339.498 18.3494 337.588 20.0713C336.641 20.9253 334.676 24.1764 331.765 29.7081C331.178 30.8238 330.636 31.7424 330.561 31.7493C330.474 31.7575 330.398 29.9107 330.349 26.5911C330.301 23.2811 330.218 21.2593 330.119 20.9731C329.557 19.3508 328.189 18.6557 326.317 19.0416C325.221 19.2675 324.486 19.6646 322.982 20.8422C321.384 22.0928 320.155 22.9499 319.151 23.5126L318.377 23.9468L317.791 22.8231C317.088 21.4744 315.884 20.192 314.813 19.65C312.9 18.6826 310.548 19.2489 309.79 20.8592C309.357 21.778 309.381 23.2105 309.846 24.2097C310.709 26.0654 312.339 26.9185 315.085 26.9525L316.585 26.9712L316.583 28.4822C316.578 32.1437 315.218 34.4107 312.571 35.1702C309.512 36.0478 306.641 33.8004 305.869 29.9259C305.599 28.5701 305.67 26.3251 306.028 24.8901C306.347 23.6079 307.329 21.6802 308.139 20.7468C308.849 19.9279 309.149 19.3867 309.014 19.1687C308.75 18.7426 306.682 18.9487 304.587 19.6093C301.843 20.4745 298.829 22.2355 295.509 24.9114L293.732 26.3439L292.072 23.0655C291.158 21.2624 290.291 19.4964 290.144 19.1408C289.922 18.6067 289.815 18.4944 289.526 18.4944C289.145 18.4944 289.117 18.5417 288.15 20.8078C286.573 24.5048 280.34 34.5517 279.624 34.5517C279.549 34.5517 279.498 32.1404 279.497 28.5983C279.496 22.4743 279.419 21.3114 278.953 20.4002C277.993 18.5211 275.421 18.4396 273.746 20.2352C272.801 21.2481 270.177 25.5607 267.593 30.3477C266.52 32.3369 266.575 32.5218 266.512 26.7683C266.464 22.3724 266.424 21.5925 266.214 20.9477C265.907 20.0074 265.183 19.2591 264.368 19.04C263.237 18.736 261.646 19.2067 260.781 20.1018C260.514 20.3778 259.35 22.1345 258.195 24.0056C254.219 30.445 251.792 34.1435 251.543 34.1435C251.48 34.1435 251.405 31.342 251.378 27.9179C251.334 22.3672 251.301 21.6116 251.082 20.9477C250.202 18.2837 247.149 18.2774 245.138 20.9354C244.312 22.0281 241.739 26.2932 240.167 29.1766C238.307 32.587 238.457 32.7985 238.457 26.7533V21.6161L239.222 20.7154C241.055 18.5598 242.795 15.4663 243.692 12.7707C244.306 10.926 244.556 9.70036 244.751 7.58366C245.176 2.97931 243.653 0.454917 240.599 0.699586C239.429 0.793344 238.453 1.31575 237.366 2.42955C235.59 4.24892 234.397 6.99335 233.666 10.9421C233.433 12.2011 233.377 13.2111 233.316 17.2969L233.243 22.1548L232.203 22.6911C230.946 23.3386 229.488 23.87 228.051 24.2039C227.068 24.4322 226.978 24.4343 226.913 24.2288C226.696 23.5443 225.852 22.0133 225.38 21.4475C224.091 19.9027 222.762 19.1737 221.237 19.1762C220.293 19.1777 219.246 19.5818 218.727 20.1452C217.861 21.0854 217.683 22.9388 218.331 24.2619C219.174 25.9816 221.342 27.0674 223.931 27.0674H224.936L225.031 27.9519C225.209 29.6062 224.83 31.5709 224.093 32.8277C223.574 33.7109 222.361 34.7571 221.517 35.0493C221.047 35.2121 220.423 35.2962 219.709 35.2931C218.233 35.2864 217.197 34.8262 216.172 33.7212C215.289 32.7694 214.831 31.8727 214.442 30.3342C214.191 29.3385 214.161 28.9337 214.226 27.4085C214.34 24.7765 215.011 22.7405 216.28 21.1742C217.642 19.4953 217.767 19.1088 216.998 18.9649C214.952 18.5818 209.931 21.6909 204.462 26.7268C203.436 27.6714 202.596 28.3642 202.595 28.2662C202.595 28.1681 202.505 27.3225 202.396 26.387C201.109 15.3623 201.137 10.691 202.534 3.5243C202.978 1.25002 203.011 0.427701 202.669 0.178133C202.315 -0.0801443 201.504 -0.0497988 200.279 0.267809ZM15.0173 2.2487C15.0634 2.2947 14.9564 2.7081 14.7795 3.16723C14.6025 3.62636 14.0791 4.98184 13.6162 6.17933C11.6137 11.3593 10.7523 15.7799 10.7523 20.8758C10.7523 23.6121 10.9256 25.3363 11.6882 30.1893L12.2109 33.5152L11.2429 34.8401C10.7104 35.5688 10.2172 36.1502 10.1469 36.1323C9.88713 36.0659 8.14648 33.4868 7.4271 32.1023C6.00292 29.3611 5.28654 26.5662 5.0002 22.6345C4.72818 18.9001 5.12864 15.5788 6.25994 12.1868C7.77193 7.65334 10.6132 3.79945 13.4108 2.48739C14.0592 2.18339 14.8361 2.06786 15.0173 2.2487ZM200.688 2.32572C200.688 2.41418 200.251 3.59302 199.716 4.94524C197.644 10.1904 196.861 13.3403 196.447 18.0862C196.159 21.395 196.356 24.0692 197.355 30.3712C197.613 32.0013 197.824 33.3839 197.824 33.4435C197.824 33.5319 196.087 35.9223 195.853 36.1558C195.653 36.3556 193.634 33.3183 192.797 31.558C191.121 28.0318 190.512 24.7085 190.633 19.7345C190.71 16.5296 190.96 14.9821 191.826 12.3509C193.367 7.66817 196.468 3.51369 199.256 2.39744C199.906 2.13726 200.688 2.09806 200.688 2.32572ZM55.8099 3.16737C56.2474 3.60405 56.3446 4.51319 56.2531 7.31341C56.1712 9.8242 55.9277 11.1884 55.145 13.5227C54.6378 15.0356 53.5081 17.3989 53.0287 17.9501L52.7328 18.2903L52.8001 13.8678C52.8706 9.24124 53.0395 7.3824 53.5629 5.47839C53.9104 4.21436 54.2681 3.50049 54.7395 3.13049C55.206 2.76417 55.4131 2.77138 55.8099 3.16737ZM241.23 2.97305C241.686 3.14614 241.835 3.68964 241.941 5.56698C242.088 8.18731 241.664 10.9551 240.679 13.7873C240.218 15.1147 239.285 17.0821 238.738 17.8821L238.459 18.2903L238.458 14.3244C238.457 12.1432 238.521 9.72445 238.599 8.94935C238.896 6.02488 239.495 3.97432 240.283 3.18805C240.664 2.80744 240.745 2.78907 241.23 2.97305ZM37.1258 22.4223C37.6139 22.7492 38.7038 24.1997 38.7038 24.5226C38.7038 24.7349 36.8314 24.5107 36.1718 24.2195C35.4383 23.8958 35.1277 23.4371 35.1839 22.7604C35.26 21.8428 36.0538 21.7045 37.1258 22.4223ZM128.432 22.2469C128.901 22.482 129.707 23.3867 130.055 24.0675L130.337 24.618L129.891 24.637C127.959 24.7194 126.646 24.032 126.652 22.9405C126.656 21.9889 127.367 21.7122 128.432 22.2469ZM222.587 22.2785C223.151 22.5846 224.276 24.0538 224.276 24.4835C224.276 24.7309 222.492 24.5499 221.767 24.2289C221.076 23.9232 220.876 23.6894 220.775 23.0664C220.614 22.0766 221.503 21.6901 222.587 22.2785ZM314.453 22.5421C314.97 22.9103 316.021 24.4102 315.868 24.5625C315.825 24.6052 315.409 24.6382 314.942 24.6361C313.314 24.6283 311.961 23.5771 312.309 22.5896C312.577 21.8281 313.424 21.8093 314.453 22.5421ZM173.724 30.0153C174.583 30.2854 175.748 31.1582 176.795 32.3158L177.648 33.259L177.135 33.372C176.332 33.5489 173.32 33.3874 172.464 33.1214C171.953 32.9624 171.531 32.7047 171.135 32.3093C170.623 31.7983 170.554 31.6572 170.554 31.1146C170.554 30.3369 170.876 29.9237 171.585 29.7877C172.214 29.6674 172.826 29.7326 173.724 30.0153ZM105.7 35.1641C105.721 36.382 105.476 37.0372 104.901 37.2985C104.426 37.5144 103.93 37.1515 103.741 36.4493C103.544 35.7208 103.835 34.6866 104.598 33.395L105.161 32.4425L105.422 33.259C105.576 33.7438 105.689 34.5177 105.7 35.1641ZM291.145 33.5934C291.668 35.8846 291.064 37.843 290.009 37.2798C289.313 36.908 289.124 35.9441 289.524 34.8115C289.795 34.0451 290.698 32.5062 290.829 32.587C290.885 32.6214 291.027 33.0743 291.145 33.5934ZM13.2918 40.4711C14.0844 46.5398 13.6492 51.5837 11.9935 55.5175C11.207 57.386 9.94944 58.7925 8.88741 58.9913C7.4391 59.2623 6.38647 58.5343 5.90148 56.926C5.64214 56.0656 5.65018 53.55 5.91838 51.715C6.59754 47.0692 8.71315 42.2332 12.0226 37.7623L12.7183 36.8224L12.8185 37.218C12.8736 37.4355 13.0866 38.8994 13.2918 40.4711ZM198.848 39.8588C199.772 46.7399 199.286 52.1188 197.387 56.0207C196.423 58.0004 195.217 59.0369 193.87 59.0423C192.312 59.0487 191.287 57.4192 191.282 54.9242C191.276 52.6619 191.865 49.3923 192.73 46.8827C193.282 45.2815 194.703 42.2782 195.604 40.8113C196.561 39.2516 198.291 36.8668 198.387 36.9739C198.434 37.0263 198.642 38.3245 198.848 39.8588Z" fill="black"/>
</svg>
