<svg width="342" height="89" viewBox="0 0 342 89" fill="none" xmlns="http://www.w3.org/2000/svg">
<path fill-rule="evenodd" clip-rule="evenodd" d="M9.72614 0.332334C9.44952 0.493667 8.46879 0.972333 7.54674 1.396C5.39685 2.38433 2.40136 5.36233 1.40655 7.5C0.980057 8.41667 0.489861 9.427 0.31685 9.74533C-0.105617 10.524 -0.105617 78.476 0.31685 79.2547C0.489861 79.573 0.974024 80.5557 1.39314 81.4383C2.84596 84.4983 6.46509 87.7017 9.05119 88.2157C9.60677 88.3263 10.0614 88.548 10.0614 88.7083C10.0614 88.8747 71.9307 89 153.901 89C249.571 89 297.742 88.8883 297.742 88.6667C297.742 88.4833 297.907 88.3333 298.11 88.3333C299.15 88.3333 302.599 86.2403 303.877 84.8333C304.949 83.6527 306.651 80.871 307.139 79.5C307.534 78.3927 307.633 72.6303 307.724 45.5C307.85 8.14667 307.945 9.60067 305.124 5.662C303.519 3.42067 300.72 1.32333 298.664 0.82C298.156 0.696 297.742 0.460666 297.742 0.297333C297.742 -0.0946672 10.3984 -0.0593328 9.72614 0.332334ZM313.229 1.25C313.332 2.48833 313.348 2.50167 315.009 2.66667L316.685 2.83333L316.779 7.81033C316.834 10.787 317.019 12.964 317.239 13.227C317.638 13.7057 319.455 13.8133 320.113 13.3973C320.401 13.216 320.551 11.596 320.616 7.986L320.709 2.83333L322.385 2.66667C324.046 2.50167 324.063 2.48833 324.166 1.25L324.27 0H318.697H313.124L313.229 1.25ZM326.653 6.75L326.744 13.5L327.533 13.611C327.966 13.672 328.683 13.6317 329.125 13.5213C329.903 13.3273 329.929 13.2163 329.929 10.18C329.929 8.45267 330.061 6.95867 330.222 6.85967C330.382 6.761 330.855 7.68967 331.271 8.92333C332.456 12.439 333.035 13.4883 333.853 13.6043C335.244 13.8013 335.775 13.1343 336.956 9.711C337.592 7.866 338.195 6.43833 338.296 6.538C338.397 6.63767 338.555 8.24467 338.647 10.1097L338.815 13.5L340.407 13.6017L342 13.7033V6.85167V0H339.694H337.387L337.042 1.25C336.647 2.67833 334.897 7.759 334.723 7.98C334.398 8.39333 333.626 6.803 332.591 3.59067L331.438 0.0146662L329 0.00733312L326.563 0L326.653 6.75ZM296.758 3.86533C299.872 4.775 302.325 7.004 303.445 9.94167C304.109 11.685 304.12 12.314 304.033 44.9417L303.944 78.1667L303.106 79.7997C301.987 81.9803 300.314 83.589 298.077 84.6367L296.233 85.5H153.734H11.2349L9.33183 84.5413C7.00457 83.369 5.707 82.0683 4.46843 79.6667L3.52324 77.8333V44.5V11.1667L4.46843 9.33333C4.98847 8.325 5.86324 7.03567 6.41245 6.468C7.48371 5.36033 9.88305 4.04233 11.5501 3.64567C12.1144 3.51133 76.1075 3.38633 153.757 3.36733C282.115 3.33633 295.103 3.38167 296.758 3.86533ZM234.371 30.697C230.994 31.348 228.026 33.772 227.288 36.4823C226.752 38.4517 227.165 41.5523 228.163 43.052C229.593 45.2003 231.336 45.98 238.168 47.529C240.11 47.9693 240.959 48.3357 241.437 48.9403C243.347 51.3533 240.409 53.8643 236.524 53.1397C235.606 52.9683 234.803 52.444 233.686 51.2857L232.128 49.6707L229.046 50.126C227.35 50.3767 225.865 50.679 225.745 50.798C225.427 51.1143 226.79 53.7443 227.956 55.0643C230.256 57.6697 235.398 59.0433 240.362 58.379C245.117 57.743 247.899 55.768 248.938 52.2927C249.568 50.181 249.583 49.2773 249.016 47.3923C248.091 44.318 245.715 42.6343 240.742 41.529C236.41 40.5663 235.566 40.2897 234.791 39.577C233.737 38.6087 233.808 37.2273 234.958 36.3253C235.739 35.7127 236.207 35.6227 238.019 35.7363C240.05 35.8637 240.219 35.941 241.372 37.273L242.586 38.6753L245.549 38.2893C248.779 37.869 249.183 37.5557 248.425 36.061C246.137 31.5493 240.705 29.4763 234.371 30.697ZM262.368 30.6797C258.978 31.501 256.166 33.8603 255.453 36.4823C254.897 38.5247 255.278 41.475 256.296 43.0037C257.759 45.2027 259.466 45.9723 266.332 47.529C268.275 47.9693 269.123 48.3357 269.602 48.9403C271.511 51.3533 268.574 53.8643 264.689 53.1397C263.77 52.9683 262.968 52.444 261.851 51.2857L260.293 49.6707L257.21 50.126C255.515 50.3767 254.045 50.6633 253.945 50.763C253.634 51.0723 255.009 53.8067 256.094 55.035C258.406 57.6533 263.543 59.046 268.459 58.388C271.592 57.9683 273.161 57.3637 274.779 55.9513C277.011 54.0027 277.93 51.0527 277.273 47.9447C276.536 44.456 274.169 42.6793 268.739 41.5383C267.264 41.2287 265.528 40.8127 264.883 40.6143C262.228 39.7983 261.368 37.7013 263.123 36.3253C263.904 35.7127 264.371 35.6227 266.184 35.7363C268.208 35.8633 268.387 35.9443 269.536 37.2593L270.751 38.648L273.251 38.3243C277.19 37.8147 277.483 37.5993 276.534 35.912C275.388 33.8723 274.097 32.6237 272.157 31.6743C270.405 30.8177 269.581 30.6347 266.895 30.5067C265.143 30.423 263.106 30.501 262.368 30.6797ZM31.0607 31.75C30.7935 32.7417 30.7989 56.2777 31.0664 57.2717L31.2743 58.0437L39.0252 57.915C43.7052 57.8377 47.2496 57.6313 47.9712 57.3947C49.4686 56.9037 51.8136 54.9333 52.5472 53.55C52.9073 52.8707 53.1115 51.6577 53.1253 50.1147C53.1444 47.9393 53.0562 47.6163 52.1201 46.448C51.5558 45.7433 50.6159 44.9417 50.0319 44.6667C48.8221 44.097 48.6226 43.15 49.6443 42.8273C50.0235 42.708 50.7779 42.0003 51.3207 41.255C53.1189 38.7877 52.5345 34.635 50.1331 32.814C48.107 31.2777 46.3732 31.0077 38.5166 31.0037C31.2763 31 31.2626 31.0013 31.0607 31.75ZM59.3453 31.5C59.3429 31.775 59.3409 37.625 59.3409 44.5C59.3409 51.375 59.3429 57.2303 59.3453 57.512C59.3486 57.944 59.8616 58.0093 62.6184 57.9287L65.8875 57.8333L65.9817 53.5133C66.0461 50.57 66.2063 49.1107 66.4846 48.935C67.0033 48.6073 69.1287 48.5983 69.5894 48.9217C69.7812 49.0563 70.9209 51.1167 72.1219 53.5L74.3053 57.8333L77.8919 57.928C80.7469 58.0033 81.4785 57.9297 81.4785 57.567C81.4785 57.3167 80.4223 55.0033 79.1315 52.4267C77.8406 49.8497 76.7844 47.5517 76.7844 47.3193C76.7844 47.0873 77.3789 46.3913 78.1055 45.773C81.6143 42.7873 82.1468 37.425 79.2716 34.0283C77.1667 31.5413 74.9796 31.033 66.3066 31.0147C60.3411 31.002 59.3486 31.0713 59.3453 31.5ZM94.057 31.325C93.885 31.602 90.3326 41.729 87.6814 49.5C87.2438 50.7833 86.4234 53.1577 85.8584 54.776C85.2935 56.3943 84.8314 57.782 84.8314 57.8593C84.8314 57.9367 86.2594 58 88.005 58C91.6238 58 91.3746 58.1883 92.5777 54.5457L93.3079 52.3333H98.0818H102.856L103.209 53.25C103.404 53.754 103.842 54.9917 104.184 56L104.805 57.8333L108.062 57.9287C111.155 58.0193 111.319 57.9897 111.319 57.3397C111.319 56.7133 109.664 51.4113 108.976 49.8333C108.816 49.4667 108.06 47.2917 107.296 45C106.532 42.7083 105.778 40.5333 105.622 40.1667C105.465 39.8 104.774 37.85 104.086 35.8333C102.262 30.489 102.879 31 98.2511 31C96.0194 31 94.17 31.1433 94.057 31.325ZM116.56 31.75C116.295 32.7357 116.297 56.275 116.563 57.262C116.761 57.9943 116.887 58.0203 119.828 57.9287L122.887 57.8333L122.973 50.1667C123.02 45.95 123.137 42.289 123.234 42.031C123.339 41.75 124.062 42.686 125.036 44.3643C126.951 47.6623 132.173 56.1717 132.944 57.25C133.438 57.9407 133.74 58 136.778 58C139.915 58 140.086 57.9633 140.279 57.25C140.544 56.264 140.541 32.725 140.275 31.7377C140.079 31.008 139.945 30.9793 137.178 31.071L134.287 31.1667L134.119 39.1667L133.952 47.1667L133.197 46.1153C132.782 45.537 132.443 44.9833 132.443 44.8853C132.443 44.7873 131.532 43.256 130.42 41.4827C129.308 39.7093 127.927 37.4187 127.353 36.392C126.778 35.3653 125.798 33.7323 125.174 32.7627L124.04 31H120.401C116.911 31 116.754 31.0307 116.56 31.75ZM148.07 31.5273C147.958 31.8173 147.866 37.655 147.866 44.5C147.866 51.345 147.958 57.1827 148.07 57.4727C148.245 57.9257 149.082 57.9983 154.021 57.9883C162.056 57.972 165.218 57.1703 168.217 54.39C170.598 52.183 171.614 49.725 171.894 45.5C172.239 40.2863 170.519 35.974 167.184 33.6933C164.023 31.5307 161.58 31.0267 154.189 31.012C149.097 31.0017 148.245 31.0733 148.07 31.5273ZM177.865 31.4053C177.774 31.6417 177.739 37.6847 177.787 44.834L177.875 57.8333L187.179 57.922C194.501 57.9917 196.487 57.9207 196.502 57.5887C196.538 56.731 196.549 53.4813 196.517 52.9247C196.487 52.4067 195.904 52.34 190.7 52.258L184.916 52.1667L184.748 41.6667L184.581 31.1667L181.306 31.0713C178.871 31.0003 177.988 31.086 177.865 31.4053ZM201.848 44.505V58.0103L211.488 57.9217L221.127 57.8333L221.225 55.4687C221.294 53.7813 221.191 52.996 220.865 52.727C220.574 52.4863 218.29 52.3163 214.565 52.258L208.722 52.1667L208.623 49.75L208.524 47.3333L212.814 47.3287C218.856 47.3223 218.613 47.443 218.613 44.461C218.613 42.3587 218.527 41.9927 218.026 41.9493C217.703 41.9213 217.288 41.8637 217.104 41.821C216.92 41.7783 214.914 41.7263 212.647 41.705L208.524 41.6667L208.623 39.25L208.722 36.8333L214.407 36.7417C218.441 36.6767 220.168 36.5313 220.353 36.2417C220.663 35.7573 220.713 32.2827 220.421 31.5273C220.242 31.0643 219.099 31 211.033 31H201.848V44.505ZM45.0504 36.8173C46.1318 37.8137 46.2417 39.5527 45.2969 40.713C44.744 41.392 44.2729 41.525 41.8601 41.682C37.7542 41.949 37.8906 42.0407 37.8906 39.0167C37.8906 37.602 37.9912 36.3443 38.1143 36.2223C38.237 36.1 39.6486 36 41.2506 36C43.8776 36 44.2501 36.08 45.0504 36.8173ZM72.2848 36.6283C74.2935 37.8463 74.6208 40.753 72.9269 42.335C72.2432 42.9733 71.632 43.1367 69.4563 43.262C67.5817 43.3697 66.7411 43.2943 66.5594 43.0023C66.2841 42.5593 66.316 36.723 66.5959 36.2723C66.9453 35.71 71.2105 35.9773 72.2848 36.6283ZM161.26 37.3017C166.083 39.7163 166.098 49.1693 161.283 51.7157C160.435 52.1643 159.403 52.3333 157.511 52.3333H154.907V44.5557C154.907 40.2777 155.02 36.6663 155.157 36.53C155.57 36.1187 160.022 36.6817 161.26 37.3017ZM98.5619 38.4167C99.148 39.8603 100.925 45.8997 100.925 46.4473C100.925 46.9187 100.506 47 98.0754 47C94.8315 47 94.912 47.1037 95.8471 44.1383C97.254 39.677 97.5725 38.568 97.5725 38.1283C97.5725 37.3997 98.2263 37.5903 98.5619 38.4167ZM44.5877 47.102C46.7856 47.853 47.2902 50.4327 45.5544 52.0443C44.5213 53.004 44.4379 53.021 41.2794 52.928L38.0583 52.8333L37.96 50.0287C37.8893 48.0097 37.9832 47.147 38.2953 46.9503C38.9424 46.5423 43.2529 46.6463 44.5877 47.102Z" fill="black"/>
</svg>
