<svg width="262" height="105" viewBox="0 0 262 105" fill="none" xmlns="http://www.w3.org/2000/svg">
<path fill-rule="evenodd" clip-rule="evenodd" d="M0 3.68368V7.36419H25.4836H50.9672V3.68368V0.00316933H25.4836H0V3.68368ZM58.1313 3.68215V7.36419H94.668C114.763 7.36419 131.205 7.34211 131.205 7.31522C131.205 7.22761 130.276 6.40746 129.477 5.78965C126.425 3.42901 122.768 1.66022 119.092 0.767387C115.918 -0.00357826 118.878 0.0641023 86.8643 0.0303642L58.1313 0V3.68215ZM145.533 3.68348V7.36419H167.684H189.835L188.909 4.68049C188.4 3.2045 187.834 1.55972 187.653 1.02553L187.322 0.0542876L166.427 0.028524L145.533 0.00265815V3.68348ZM220.244 0.032C220.244 0.0479489 219.691 1.66247 219.016 3.61989C218.34 5.5772 217.788 7.22045 217.788 7.27147C217.788 7.32667 226.739 7.36419 239.894 7.36419H262V3.68368V0.00316933H241.122C229.639 0.00316933 220.244 0.0161534 220.244 0.032ZM0 17.639V21.3706H25.4836H50.9672V17.639V13.9073H25.4836H0V17.639ZM58.1313 17.5878V21.2684H98.8129C121.188 21.2684 139.494 21.2338 139.494 21.1917C139.491 21.0173 138.78 18.793 138.423 17.8434C138.211 17.2811 137.725 16.1655 137.341 15.3642L136.644 13.9073H97.3875H58.1313V17.5878ZM145.533 17.5876V21.2684H170.089H194.645L193.719 18.5846C193.21 17.1087 192.645 15.4639 192.463 14.9297L192.132 13.9584L168.832 13.9327L145.533 13.9069V17.5876ZM215.38 14.0351C215.087 14.8386 212.977 21.1051 212.977 21.1748C212.977 21.2311 222.732 21.2684 237.489 21.2684H262V17.5878V13.9073H238.714C220.178 13.9073 215.418 13.9334 215.38 14.0351ZM14.5328 31.5431V35.2747H25.4836H36.4344V31.5431V27.8115H25.4836H14.5328V31.5431ZM72.7664 31.5431V35.2747H83.7172H94.668V31.5431V27.8115H83.7172H72.7664V31.5431ZM116.365 31.5431V35.2747H127.83H139.295L139.384 35.0401C139.719 34.1593 140.181 31.1418 140.276 29.2172L140.345 27.8115H128.355H116.365V31.5431ZM160.066 31.5428V35.2747H179.774H199.482L199.409 35.0447C199.369 34.9181 198.796 33.2505 198.136 31.3386L196.936 27.8626L178.501 27.8367L160.066 27.811V31.5428ZM210.571 27.9393C210.357 28.532 208.065 35.2053 208.065 35.2356C208.065 35.2571 216.93 35.2747 227.766 35.2747H247.467V31.5431V27.8115H229.042C214.395 27.8115 210.608 27.8377 210.571 27.9393ZM14.5328 45.5495V49.2811H25.4836H36.4344V45.5495V41.8179H25.4836H14.5328V45.5495ZM72.7664 45.5495V49.2811H101.614H130.461L131.319 48.5163C132.94 47.0701 134.691 44.9764 135.998 42.9206C136.345 42.3744 136.629 41.9028 136.629 41.8727C136.629 41.8425 122.26 41.8179 104.698 41.8179H72.7664V45.5495ZM160.066 45.5495V49.2811H171.015H181.964L181.991 46.0862L182.018 42.8914L183.105 46.0607L184.192 49.23H203.766H223.341L224.428 46.0607L225.514 42.8914L225.541 46.0862L225.569 49.2811H236.518H247.467V45.5495V41.8179L226.615 41.8192L205.762 41.8205L204.796 44.6307C204.265 46.1763 203.802 47.4409 203.767 47.4409C203.732 47.4409 203.269 46.1761 202.737 44.6304L201.771 41.8198L180.918 41.8189L160.066 41.8179V45.5495ZM14.5328 59.5048V63.1853H25.4836H36.4344V59.5048V55.8243H25.4836H14.5328V59.5048ZM72.7664 59.5048V63.1853H104.706H136.646L136.413 62.8019C135.199 60.7993 133.721 58.9317 131.964 57.1789L130.607 55.8243H101.687H72.7664V59.5048ZM160.066 59.5048V63.1853H171.016H181.967V59.5048V55.8243H171.016H160.066V59.5048ZM186.577 55.8498C186.579 55.8639 187.144 57.5086 187.832 59.5048L189.083 63.1342L203.77 63.16L218.457 63.186L219.683 59.5932C220.357 57.6173 220.924 55.9609 220.943 55.9124C220.962 55.8632 213.367 55.8243 203.775 55.8243C194.314 55.8243 186.574 55.8357 186.577 55.8498ZM225.566 59.5048V63.1853H236.516H247.467V59.5048V55.8243H236.516H225.566V59.5048ZM14.5328 73.4601V77.1917H25.4836H36.4344V73.4601V69.7284H25.4836H14.5328V73.4601ZM72.7664 73.4601V77.1917H83.7172H94.668V73.4601V69.7284H83.7172H72.7664V73.4601ZM116.365 73.4596V77.1917H128.339H140.313L140.312 76.5527C140.31 74.9672 139.935 72.1083 139.517 70.4952L139.332 69.7795L127.848 69.7536L116.365 69.7275V73.4596ZM160.066 73.4601V77.1917H171.016H181.967V73.4601V69.7284H171.016H160.066V73.4601ZM191.4 69.8138C191.419 69.8607 192.01 71.5398 192.713 73.5449L193.993 77.1908H203.766L213.54 77.1907L214.82 73.5474C215.523 71.5435 216.114 69.8646 216.133 69.8163C216.152 69.7676 210.635 69.7284 203.766 69.7284C196.946 69.7284 191.381 69.7669 191.4 69.8138ZM225.566 73.4601V77.1917H236.516H247.467V73.4601V69.7284H236.516H225.566V73.4601ZM0 87.4153V91.0958H25.4836H50.9672V87.4153V83.7348H25.4836H0V87.4153ZM58.1313 87.4154V91.0962L97.4009 91.0704L136.671 91.0447L137.299 89.8123C138.074 88.2942 138.668 86.7917 139.137 85.1644C139.334 84.4816 139.495 83.8806 139.495 83.8289C139.495 83.7718 123.508 83.7348 98.8129 83.7348H58.1313V87.4154ZM145.533 87.4153V91.0958H163.75H181.967V87.4153V83.7348H163.75H145.533V87.4153ZM196.797 85.1406C197.069 85.9138 197.65 87.57 198.088 88.8211L198.883 91.0958H203.765H208.647L209.906 87.5431C210.598 85.5892 211.186 83.933 211.212 83.8626C211.25 83.7611 209.721 83.7348 203.781 83.7348H196.302L196.797 85.1406ZM225.566 87.4153V91.0958H243.783H262V87.4153V83.7348H243.783H225.566V87.4153ZM0 101.319V105H25.4836H50.9672V101.319V97.639H25.4836H0V101.319ZM58.1313 101.319V105H86.5264C111.48 105 115.068 104.981 116.129 104.843C121.277 104.173 126.121 102.047 130.215 98.6604C130.759 98.21 131.205 97.7958 131.205 97.7402C131.205 97.6736 118.71 97.639 94.668 97.639H58.1313V101.319ZM145.533 101.319V105H163.75H181.967V101.319V97.639H163.75H145.533V101.319ZM201.207 97.7157C201.207 97.861 203.715 104.999 203.767 105C203.819 105 206.325 97.8628 206.325 97.7157C206.325 97.6734 205.174 97.639 203.766 97.639C202.359 97.639 201.208 97.6734 201.207 97.7157ZM225.566 101.319V105H243.783H262V101.319V97.639H243.783H225.566V101.319Z" fill="black"/>
</svg>
