<svg width="358" height="150" viewBox="0 0 358 150" fill="none" xmlns="http://www.w3.org/2000/svg">
<path fill-rule="evenodd" clip-rule="evenodd" d="M71.0859 0.0317212C70.9154 0.0503458 70.1581 0.107994 69.4029 0.159876C58.0309 0.941667 46.5771 4.53569 36.6724 10.4302C31.2206 13.6746 26.5225 17.3483 21.9194 21.966C17.1937 26.7066 13.8549 30.9966 10.3422 36.8413C7.45332 41.6481 4.84817 47.6281 3.10269 53.4591C1.5163 58.7585 0.629785 63.6178 0.117258 69.8222C-0.0373149 71.6935 -0.039618 78.2993 0.113626 80.1544C0.313021 82.5683 0.660434 85.5311 0.94026 87.2052C2.95804 99.2733 7.66494 110.282 14.9714 120.02C23.4762 131.356 34.8553 139.951 48.1436 145.076C57.2776 148.599 67.5432 150.31 77.4053 149.954C86.9582 149.609 95.8309 147.631 104.507 143.915C106.025 143.264 109.821 141.397 111.169 140.639C117.735 136.94 123.167 132.788 128.355 127.503C136.029 119.683 141.761 110.533 145.493 100.146C148.862 90.7658 150.352 79.9569 149.654 69.9552C148.723 56.6039 144.424 44.0461 137.014 33.0285C136.55 32.339 135.542 30.9366 134.773 29.9123C125.166 17.1043 111.606 7.63536 96.3757 3.09787C91.3844 1.61091 86.675 0.720123 81.0069 0.190917C79.6451 0.0638265 71.9291 -0.0599829 71.0859 0.0317212ZM89.9536 74.3456V133.368L75.3599 133.346L60.7663 133.323L60.7441 88.0398L60.7218 42.7564L57.9981 42.6979C56.5 42.6657 54.0637 42.6394 52.5839 42.6393L49.8936 42.6391L49.9256 35.4775C49.9432 31.5386 49.9727 28.2259 49.9911 28.1159C50.0248 27.9145 50.4604 27.5122 55.6729 22.8674C58.9438 19.9528 59.2048 19.7198 61.2535 17.886C62.2035 17.0357 63.2399 16.1112 63.5566 15.8319L64.1324 15.3238L77.043 15.3233L89.9536 15.323V74.3456ZM207.146 39.5961C201.811 39.9993 197.166 42.6442 194.324 46.8962C193.421 48.2465 192.601 50.1047 192.182 51.7491C191.494 54.4487 191.619 58.0708 192.493 60.7136C194.141 65.6986 197.996 69.4198 203.125 70.9763C205.021 71.5518 205.95 71.6777 208.297 71.6777C210.072 71.6777 210.531 71.6489 211.413 71.4821C214.123 70.9694 216.518 69.9471 218.572 68.4259C219.658 67.6221 221.288 65.9692 222.051 64.8987C222.849 63.7781 223.888 61.6638 224.274 60.3768C225.152 57.4435 225.202 54.3276 224.419 51.345C222.905 45.5766 218.112 41.1692 212.018 39.9415C210.293 39.5943 208.682 39.48 207.146 39.5961ZM164.007 55.6317V71.1082H168.259H172.511V65.6095V60.1108H179.819H187.126V56.5189V52.927H179.817H172.508L172.531 50.3328L172.555 47.7387L180.639 47.7161L188.723 47.6934L188.7 43.9468L188.677 40.2002L176.342 40.1777L164.007 40.1552V55.6317ZM229.71 40.2089C229.674 40.2448 229.645 47.2117 229.645 55.6911V71.1082H233.941H238.237V66.4502V61.7923L240.113 61.8163L241.989 61.8402L245.074 66.4742L248.158 71.1082H253.082C256.212 71.1082 257.995 71.077 257.976 71.0224C257.942 70.9241 255.991 68.0554 251.437 61.4097C251.04 60.8315 250.729 60.348 250.744 60.3354C250.759 60.3228 251.031 60.1896 251.347 60.0396C252.267 59.6035 253.488 58.7503 254.193 58.0502C256.137 56.1224 257.017 53.8506 257.016 50.7647C257.015 47.3005 255.906 44.7691 253.559 42.8768C251.926 41.5602 249.922 40.7602 247.273 40.3674C246.386 40.236 245.189 40.2118 238.015 40.1801C233.483 40.1601 229.746 40.1731 229.71 40.2089ZM268.148 40.2146C268.116 40.2473 268.089 41.9433 268.089 43.9834V47.6928L272.717 47.7157L277.346 47.7387L277.368 59.4234L277.391 71.1082H281.642H285.893L285.915 59.4234L285.938 47.7387L290.567 47.7157L295.197 47.6928L295.173 43.9465L295.15 40.2002L281.679 40.1777C274.27 40.1654 268.181 40.182 268.148 40.2146ZM299.241 40.2141C299.208 40.2471 299.181 47.2117 299.181 55.6911V71.1082H303.432H307.683L307.706 65.2769L307.729 59.4456L313.199 59.4227L318.668 59.3999V65.254V71.1082H322.965H327.261L327.239 55.6542L327.217 40.2002H322.965H318.713L318.69 45.9878L318.667 51.7754L313.198 51.7526L307.729 51.7297L307.684 45.9649L307.64 40.2002L303.47 40.1771C301.177 40.1644 299.274 40.1811 299.241 40.2141ZM332.989 40.215C332.957 40.2474 332.93 47.2117 332.93 55.6911V71.1082H345.464H357.998V67.4719V63.8357H349.716H341.434V61.3968V58.9578H348.83H356.227V55.5433V52.1288H348.83H341.434V49.8229V47.517H349.583H357.732V43.8364V40.1558H345.39C338.602 40.1558 333.021 40.1824 332.989 40.215ZM209.846 47.474C211.378 47.7987 212.508 48.3831 213.584 49.4065C215.105 50.8527 215.945 52.6066 216.185 54.8316C216.349 56.3576 216.118 57.8356 215.485 59.305C214.221 62.2412 211.627 63.9483 208.43 63.949C206.987 63.9493 206.191 63.7696 204.969 63.1676C202.928 62.1621 201.445 60.3002 200.804 57.9374C200.589 57.148 200.563 56.8957 200.561 55.632C200.559 54.3739 200.586 54.1124 200.795 53.3261C201.633 50.1702 203.968 47.9348 206.953 47.4303C207.654 47.312 209.192 47.3353 209.846 47.474ZM245.613 47.8123C247.383 48.3203 248.308 49.3981 248.403 51.063C248.479 52.395 248.032 53.427 247.073 54.134C246.024 54.9067 245.059 55.0555 241.096 55.0555H238.237V51.3226V47.5898L241.67 47.6278C244.515 47.6592 245.19 47.6908 245.613 47.8123ZM132.882 54.8372C132.837 54.9531 131.74 56.4702 127.365 62.461C126.263 63.9699 122.435 69.2202 118.311 74.8774C116.142 77.8529 113.538 81.4249 112.524 82.8151C111.51 84.2053 109.816 86.5301 108.761 87.9812L106.841 90.6197H103.838C101.923 90.6197 100.845 90.5883 100.864 90.5331C100.88 90.4855 102.167 88.6996 103.724 86.5643C105.282 84.429 108.228 80.3872 110.272 77.5824C112.316 74.7777 114.34 72.0039 114.769 71.4186C115.888 69.8931 122.496 60.8219 124.899 57.5131L126.936 54.7072L129.935 54.704C132.598 54.7011 132.928 54.716 132.882 54.8372ZM107.692 55.0892C110.319 55.8185 112.274 57.4279 113.385 59.7762C114.088 61.2608 114.323 63.3259 113.979 64.9895C113.328 68.1357 110.941 70.6254 107.758 71.4753C106.788 71.7343 104.859 71.7603 103.928 71.527C101.367 70.8848 99.3812 69.3112 98.2262 67.0091C97.0472 64.6591 97.0541 61.8937 98.245 59.5213C99.3995 57.2216 101.521 55.594 104.126 55.0105C104.876 54.8426 106.97 54.8888 107.692 55.0892ZM104.702 59.703C103.784 59.9946 103.173 60.4571 102.629 61.272C101.68 62.6945 101.877 64.6583 103.092 65.8915C104.601 67.4223 107.032 67.3846 108.473 65.8082C109.147 65.0718 109.38 64.5092 109.425 63.5159C109.47 62.5184 109.319 61.9423 108.814 61.1857C108.135 60.1678 106.974 59.5725 105.689 59.5846C105.341 59.5879 104.897 59.6412 104.702 59.703ZM129.068 73.862C134.166 74.766 137.312 79.9291 135.702 84.7517C134.911 87.1209 133.446 88.7725 131.198 89.8265C129.967 90.4039 129.173 90.5705 127.689 90.5626C126.677 90.5572 126.259 90.5163 125.717 90.3693C122.567 89.5154 120.294 87.1994 119.52 84.0567C119.287 83.1111 119.264 81.3949 119.471 80.4633C120.207 77.1621 122.775 74.6192 126.094 73.9066C126.79 73.7572 128.345 73.734 129.068 73.862ZM229.094 93.5784C225.258 102.668 222.095 110.17 222.064 110.251C222.013 110.386 222.387 110.397 226.837 110.397H231.666L232.75 107.67C233.346 106.17 233.889 104.833 233.956 104.699L234.079 104.455H240.406H246.733L246.899 104.832C246.991 105.039 247.541 106.376 248.121 107.803L249.177 110.397L254.071 110.397C256.93 110.397 258.965 110.364 258.965 110.317C258.965 110.255 246.775 81.3135 245.262 77.782L244.948 77.0503L240.508 77.0512L236.067 77.0521L229.094 93.5784ZM163.806 77.2814C163.77 77.3169 163.741 84.7825 163.741 93.8716V110.397H168.347H172.954V105.652V100.908H175.899C179.884 100.908 181.433 100.728 183.62 100.011C186.877 98.9436 189.229 97.0047 190.541 94.3031C191.765 91.7855 192.037 88.647 191.29 85.6833C190.308 81.7929 187.377 79.0306 183.024 77.8956C180.648 77.2758 180.863 77.2883 171.933 77.2507C167.498 77.2321 163.841 77.2459 163.806 77.2814ZM195.601 77.286C195.568 77.319 195.542 84.7826 195.542 93.8719V110.398L208.142 110.375L220.743 110.353V106.362V102.371L212.749 102.348L204.755 102.326L204.732 89.7989L204.71 77.272L200.185 77.2491C197.697 77.2365 195.634 77.2531 195.601 77.286ZM262.195 77.3385C262.172 77.3996 262.163 84.8527 262.176 93.9012L262.198 110.353L266.738 110.376L271.277 110.399L271.3 101.338L271.322 92.2767L274.903 96.8803C276.873 99.4124 280.042 103.489 281.945 105.94L285.406 110.397L289.437 110.375L293.467 110.353V93.8125V77.272H288.95H284.432L284.41 85.9414C284.397 90.7095 284.357 94.6093 284.321 94.6076C284.285 94.6058 283.415 93.5183 282.389 92.1908C278.847 87.6111 271.426 78.0691 271.078 77.649L270.73 77.2277H266.483C263.168 77.2277 262.228 77.252 262.195 77.3385ZM299.329 77.2865C299.296 77.3192 299.269 84.7826 299.269 93.8719V110.398L312.711 110.375L326.154 110.353L326.177 106.473L326.2 102.593H317.296H308.393V99.9763V97.36H316.321H324.249V93.7238V90.0875H316.321H308.393V87.6047V85.1219L317.14 85.0993L325.888 85.0766V81.1743V77.272L312.638 77.2496C305.35 77.2372 299.361 77.2539 299.329 77.2865ZM329.003 77.2866C328.97 77.3192 328.944 79.1352 328.944 81.3222V85.2984H333.904H338.865V97.8478V110.397H343.471H348.077V97.8478V85.2984H353.039H358L357.977 81.2852L357.954 77.272L343.508 77.2496C335.563 77.2373 329.036 77.2539 329.003 77.2866ZM126.67 78.5937C124.871 79.1649 123.735 80.9539 124.04 82.7361C124.548 85.6998 128.047 86.9307 130.235 84.9151C131.909 83.372 131.791 80.6058 129.992 79.2319C129.095 78.5471 127.676 78.2744 126.67 78.5937ZM179.117 85.2054C179.987 85.4143 180.208 85.5072 180.849 85.934C182.189 86.8266 182.807 88.6379 182.384 90.4346C182.033 91.9238 180.865 93.0336 179.154 93.5033C178.676 93.6346 178.102 93.6681 175.766 93.7009L172.954 93.7406V89.3864V85.0323L175.677 85.0329C178.065 85.0334 178.49 85.0547 179.117 85.2054ZM242.285 92.6372C243.269 95.1586 244.063 97.2333 244.048 97.2475C244.034 97.2617 242.388 97.2629 240.391 97.2501L236.759 97.227L237.343 95.7624C237.664 94.9569 238.485 92.8915 239.167 91.1727C239.849 89.454 240.427 88.0489 240.452 88.0502C240.476 88.0516 241.301 90.1158 242.285 92.6372ZM352.181 104.666C351.662 104.836 351.249 105.108 350.866 105.533C350.339 106.116 350.166 106.596 350.163 107.471C350.16 108.376 350.368 108.886 350.997 109.513C351.606 110.122 352.135 110.342 352.993 110.345C353.841 110.348 354.496 110.091 355.051 109.535C355.604 108.981 355.822 108.444 355.858 107.545C355.886 106.861 355.863 106.718 355.647 106.237C355.367 105.612 354.817 105.059 354.205 104.788C353.688 104.558 352.693 104.498 352.181 104.666ZM353.869 105.184C354.436 105.352 355.116 106.08 355.301 106.721C355.763 108.309 354.643 109.865 353.038 109.865C351.372 109.865 350.245 108.236 350.795 106.622C350.973 106.097 351.695 105.336 352.152 105.192C352.577 105.058 353.429 105.054 353.869 105.184ZM351.837 106.078C351.812 106.141 351.804 106.789 351.817 107.519L351.842 108.845H352.24H352.639L352.666 108.424C352.698 107.927 352.908 107.849 353.145 108.247C353.433 108.73 353.647 108.89 354.01 108.89C354.2 108.89 354.376 108.858 354.4 108.818C354.424 108.779 354.321 108.558 354.171 108.327L353.898 107.906L354.135 107.658C354.62 107.152 354.486 106.344 353.876 106.089C353.476 105.922 351.9 105.913 351.837 106.078ZM353.466 106.75C353.685 106.889 353.549 107.236 353.242 107.324C352.83 107.442 352.683 107.353 352.683 106.986C352.683 106.683 352.694 106.672 353.016 106.674C353.198 106.674 353.401 106.709 353.466 106.75Z" fill="black"/>
</svg>
