<svg width="358" height="55" viewBox="0 0 358 55" fill="none" xmlns="http://www.w3.org/2000/svg">
<path fill-rule="evenodd" clip-rule="evenodd" d="M15.0758 0.0777972C13.7616 0.209882 11.7676 0.547596 11.0119 0.76604C9.82542 1.10911 9.1204 1.3315 9.0455 1.38627C8.99743 1.42137 8.85489 1.47482 8.72886 1.50492C8.20317 1.63078 6.08731 2.72396 5.78379 3.02666C5.72025 3.09002 5.63775 3.1418 5.60052 3.1418C5.5632 3.1418 5.4502 3.21096 5.34943 3.29539C5.24857 3.37982 5.03611 3.54692 4.87723 3.66654C4.51252 3.94124 3.33687 5.11885 3.07923 5.46754C2.97217 5.61235 2.7528 5.90855 2.59173 6.12577C1.93932 7.00534 1.2405 8.53435 0.868368 9.89645C0.369161 11.7239 0.144553 14.5027 0.350458 16.3064C0.505674 17.667 0.886721 19.4498 1.12881 19.9485C1.17565 20.0451 1.29914 20.3215 1.40323 20.5629C1.73228 21.3256 2.41869 22.3975 3.14477 23.2823C3.97513 24.2943 6.15041 26.2241 7.3397 27.004C7.60495 27.1779 7.84162 27.3409 7.86565 27.3662C7.88968 27.3916 8.18465 27.585 8.52112 27.7961C8.8576 28.0073 9.32954 28.3088 9.56987 28.4664C10.0278 28.7665 12.3023 30.0852 12.3619 30.0852C12.381 30.0852 12.7369 30.2827 13.1531 30.5241C13.5693 30.7654 13.9226 30.9629 13.9382 30.9629C13.9538 30.9629 14.2162 31.1055 14.5212 31.2798C14.8262 31.4541 15.3511 31.7454 15.6876 31.927C16.8515 32.5552 18.7983 33.7183 19.6946 34.3209C21.5247 35.5513 23.0398 37.084 23.5762 38.2473C24.0039 39.1748 24.1178 40.3078 23.916 41.6262C23.7109 42.966 23.2421 43.9149 22.4327 44.6284C22.0492 44.9666 21.182 45.3838 20.5381 45.5397C19.924 45.6886 17.935 45.6936 17.3044 45.5479C16.1225 45.2749 14.8382 44.34 14.3698 43.4118C13.8596 42.4007 13.8685 42.4712 13.8312 39.1468L13.7966 36.0532H6.89826H0L0.00288407 38.9713C0.0044572 40.5763 0.0414258 42.1462 0.084949 42.4599C0.242 43.5904 0.59071 45.1437 0.784293 45.5755C0.827554 45.6721 0.889955 45.8498 0.92299 45.9705C1.01537 46.3085 1.92971 48.1646 2.00382 48.1646C2.03991 48.1646 2.11638 48.268 2.17372 48.3943C2.43031 48.9598 3.84788 50.5407 4.63199 51.1358C4.80023 51.2635 4.98219 51.4074 5.03638 51.4557C5.09065 51.504 5.20863 51.5917 5.29856 51.6507C5.38858 51.7097 5.67848 51.9047 5.94276 52.084C6.57839 52.5154 8.32527 53.3431 9.30769 53.6784C11.1002 54.2902 12.9225 54.6668 15.338 54.9245C16.2911 55.0262 20.9218 55.0248 21.8927 54.9225C25.5657 54.5358 28.4716 53.702 30.7197 52.3899C32.1772 51.5393 33.8346 50.0173 34.6902 48.744C35.7679 47.1402 36.4744 45.211 36.7509 43.1166C37.2774 39.1291 37.0597 35.3898 36.1685 33.1131C35.2948 30.881 33.5194 28.7454 30.9382 26.8221C30.4335 26.446 29.9812 26.1074 29.9332 26.0695C29.5782 25.7904 27.4204 24.434 26.6558 24.0095C26.4395 23.8893 26.1052 23.701 25.9129 23.5909C25.2299 23.1997 23.8015 22.4211 22.8541 21.9235C22.3253 21.6458 21.6568 21.2898 21.3684 21.1324C21.0799 20.975 20.5883 20.7082 20.2759 20.5395C18.309 19.4778 17.011 18.6458 15.775 17.6548C14.0833 16.2982 13.5195 15.2287 13.5143 13.3663C13.5104 11.9639 13.8956 10.8983 14.7157 10.0431C15.2241 9.51274 15.5486 9.30904 16.3491 9.0174C16.8408 8.83837 17.0698 8.81274 18.1784 8.81274C19.5173 8.81274 20.0648 8.93192 20.8816 9.40146C21.3327 9.66071 22.1468 10.4983 22.36 10.9227C22.8206 11.8389 22.8352 11.9329 22.8897 14.3317L22.9415 16.6135H29.3651H35.7887L35.7794 13.9806C35.7685 10.8564 35.659 9.95446 35.0871 8.27598C34.5389 6.66709 33.8461 5.54416 32.6424 4.3138C31.2653 2.90607 29.5593 1.8874 27.3113 1.13052C25.9763 0.681085 23.8313 0.264646 21.849 0.070074C20.8575 -0.0272559 16.0668 -0.0218146 15.0758 0.0777972ZM181.959 0.337753C179.833 0.521881 177.196 1.01029 176.322 1.38188C176.226 1.42278 175.891 1.54389 175.579 1.65114C174.632 1.97595 172.857 2.82304 172.797 2.97856C172.781 3.02007 172.727 3.05404 172.677 3.05404C172.578 3.05404 171.589 3.7443 171.17 4.10483C170.64 4.56112 169.86 5.39829 169.45 5.95024C169.217 6.264 168.988 6.56748 168.94 6.6247C168.831 6.75451 168.143 8.09957 168.004 8.45308C167.947 8.59702 167.836 8.87277 167.758 9.06585C167.679 9.25893 167.554 9.65387 167.48 9.94349C166.617 13.3221 166.653 16.8266 167.579 19.5978C168.634 22.7534 171.272 25.5008 176.09 28.462C176.443 28.679 176.767 28.8566 176.811 28.8566C176.854 28.8566 176.89 28.8961 176.89 28.9443C176.89 28.9926 176.933 29.0321 176.986 29.0321C177.038 29.0321 177.186 29.1064 177.313 29.1973C177.441 29.2881 177.801 29.4985 178.113 29.6647C178.426 29.8309 178.996 30.1454 179.381 30.3635C180.863 31.2042 181.697 31.665 181.735 31.665C181.771 31.665 183.727 32.7758 184.056 32.9829C184.204 33.0762 185.213 33.6813 185.444 33.8152C185.889 34.074 187.38 35.1891 187.968 35.7036C189.161 36.747 189.865 37.7323 190.183 38.8033C190.335 39.3175 190.356 39.5758 190.322 40.5175C190.274 41.8681 190.164 42.3997 189.76 43.2301C189.251 44.2784 188.479 44.8798 187.071 45.3228C186.338 45.5535 184.333 45.5522 183.576 45.3204C182.2 44.8995 181.332 44.2488 180.772 43.2191C180.311 42.3721 180.278 42.1127 180.234 38.9274L180.193 35.9654H173.378H166.562L166.599 39.1907C166.64 42.7422 166.699 43.2495 167.287 45.1367C167.56 46.0118 168.283 47.5809 168.682 48.1654C170.753 51.1949 173.864 53.1235 178.306 54.1319C180.383 54.6033 182.539 54.7736 185.76 54.7205C187.786 54.6871 188.661 54.6358 189.606 54.4951C191.184 54.2604 193.078 53.8436 193.626 53.6106C193.722 53.5697 194.057 53.4486 194.369 53.3415C194.681 53.2344 195.145 53.0526 195.398 52.9375C195.652 52.8224 195.872 52.7283 195.888 52.7283C195.903 52.7283 196.271 52.5342 196.706 52.2971C198.877 51.1124 200.699 49.2612 201.711 47.2111C202.093 46.4387 202.574 45.0819 202.727 44.3468C203.072 42.695 203.313 39.6789 203.233 38.0279C203.147 36.2453 202.812 34.1644 202.481 33.3528C201.793 31.6646 200.752 30.0757 199.525 28.8424C199.139 28.4542 197.838 27.3178 197.431 27.0135C197.27 26.8928 197.095 26.7546 197.043 26.7063C196.99 26.6581 196.77 26.5002 196.554 26.3556C196.338 26.2108 196.141 26.0711 196.117 26.045C196.036 25.9569 194.591 25.0228 194.15 24.7736C193.91 24.6377 193.654 24.4794 193.582 24.4219C193.51 24.3645 193.235 24.1992 192.971 24.0547C192.153 23.6078 191.62 23.3067 191.529 23.241C191.429 23.1689 190.273 22.5457 189.2 21.9844C188.357 21.5439 186.347 20.4619 186.154 20.3446C186.082 20.3009 185.826 20.159 185.586 20.0294C185.345 19.8997 184.984 19.6803 184.783 19.5419C184.582 19.4035 184.397 19.2903 184.372 19.2903C184.33 19.2903 183.774 18.9395 183.576 18.7869C183.527 18.75 183.311 18.6015 183.095 18.4568C182.879 18.3121 182.682 18.1732 182.658 18.148C182.634 18.1229 182.363 17.8944 182.057 17.6403C180.811 16.6074 180.189 15.6459 180.028 14.5027C179.698 12.159 180.624 10.1195 182.352 9.38601C183.414 8.93535 184.757 8.81537 185.864 9.07234C187.483 9.44806 188.469 10.3226 189.017 11.8674C189.223 12.449 189.24 12.6245 189.28 14.6169L189.323 16.7452H195.653H201.983L201.946 13.9148C201.904 10.7221 201.828 10.0739 201.31 8.53672C200.637 6.5387 199.581 4.99476 198.026 3.73675C195.634 1.80033 192.356 0.706975 187.814 0.330557C186.733 0.241038 183.023 0.245514 181.959 0.337753ZM336.519 0.336086C334.014 0.600956 332.48 0.934809 330.576 1.62946C327.606 2.71281 325.185 4.61351 323.777 6.96733C322.783 8.62861 322.115 10.5983 321.888 12.5325C321.835 12.9911 321.742 13.7415 321.682 14.2C321.521 15.4431 321.527 39.2314 321.689 40.5291C321.752 41.036 321.844 41.7863 321.892 42.1966C321.996 43.0854 322.311 44.3449 322.634 45.1608C322.886 45.8008 323.534 47.1282 323.628 47.1992C323.66 47.2233 323.79 47.4208 323.917 47.638C324.411 48.483 326 50.0984 326.933 50.7035C327.158 50.8492 327.381 51.0001 327.43 51.039C327.594 51.172 328.391 51.622 328.915 51.8785C332.798 53.7761 338.458 54.4884 344.035 53.7812C344.86 53.6765 346.355 53.4017 346.875 53.259C347.784 53.0097 348.786 52.7012 349.016 52.5998C349.161 52.5364 349.377 52.4547 349.496 52.4182C349.912 52.2916 350.857 51.8248 351.726 51.3164C353.169 50.4717 354.514 49.2873 355.405 48.0768C355.772 47.5764 356.663 46.1005 356.664 45.9897C356.664 45.955 356.715 45.8279 356.777 45.7072C357.101 45.0747 357.417 43.973 357.734 42.3722C357.91 41.4832 357.918 41.1449 357.95 32.784L357.984 24.1173H348.89H339.796V27.8912V31.665H342.47H345.143L345.105 36.2068C345.068 40.5443 345.057 40.7742 344.88 41.319C344.581 42.2373 344.338 42.6437 343.725 43.2498C343.192 43.7773 342.873 43.986 342.068 44.3327C341.612 44.5292 341.488 44.5558 340.583 44.6497C337.6 44.9591 335.437 43.7554 334.676 41.3629C334.514 40.8535 334.509 40.3957 334.509 27.3646C334.509 12.2888 334.463 13.4144 335.134 12.0352C335.503 11.2777 336.33 10.4381 337.089 10.0526C338.174 9.50116 340.166 9.35161 341.487 9.72241C342.331 9.95929 343.08 10.3908 343.628 10.9557C344.073 11.4149 344.62 12.4142 344.778 13.0591C344.831 13.2763 344.897 14.4908 344.926 15.7578L344.977 18.0616H351.488H358L357.951 15.5384C357.901 12.9639 357.825 12.2245 357.441 10.6017C356.405 6.22415 353.495 3.13364 348.894 1.52546C347.274 0.95912 345.223 0.534783 343.117 0.330206C342.211 0.242179 337.366 0.246479 336.519 0.336086ZM54.7511 1.65395C54.72 1.7045 54.6417 2.05002 54.577 2.42188C54.3803 3.5528 54.1206 4.98791 53.9702 5.77471C53.809 6.61795 53.5557 7.99162 53.2987 9.41691C53.2029 9.94788 53.0716 10.6588 53.0071 10.9967C52.9425 11.3345 52.8109 12.0454 52.7146 12.5764C52.6184 13.1074 52.4755 13.8775 52.397 14.2878C52.3186 14.6981 52.1796 15.4485 52.0881 15.9553C51.9966 16.4621 51.8581 17.2125 51.7803 17.6228C51.6122 18.5091 51.3689 19.8318 51.1183 21.2211C51.0182 21.7762 50.8842 22.5069 50.8206 22.8447C50.7569 23.1826 50.6247 23.8935 50.5268 24.4245C50.4288 24.9555 50.2858 25.7256 50.2091 26.1359C50.1323 26.5462 49.9903 27.3163 49.8935 27.8473C49.6586 29.1353 49.3872 30.6044 49.2449 31.3578C49.1811 31.6957 49.0508 32.4066 48.9553 32.9376C48.8598 33.4685 48.7175 34.2387 48.639 34.649C48.5606 35.0593 48.4196 35.8195 48.3259 36.3384C47.8772 38.8202 47.8045 39.2162 47.6775 39.8709C47.6025 40.2571 47.4663 40.9877 47.3748 41.4945C47.2834 42.0014 47.1443 42.7517 47.0659 43.162C46.9036 44.011 46.6515 45.3928 46.4015 46.8042C46.3074 47.3352 46.1724 48.0658 46.1015 48.4279C46.0305 48.7899 45.8944 49.5205 45.799 50.0515C45.7035 50.5825 45.5636 51.3328 45.4881 51.719C45.4125 52.1052 45.3276 52.5693 45.2994 52.7502L45.2482 53.0793H52.206H59.1638L59.2073 52.8819C59.2312 52.7733 59.2924 52.3882 59.3434 52.0262C59.4777 51.0718 59.7516 49.2157 59.9003 48.2523C60.0912 47.0163 60.3765 45.1118 60.5643 43.8203C60.6555 43.1928 60.7926 42.2844 60.8689 41.8017C60.9452 41.319 61.0866 40.3909 61.183 39.7393C61.2795 39.0876 61.4148 38.1793 61.4835 37.7207C61.5523 37.2621 61.6913 36.334 61.7925 35.6582C62.0762 33.7616 62.3066 32.2288 62.4455 31.3139C62.5151 30.8554 62.6504 29.947 62.7462 29.2954C62.842 28.6437 62.9827 27.7156 63.0589 27.2329C63.1351 26.7502 63.2726 25.8419 63.3645 25.2144C63.7 22.9213 63.8844 21.6847 64.0187 20.8262C64.0943 20.3435 64.2314 19.4351 64.3235 18.8076C64.4157 18.1801 64.5528 17.2718 64.6284 16.7891C64.7039 16.3064 64.8414 15.398 64.9339 14.7705C65.1237 13.4829 65.4079 11.5802 65.5958 10.3384C65.6651 9.87986 65.7819 9.07024 65.8554 8.53927C65.9288 8.0083 66.025 7.39615 66.0689 7.17893C66.1129 6.96172 66.1737 6.59276 66.2041 6.35904C66.2345 6.12533 66.2768 5.95164 66.298 5.97297C66.3193 5.9943 66.4133 6.58047 66.5069 7.27556C66.6005 7.97056 66.7366 8.93421 66.8094 9.41691C66.9752 10.5161 67.2342 12.2831 67.4717 13.9367C67.5723 14.6367 67.7105 15.5845 67.7788 16.0431C67.8473 16.5016 67.9841 17.4297 68.0831 18.1055C68.1821 18.7813 68.3191 19.7094 68.3875 20.168C68.4561 20.6265 68.5896 21.5349 68.6843 22.1865C68.7791 22.8382 68.9406 23.944 69.0432 24.6439C69.3084 26.4529 69.4477 27.4095 69.6504 28.8127C69.748 29.4885 69.8892 30.4363 69.9641 30.919C70.0899 31.7303 70.2262 32.6774 70.5661 35.1042C70.6383 35.6201 70.7192 36.1335 70.7458 36.2451C70.7724 36.3568 70.8509 36.8628 70.9202 37.3696C71.0934 38.6358 71.372 40.5725 71.5327 41.6262C71.6062 42.1089 71.7463 43.0567 71.8439 43.7325C71.9415 44.4083 72.0773 45.3364 72.1458 45.795C72.3628 47.2503 72.9026 50.967 73.0952 52.3333L73.1942 53.0355L80.1222 53.0579L87.0501 53.0804L87.005 52.8824C86.9802 52.7735 86.9235 52.4672 86.8789 52.2017C86.7777 51.5993 86.492 50.0046 86.2579 48.735C86.1599 48.2041 86.0253 47.4734 85.9586 47.1114C85.5655 44.9759 85.4682 44.4498 85.3423 43.7764C85.2656 43.3661 85.126 42.6059 85.0322 42.0869C84.9384 41.568 84.7849 40.719 84.691 40.2C84.5973 39.6811 84.4577 38.9209 84.3809 38.5106C84.3042 38.1003 84.1666 37.3499 84.0751 36.8431C83.9836 36.3362 83.8445 35.5858 83.7661 35.1755C83.6876 34.7652 83.5447 33.9951 83.4485 33.4642C83.3523 32.9332 83.2207 32.2223 83.1561 31.8844C83.0442 31.2995 82.8763 30.3795 82.5075 28.33C82.4164 27.8231 82.2776 27.0728 82.1991 26.6625C82.1207 26.2522 81.9817 25.5018 81.8902 24.995C81.7987 24.4881 81.661 23.7377 81.5843 23.3274C81.5075 22.9172 81.368 22.1569 81.2742 21.638C81.1803 21.1191 81.0269 20.2699 80.933 19.7511C80.8392 19.2321 80.6983 18.4719 80.6199 18.0616C80.5414 17.6513 80.3991 16.8812 80.3036 16.3502C80.208 15.8193 80.078 15.1084 80.0145 14.7705C79.9509 14.4326 79.8171 13.702 79.7171 13.1469C79.5467 12.2007 79.3865 11.333 79.0528 9.54855C78.976 9.13826 78.8378 8.38788 78.7454 7.88104C78.6531 7.37421 78.5147 6.62383 78.438 6.21353C78.3613 5.80324 78.224 5.05286 78.1329 4.54602C78.0418 4.03919 77.887 3.19007 77.7888 2.6591C77.6907 2.12813 77.6098 1.66413 77.6091 1.62788C77.6069 1.52046 54.8173 1.54643 54.7511 1.65395ZM98.2285 2.59328C98.226 3.1605 98.1877 5.14501 98.1436 7.0034C98.0994 8.8618 97.9831 14.1737 97.885 18.8076C97.7868 23.4415 97.6488 29.8395 97.5782 33.0253C97.3096 45.141 97.1896 50.9656 97.1871 52.0042L97.1845 53.0793H103.608C107.141 53.0793 110.033 53.0695 110.035 53.0574C110.038 53.0453 110.096 45.0182 110.166 35.2194C110.323 13.0592 110.398 6.08338 110.477 6.47682C110.511 6.64577 110.621 7.23817 110.721 7.79328C110.822 8.34838 110.984 9.23699 111.082 9.76796C111.18 10.2989 111.315 11.0296 111.382 11.3916C111.448 11.7536 111.583 12.4842 111.681 13.0152C111.779 13.5462 111.923 14.3163 112.001 14.7266C112.08 15.1369 112.219 15.8873 112.31 16.3941C112.539 17.6593 112.789 19.0147 112.958 19.9047C113.035 20.315 113.174 21.0653 113.266 21.5722C113.357 22.079 113.493 22.8096 113.568 23.1958C113.643 23.582 113.783 24.3323 113.879 24.8633C113.975 25.3943 114.112 26.1249 114.183 26.4869C114.254 26.849 114.389 27.5796 114.483 28.1106C114.713 29.4108 114.979 30.8563 115.144 31.7089C115.219 32.095 115.358 32.8454 115.454 33.3764C115.549 33.9074 115.685 34.638 115.756 35C115.827 35.362 115.967 36.1124 116.067 36.6675C116.304 37.9888 116.573 39.456 116.717 40.222C116.781 40.5598 116.914 41.2707 117.012 41.8017C117.11 42.3327 117.254 43.1028 117.332 43.5131C117.411 43.9234 117.549 44.6738 117.64 45.1806C117.73 45.6874 117.885 46.5366 117.984 47.0675C118.084 47.5985 118.219 48.3291 118.285 48.6912C118.351 49.0532 118.45 49.5863 118.504 49.876C118.559 50.1656 118.682 50.837 118.777 51.3679C118.873 51.8989 118.995 52.5012 119.047 52.7063L119.144 53.0793H125.633H132.123L132.179 52.8819C132.21 52.7733 132.312 52.25 132.407 51.719C132.501 51.188 132.639 50.4376 132.714 50.0515C132.789 49.6653 132.925 48.9347 133.017 48.4279C133.108 47.921 133.247 47.1706 133.325 46.7604C133.459 46.0492 133.624 45.1504 133.978 43.2059C134.066 42.7232 134.202 41.9926 134.281 41.5823C134.359 41.172 134.504 40.4019 134.601 39.8709C134.951 37.9752 135.024 37.5766 135.202 36.6236C135.301 36.0927 135.456 35.2436 135.547 34.7367C135.637 34.2299 135.776 33.4795 135.854 33.0692C135.933 32.6589 136.078 31.8888 136.176 31.3578C136.275 30.8269 136.408 30.116 136.472 29.7781C136.536 29.4402 136.666 28.7293 136.762 28.1983C137.026 26.7343 137.275 25.3845 137.434 24.5561C137.513 24.1458 137.649 23.4152 137.736 22.9325C137.824 22.4498 137.96 21.7192 138.039 21.3089C138.117 20.8986 138.258 20.1383 138.352 19.6194C138.526 18.6568 138.798 17.189 139.006 16.0869C139.07 15.7491 139.2 15.0382 139.296 14.5072C139.391 13.9762 139.534 13.2061 139.612 12.7958C139.754 12.0525 140.012 10.672 140.227 9.50467C140.639 7.26134 140.734 6.75029 140.789 6.47682C140.824 6.30788 140.878 9.76357 140.91 14.1561C140.942 18.5487 141.009 25.8353 141.058 30.3485C141.107 34.8618 141.147 40.3712 141.146 42.5916C141.146 44.812 141.171 48.0801 141.203 49.854L141.26 53.0793H147.699H154.138L154.106 51.7409C154.088 51.0048 154.035 48.5858 153.988 46.3654C153.839 39.3536 153.556 26.4775 153.424 20.6945C153.185 10.2452 153.036 3.27468 153.033 2.41775L153.031 1.56206H142.549H132.068L131.975 2.02282C131.924 2.27628 131.821 2.87851 131.746 3.36121C131.466 5.15861 131.276 6.36861 131.146 7.17893C131.072 7.6375 130.934 8.50636 130.838 9.10973C130.743 9.71311 130.602 10.582 130.526 11.0405C130.45 11.4991 130.311 12.358 130.217 12.9494C130.122 13.5407 129.968 14.5083 129.874 15.0996C129.78 15.691 129.641 16.5499 129.565 17.0085C129.489 17.467 129.351 18.3161 129.259 18.8954C129.167 19.4746 129.029 20.3237 128.952 20.7823C128.875 21.2409 128.735 22.1097 128.641 22.7131C128.336 24.6708 128.114 26.0764 127.99 26.838C127.923 27.2483 127.79 28.0777 127.694 28.681C127.597 29.2844 127.456 30.1533 127.38 30.6118C127.304 31.0704 127.163 31.9393 127.067 32.5426C126.679 34.9836 126.551 35.7836 126.418 36.5798C126.282 37.3999 126.079 38.672 125.808 40.3928C125.682 41.1928 125.591 41.5356 125.587 41.224C125.585 41.0997 125.445 40.1933 125.191 38.6641C125.06 37.8752 124.894 36.8397 124.544 34.627C124.45 34.0357 124.312 33.1767 124.237 32.7182C124.162 32.2596 124.023 31.3907 123.927 30.7874C123.832 30.184 123.693 29.3151 123.619 28.8566C123.544 28.398 123.406 27.5391 123.312 26.9477C123.218 26.3563 123.064 25.3888 122.97 24.7975C122.876 24.2061 122.737 23.3472 122.66 22.8886C122.584 22.4301 122.447 21.581 122.355 21.0017C122.262 20.4225 122.125 19.5734 122.049 19.1148C121.973 18.6562 121.835 17.8071 121.743 17.2279C121.652 16.6486 121.493 15.6613 121.391 15.0338C121.178 13.7272 121.044 12.8902 120.781 11.2161C120.679 10.5644 120.542 9.7153 120.478 9.32914C120.414 8.94298 120.281 8.11361 120.183 7.4861C120.084 6.85859 119.941 5.96999 119.865 5.51142C119.789 5.05286 119.669 4.30248 119.6 3.84391C119.487 3.09713 119.355 2.32077 119.244 1.75952L119.205 1.56206H108.719H98.2332L98.2285 2.59328ZM214.994 20.3084C214.994 38.3368 215.026 41.0044 215.259 42.6355C215.496 44.2972 215.923 45.7705 216.531 47.0274C217.857 49.7649 220.311 51.901 223.516 53.1076C226.748 54.3246 230.854 54.7866 235.707 54.4792C237.156 54.3874 237.502 54.3468 239.025 54.0898C239.916 53.9393 241.871 53.4157 242.319 53.2075C242.47 53.137 242.638 53.0793 242.692 53.0793C242.745 53.0793 242.857 53.0434 242.941 52.9996C243.024 52.9557 243.446 52.7516 243.879 52.5462C245.116 51.9584 246.323 51.1193 247.267 50.1897C249.232 48.2546 250.168 46.358 250.821 42.9865C251.059 41.7545 251.088 39.3965 251.088 20.8042L251.089 1.56206H244.578H238.067L238.066 21.1114C238.065 40.0215 238.059 40.6874 237.897 41.4746C237.357 44.103 235.142 45.55 232.223 45.1811C231.769 45.1236 231.334 45.0461 231.258 45.0088C231.182 44.9716 230.893 44.8375 230.617 44.7111C229.636 44.2613 228.958 43.5072 228.425 42.2707L228.148 41.6262L228.125 21.5941L228.102 1.56206H221.548H214.994V20.3084ZM265.16 27.0135V52.465H271.487H277.815L277.775 50.5122C277.753 49.4382 277.677 44.7879 277.605 40.1781C277.533 35.5683 277.417 28.5779 277.347 24.6439C277.278 20.7099 277.201 15.8917 277.177 13.9367L277.133 10.3823L277.34 10.9967C277.454 11.3345 277.654 11.9664 277.784 12.4009C277.914 12.8353 278.053 13.2895 278.093 13.4102C278.133 13.5308 278.265 13.9653 278.387 14.3756C278.818 15.8259 279.245 17.2322 279.361 17.5789C279.425 17.772 279.563 18.2262 279.667 18.5882C279.772 18.9502 279.967 19.6019 280.101 20.0363C280.235 20.4707 280.445 21.1619 280.568 21.5722C280.917 22.7348 281.399 24.328 281.737 25.4338C281.906 25.9889 282.116 26.68 282.202 26.9696C282.361 27.5016 282.725 28.7017 283.302 30.5902C283.843 32.363 283.93 32.656 284.124 33.3325C284.227 33.6945 284.347 34.0697 284.389 34.1663C284.432 34.2628 284.511 34.5195 284.566 34.7367C284.62 34.9539 284.775 35.4871 284.911 35.9215C285.183 36.7928 285.642 38.3016 286.005 39.5198C286.134 39.9543 286.35 40.6652 286.486 41.0996C286.621 41.534 286.816 42.1857 286.92 42.5477C287.024 42.9097 287.144 43.2849 287.186 43.3814C287.229 43.478 287.307 43.7347 287.36 43.9519C287.413 44.1691 287.511 44.5048 287.577 44.6979C287.643 44.891 287.78 45.3452 287.882 45.7072C287.984 46.0692 288.104 46.434 288.15 46.5178C288.195 46.6016 288.232 46.7215 288.232 46.7841C288.232 46.8468 288.386 47.3904 288.574 47.9921C288.761 48.5938 289.001 49.3823 289.105 49.7443C289.21 50.1063 289.366 50.6198 289.451 50.8852C289.537 51.1507 289.679 51.6148 289.766 51.9165L289.926 52.465H299.086H308.246V27.0135V1.56206H301.873H295.499L295.537 4.04138C295.558 5.40505 295.615 8.23868 295.663 10.3384C295.71 12.4382 295.789 17.2564 295.837 21.0456C295.885 24.8348 295.962 29.495 296.009 31.4017C296.153 37.3114 296.191 42.4486 296.089 42.1528C296.039 42.0079 295.925 41.6328 295.836 41.319C295.746 41.0052 295.615 40.5511 295.544 40.3097C295.152 38.984 294.752 37.6086 294.614 37.1063C294.527 36.7926 294.312 36.062 294.136 35.4827C293.96 34.9035 293.742 34.1728 293.652 33.8591C293.562 33.5453 293.424 33.0714 293.345 32.8059C293.266 32.5404 293.129 32.0665 293.039 31.7528C292.95 31.439 292.812 30.9651 292.733 30.6996C292.654 30.4341 292.514 29.9504 292.421 29.6245C292.329 29.2987 292.177 28.7655 292.084 28.4397C291.991 28.1139 291.857 27.6498 291.786 27.4085C291.714 27.1671 291.512 26.476 291.336 25.8726C291.16 25.2692 290.94 24.5188 290.846 24.2051C290.752 23.8913 290.602 23.3779 290.512 23.0642C290.422 22.7504 290.283 22.2765 290.202 22.011C290.121 21.7455 289.982 21.2716 289.893 20.9578C289.804 20.6441 289.666 20.1702 289.587 19.9047C289.508 19.6392 289.371 19.1653 289.283 18.8515C289.194 18.5377 288.981 17.7973 288.808 17.2059C288.258 15.3205 287.904 14.0947 287.623 13.103C287.473 12.572 287.314 12.0586 287.271 11.9621C287.228 11.8655 287.135 11.5693 287.065 11.3038C286.932 10.8009 286.686 9.93568 286.441 9.10973C286.362 8.84425 286.224 8.37032 286.135 8.05657C286.045 7.74281 285.908 7.26889 285.829 7.0034C285.75 6.73792 285.613 6.264 285.525 5.95024C285.436 5.63648 285.22 4.88611 285.044 4.28273C284.868 3.67936 284.62 2.82032 284.492 2.37387L284.261 1.56206H274.71H265.16V27.0135Z" fill="black"/>
</svg>
