<svg width="346" height="165" viewBox="0 0 346 165" fill="none" xmlns="http://www.w3.org/2000/svg">
<g clip-path="url(#clip0_224_285)">
<path d="M307.882 52.1788V56.2116H307.002V53.1349H306.672L307.075 52.1788H307.882Z" fill="black"/>
<path d="M309.913 53.426C309.943 53.8506 310.139 54.2461 310.46 54.5269C310.78 54.8077 311.198 54.9509 311.624 54.9256C311.989 54.9294 312.347 54.8265 312.654 54.6296C312.119 55.9884 310.71 55.44 310.414 55.3284L310.035 56.0709C310.521 56.5562 313.582 56.8328 313.582 53.8919C313.582 53.5522 313.334 51.9216 311.638 51.9216V52.6447C311.868 52.6322 312.095 52.705 312.274 52.8493C312.454 52.9935 312.573 53.199 312.61 53.426C312.61 53.8531 312.124 54.2025 311.638 54.2025C311.527 54.2177 311.414 54.209 311.306 54.1768C311.198 54.1447 311.099 54.0898 311.014 54.0161C310.929 53.9423 310.861 53.8512 310.815 53.749C310.768 53.6468 310.744 53.5359 310.744 53.4236C310.744 53.3113 310.768 53.2004 310.815 53.0982C310.861 52.996 310.929 52.905 311.014 52.8312C311.099 52.7574 311.198 52.7025 311.306 52.6704C311.414 52.6382 311.527 52.6295 311.638 52.6447V51.9216C311.426 51.9071 311.213 51.9345 311.011 52.0023C310.81 52.0701 310.624 52.1769 310.463 52.3166C310.303 52.4564 310.172 52.6263 310.078 52.8166C309.983 53.007 309.927 53.2141 309.913 53.426V53.426Z" fill="black"/>
<path d="M316.269 56.3912C315.977 56.4089 315.684 56.3663 315.409 56.2661C315.134 56.1659 314.883 56.0102 314.67 55.8088L315.205 55.275C315.494 55.4816 315.826 55.6194 316.177 55.6778C316.473 55.6778 317.003 55.5516 317.003 55.0906C317.003 54.8722 316.804 54.5034 315.948 54.6053V53.9065C316.838 53.9841 317.056 53.6638 317.056 53.3678C317.056 53.0718 316.731 52.8291 316.323 52.8291C316.15 52.8436 315.983 52.8943 315.831 52.9779C315.679 53.0615 315.547 53.1762 315.443 53.3144L314.85 52.7223C315.019 52.4981 315.24 52.3187 315.494 52.2002C315.748 52.0817 316.028 52.0277 316.308 52.0429C317.193 52.0429 317.858 52.5913 317.858 53.2707C317.861 53.4507 317.818 53.6284 317.733 53.7871C317.648 53.9459 317.524 54.0804 317.372 54.1782C317.521 54.2799 317.643 54.416 317.727 54.5749C317.812 54.7337 317.857 54.9106 317.858 55.0906C317.844 55.77 317.241 56.3912 316.269 56.3912Z" fill="black"/>
<path d="M320.638 56.3912C320.346 56.4089 320.053 56.3663 319.778 56.2661C319.503 56.1659 319.252 56.0103 319.039 55.8088L319.569 55.275C319.858 55.481 320.191 55.6187 320.541 55.6778C320.832 55.6778 321.367 55.5516 321.367 55.0906C321.367 54.8722 321.163 54.5034 320.313 54.6053V53.9065C321.202 53.9841 321.42 53.6638 321.42 53.3678C321.42 53.0718 321.09 52.8291 320.687 52.8291C320.514 52.8436 320.347 52.8943 320.195 52.9779C320.043 53.0616 319.911 53.1762 319.807 53.3144L319.214 52.7224C319.38 52.5013 319.597 52.3239 319.847 52.2055C320.097 52.0871 320.372 52.0313 320.648 52.043C321.537 52.043 322.203 52.5913 322.203 53.2707C322.205 53.4507 322.162 53.6284 322.077 53.7872C321.992 53.9459 321.868 54.0805 321.717 54.1783C321.866 54.2799 321.987 54.416 322.072 54.5749C322.157 54.7337 322.201 54.9107 322.203 55.0906C322.213 55.77 321.61 56.3912 320.638 56.3912Z" fill="black"/>
<path d="M307.556 82.8154V80.5006H307.104V83.2667H308.606V82.1991H309.354V83.2667H310.856V80.5006H311.555C312.377 80.5006 312.377 80.9228 312.926 80.9228C313.339 80.9228 313.475 80.5006 313.771 80.5006C314.068 80.5006 314.16 81.0247 314.549 81.0247C314.938 81.0247 315.035 80.5006 315.322 80.5006C315.608 80.5006 315.759 80.9228 316.167 80.9228C316.716 80.9228 316.877 80.5006 317.698 80.5006C317.798 80.4858 317.899 80.4947 317.995 80.5263C318.091 80.5579 318.178 80.6115 318.249 80.6827C318.321 80.7539 318.374 80.8408 318.406 80.9364C318.438 81.032 318.446 81.1337 318.432 81.2333C318.42 81.4559 318.453 81.6787 318.53 81.8879C318.607 82.0972 318.726 82.2886 318.879 82.4504C319.033 82.6123 319.218 82.7412 319.423 82.8293C319.628 82.9174 319.849 82.9628 320.072 82.9628C320.295 82.9628 320.516 82.9174 320.721 82.8293C320.926 82.7412 321.111 82.6123 321.264 82.4504C321.418 82.2886 321.537 82.0972 321.614 81.8879C321.691 81.6787 321.724 81.4559 321.712 81.2333V78.8797C321.713 78.6645 321.671 78.4513 321.589 78.2523C321.507 78.0533 321.386 77.8725 321.234 77.7201C321.082 77.5677 320.901 77.4468 320.702 77.3643C320.503 77.2818 320.29 77.2394 320.074 77.2394V77.8314C320.332 77.8314 320.579 77.9337 320.761 78.1157C320.944 78.2977 321.046 78.5446 321.046 78.802C321.077 79.2515 320.949 79.6976 320.686 80.0638C320.95 80.4313 321.078 80.8793 321.046 81.3304C321.046 81.5878 320.944 81.8347 320.761 82.0167C320.579 82.1987 320.332 82.301 320.074 82.301C319.816 82.301 319.569 82.1987 319.387 82.0167C319.205 81.8347 319.102 81.5878 319.102 81.3304C319.072 80.8787 319.201 80.4306 319.467 80.0638C319.202 79.6983 319.073 79.2521 319.102 78.802C319.102 78.5446 319.205 78.2977 319.387 78.1157C319.569 77.9337 319.816 77.8314 320.074 77.8314V77.2588C319.639 77.2588 319.221 77.4316 318.913 77.7392C318.605 78.0468 318.432 78.4641 318.432 78.8991C318.447 78.9993 318.439 79.1016 318.407 79.198C318.376 79.2944 318.323 79.3822 318.251 79.4543C318.18 79.5265 318.093 79.581 317.997 79.6135C317.901 79.646 317.798 79.6556 317.698 79.6416C316.877 79.6416 316.726 79.2097 316.167 79.2097C315.759 79.2097 315.618 79.6076 315.322 79.6076C315.025 79.6076 314.938 79.1223 314.549 79.1223C314.16 79.1223 314.063 79.6076 313.771 79.6076C313.48 79.6076 313.339 79.2097 312.926 79.2097C312.377 79.2097 312.377 79.6416 311.555 79.6416H306.404V80.52H310.404V82.8348H309.806V81.7672H308.154V82.8348L307.556 82.8154Z" fill="black"/>
<path d="M335.625 69.6591C335.625 72.3834 335.087 75.0809 334.043 77.5977C332.999 80.1145 331.469 82.4012 329.54 84.3273C327.611 86.2534 325.32 87.7811 322.8 88.8232C320.28 89.8652 317.578 90.4012 314.85 90.4006V89.3669C318.755 89.3679 322.572 88.2125 325.819 86.0468C329.066 83.8811 331.596 80.8024 333.091 77.2002C334.586 73.598 334.977 69.6341 334.216 65.8097C333.454 61.9854 331.574 58.4725 328.813 55.7153C326.052 52.9582 322.534 51.0806 318.705 50.3202C314.875 49.5597 310.906 49.9505 307.299 51.4431C303.692 52.9357 300.609 55.4631 298.44 58.7056C296.272 61.948 295.115 65.7599 295.116 69.6591C295.117 74.8856 297.197 79.8976 300.897 83.5932C304.598 87.2889 309.617 89.3657 314.85 89.3669V90.4006C310.741 90.4006 306.724 89.1837 303.308 86.9039C299.892 84.624 297.229 81.3836 295.657 77.5924C294.084 73.8013 293.673 69.6296 294.475 65.6051C295.277 61.5806 297.256 57.8839 300.162 54.9827C303.068 52.0815 306.77 50.106 310.8 49.306C314.831 48.5061 319.008 48.9176 322.804 50.4886C326.6 52.0596 329.844 54.7194 332.126 58.1318C334.408 61.5441 335.626 65.5557 335.625 69.6591V69.6591Z" fill="black"/>
<path d="M336.203 69.6591C336.204 65.4415 334.953 61.3183 332.607 57.8109C330.261 54.3036 326.927 51.5697 323.025 49.955C319.124 48.3403 314.83 47.9174 310.688 48.7396C306.545 49.5618 302.74 51.5924 299.753 54.5744C296.767 57.5564 294.732 61.3559 293.908 65.4924C293.084 69.629 293.506 73.9167 295.122 77.8134C296.738 81.7101 299.475 85.0408 302.987 87.3841C306.498 89.7274 310.627 90.9781 314.85 90.9781V91.4634C310.525 91.4634 306.297 90.1826 302.701 87.783C299.105 85.3834 296.302 81.9727 294.647 77.9823C292.992 73.9919 292.559 69.6009 293.403 65.3647C294.246 61.1285 296.329 57.2373 299.387 54.1832C302.446 51.1291 306.342 49.0492 310.584 48.2066C314.826 47.3639 319.223 47.7964 323.219 49.4493C327.215 51.1022 330.63 53.9012 333.033 57.4925C335.436 61.0838 336.718 65.306 336.718 69.6252C336.718 75.417 334.414 80.9717 330.313 85.0671C326.212 89.1626 320.65 91.4634 314.85 91.4634V90.9781C317.654 90.9787 320.431 90.4278 323.021 89.3567C325.612 88.2856 327.966 86.7154 329.949 84.7356C331.932 82.7559 333.505 80.4055 334.578 77.8187C335.651 75.2318 336.203 72.4592 336.203 69.6591V69.6591Z" fill="black"/>
<path d="M344.566 69.6591C344.565 77.5288 341.434 85.0757 335.861 90.6399C330.288 96.2041 322.731 99.33 314.85 99.33V100.339C320.928 100.34 326.869 98.5414 331.923 95.1701C336.977 91.7987 340.916 87.0064 343.242 81.3992C345.568 75.792 346.177 69.6219 344.992 63.6691C343.806 57.7163 340.88 52.2483 336.582 47.9566C332.285 43.6649 326.809 40.7423 320.848 39.5585C314.888 38.3747 308.709 38.9827 303.094 41.3058C297.479 43.6289 292.681 47.5627 289.305 52.6096C285.929 57.6564 284.127 63.5898 284.128 69.6591C284.129 77.7957 287.367 85.5986 293.128 91.352C298.889 97.1053 306.703 100.338 314.85 100.339V99.33C308.973 99.33 303.227 97.5894 298.34 94.3284C293.453 91.0674 289.645 86.4324 287.396 81.0096C285.147 75.5868 284.558 69.6197 285.705 63.863C286.852 58.1064 289.683 52.8187 293.839 48.6686C297.996 44.5186 303.291 41.6927 309.056 40.5482C314.821 39.4037 320.796 39.992 326.226 42.2389C331.655 44.4857 336.296 48.2901 339.561 53.1709C342.825 58.0516 344.567 63.7896 344.566 69.6591V69.6591Z" fill="black"/>
<path d="M343.925 69.6591C343.924 63.9167 342.218 58.3035 339.023 53.5294C335.827 48.7552 331.286 45.0344 325.973 42.8376C320.661 40.6407 314.815 40.0664 309.175 41.1873C303.536 42.3082 298.355 45.0739 294.29 49.1347C290.224 53.1955 287.455 58.3691 286.334 64.0013C285.212 69.6334 285.789 75.4711 287.989 80.7763C290.19 86.0815 293.917 90.6159 298.698 93.8061C303.479 96.9963 309.1 98.6991 314.85 98.6991V98.1701C309.204 98.1701 303.685 96.4981 298.991 93.3656C294.297 90.2331 290.638 85.7808 288.478 80.5717C286.317 75.3626 285.752 69.6307 286.854 64.1009C287.956 58.5711 290.675 53.4918 294.668 49.5053C298.66 45.5189 303.747 42.8043 309.284 41.7049C314.822 40.6055 320.562 41.1708 325.777 43.3291C330.993 45.4874 335.451 49.1418 338.587 53.8303C341.723 58.5187 343.396 64.0306 343.395 69.6688C343.394 77.2283 340.386 84.4777 335.033 89.8226C329.68 95.1675 322.42 98.1701 314.85 98.1701V98.6991C318.669 98.6991 322.45 97.9479 325.978 96.4885C329.506 95.029 332.711 92.8899 335.411 90.1932C338.111 87.4965 340.252 84.2951 341.713 80.7719C343.174 77.2486 343.926 73.4725 343.925 69.6591V69.6591Z" fill="black"/>
<path d="M309.393 42.8903L311.76 46.9425C311.405 46.9802 311.053 47.0386 310.705 47.1172L310.282 46.3941L308.99 46.6853L309.072 45.6759L309.772 45.5158L309.169 44.4821L309.072 45.6759L308.99 46.6853L308.922 47.52C308.575 47.5997 308.232 47.6985 307.896 47.8161L308.28 43.1427L309.393 42.8903Z" fill="black"/>
<path d="M333.992 50.8054L332.661 51.975C332.581 52.0467 332.532 52.1466 332.525 52.2535C332.518 52.3603 332.552 52.4658 332.622 52.5476L333.594 53.6638L333.006 54.1491L331.757 52.7369L331.057 53.3581L332.583 55.0857C332.674 55.1862 332.801 55.2466 332.937 55.2539C333.072 55.2612 333.205 55.2147 333.307 55.1245L334.638 53.9987C334.719 53.9285 334.768 53.8292 334.775 53.7228C334.783 53.6163 334.747 53.5114 334.677 53.4309L333.705 52.305L334.279 51.8197L335.547 53.2756L336.281 52.6495L334.716 50.8782C334.63 50.7728 334.505 50.7059 334.369 50.6923C334.233 50.6786 334.098 50.7193 333.992 50.8054V50.8054Z" fill="black"/>
<path d="M294.236 59.5941C294.105 59.8659 293.974 60.1425 293.847 60.4288L289.896 58.4876L291.145 55.9932L292.006 56.4397L291.199 58.0654L291.874 58.4051L292.569 57.0075L293.425 57.454L292.734 58.837L294.236 59.5941Z" fill="black"/>
<path d="M332.787 49.0147C332.848 49.0641 332.899 49.1251 332.936 49.1942C332.973 49.2633 332.997 49.3391 333.004 49.4172C333.012 49.4954 333.004 49.5742 332.981 49.6493C332.958 49.7243 332.92 49.794 332.87 49.8543L330.809 52.3535C330.759 52.4147 330.698 52.4655 330.628 52.5028C330.558 52.5401 330.482 52.5633 330.404 52.5709C330.325 52.5786 330.246 52.5706 330.17 52.5475C330.094 52.5243 330.024 52.4864 329.964 52.436C329.594 52.1352 329.254 51.8052 329.162 51.7275C329.069 51.6499 328.734 51.3975 328.374 51.1306C328.313 51.0812 328.261 51.0199 328.224 50.9504C328.186 50.8809 328.162 50.8045 328.155 50.7258C328.147 50.6471 328.155 50.5676 328.179 50.4921C328.202 50.4166 328.241 50.3466 328.292 50.2862L330.338 47.7869C330.44 47.6655 330.586 47.5889 330.744 47.5735C330.902 47.5581 331.059 47.6051 331.183 47.7044L330.858 48.675L329.259 50.6162L330.333 51.4897L331.922 49.5485L330.858 48.6799L331.183 47.7093L332.787 49.0147Z" fill="black"/>
<path d="M305.092 47.0735L304.232 47.4618L303.839 46.5834L304.81 46.1563C304.839 46.1442 304.865 46.1265 304.887 46.1042C304.908 46.0819 304.925 46.0555 304.937 46.0266C304.948 45.9977 304.953 45.9667 304.953 45.9357C304.952 45.9046 304.945 45.874 304.932 45.8457L304.81 45.5788C304.798 45.5506 304.78 45.5252 304.757 45.5041C304.735 45.4829 304.708 45.4665 304.679 45.4556C304.65 45.4448 304.62 45.4398 304.589 45.441C304.558 45.4421 304.527 45.4494 304.499 45.4624L303.552 45.8894L303.863 46.5834L304.256 47.4618L304.947 49.0001L304.047 49.4418L302.24 45.4235L304.849 44.254C304.899 44.2306 304.953 44.2174 305.009 44.2153C305.064 44.2131 305.119 44.2221 305.17 44.2415C305.222 44.261 305.269 44.2906 305.309 44.3285C305.349 44.3665 305.381 44.4121 305.403 44.4626L305.996 45.7875C306.031 45.8779 306.031 45.9783 305.995 46.0684C305.959 46.1584 305.89 46.2315 305.802 46.2728C305.795 46.2728 305.789 46.2753 305.785 46.2799C305.78 46.2844 305.777 46.2906 305.777 46.2971C305.777 46.3035 305.78 46.3097 305.785 46.3142C305.789 46.3188 305.795 46.3213 305.802 46.3213C305.848 46.3002 305.897 46.2883 305.948 46.2863C305.998 46.2844 306.049 46.2924 306.096 46.31C306.144 46.3276 306.187 46.3544 306.224 46.3888C306.261 46.4232 306.291 46.4646 306.312 46.5106C306.434 46.7921 306.798 47.5831 306.798 47.6607C306.819 47.7432 306.868 47.8156 306.938 47.8646C307.007 47.9136 307.092 47.936 307.177 47.9276L307.206 47.9907C306.871 48.1218 306.54 48.2528 306.176 48.4081C306.112 48.3819 306.054 48.343 306.006 48.2938C305.957 48.2446 305.919 48.1861 305.894 48.1218C305.831 47.981 305.627 47.4326 305.535 47.2288C305.494 47.1521 305.426 47.0935 305.344 47.0647C305.262 47.0359 305.172 47.039 305.092 47.0735V47.0735Z" fill="black"/>
<path d="M315.365 46.7727V45.8021L313.577 45.8652L313.436 42.405L312.503 42.439L312.668 46.8358C313.64 46.763 314.491 46.7387 315.365 46.7533" fill="black"/>
<path d="M296.277 54.6295L297.05 55.2022C296.505 55.8865 295.99 56.5901 295.465 57.386L291.874 54.8382L293.488 52.5719L294.265 53.1445L293.211 54.6247L293.828 55.0663L294.732 53.7948L295.509 54.3675L294.61 55.6293L295.242 56.0854L296.277 54.6295Z" fill="black"/>
<path d="M297.648 54.4888L294.503 51.3344L294.926 50.9171L295.84 51.3344L297.609 53.1203L298.581 52.1497L296.807 50.3735L295.835 51.3441L294.921 50.9268L296.379 49.4709C296.434 49.4148 296.5 49.3703 296.573 49.3399C296.645 49.3095 296.723 49.2939 296.802 49.2939C296.881 49.2939 296.959 49.3095 297.031 49.3399C297.104 49.3703 297.17 49.4148 297.225 49.4709L299.504 51.7712C299.56 51.8267 299.605 51.8928 299.635 51.9657C299.666 52.0386 299.682 52.1168 299.682 52.1958C299.682 52.2748 299.666 52.353 299.635 52.4259C299.605 52.4988 299.56 52.5649 299.504 52.6204C299.169 52.9553 298.804 53.261 298.717 53.3435C298.629 53.426 297.949 54.1637 297.648 54.4888Z" fill="black"/>
<path d="M302.488 49.2331L303.017 50.0338C302.274 50.5191 301.56 51.0044 300.787 51.5528L298.279 47.9325L300.568 46.3505L301.103 47.1512L299.606 48.1849L300.034 48.8109L301.321 47.9228L301.836 48.7138L300.558 49.5922L301.001 50.2377L302.488 49.2331Z" fill="black"/>
<path d="M317.304 46.8454L318.077 42.4778L318.66 42.5797L318.845 43.5503L318.403 46.0204L319.763 46.2582L320.201 43.7881L318.845 43.5551L318.66 42.5845L320.706 42.9437C320.784 42.9559 320.858 42.9837 320.925 43.0252C320.992 43.0668 321.05 43.1213 321.095 43.1856C321.14 43.2498 321.172 43.3225 321.189 43.3994C321.206 43.4762 321.207 43.5555 321.192 43.6328L320.619 46.8212C320.605 46.8987 320.576 46.9728 320.534 47.0392C320.492 47.1057 320.437 47.1631 320.372 47.2082C320.308 47.2533 320.235 47.2852 320.158 47.3021C320.081 47.3189 320.001 47.3204 319.924 47.3065C319.438 47.224 318.996 47.1026 318.874 47.0784L317.304 46.8454Z" fill="black"/>
<path d="M324.463 47.7966L324.108 48.6896C323.306 48.3402 322.49 48.0247 321.586 47.719L323.121 43.594L325.731 44.5646L325.376 45.4624L323.675 44.8315L323.403 45.54L324.861 46.0836L324.511 46.9813L323.053 46.4378L322.776 47.1658L324.463 47.7966Z" fill="black"/>
<path d="M326.484 47.9325L326.97 47.0784L327.893 47.5977C327.92 47.6133 327.95 47.6235 327.981 47.6275C328.013 47.6316 328.044 47.6295 328.074 47.6214C328.105 47.6133 328.133 47.5993 328.158 47.5803C328.183 47.5612 328.203 47.5374 328.219 47.5103L328.365 47.2483C328.395 47.1927 328.402 47.1277 328.385 47.067C328.367 47.0063 328.327 46.9547 328.272 46.9231L327.349 46.4038L326.97 47.0784L326.484 47.9325L325.648 49.4321C325.308 49.2477 325.021 49.1021 324.744 48.9468L326.946 45.0402L329.482 46.4669C329.532 46.4933 329.576 46.5293 329.611 46.5729C329.646 46.6165 329.672 46.6667 329.688 46.7206C329.703 46.7745 329.708 46.831 329.701 46.8866C329.694 46.9422 329.676 46.9959 329.648 47.0444L328.695 48.7138C328.643 48.8036 328.558 48.8692 328.458 48.8965C328.358 48.9237 328.251 48.9104 328.161 48.8594L326.484 47.9325Z" fill="black"/>
<path d="M333.618 56.4785L337.263 54.0229L337.787 54.7994L334.138 57.2502C334.055 57.1191 333.968 56.9881 333.88 56.8571C333.793 56.726 333.71 56.5804 333.618 56.4785Z" fill="black"/>
<path d="M338.536 58.0315L335.469 59.599C335.401 59.4583 335.328 59.3175 335.26 59.1817L335.047 58.7691L338.113 57.2016L337.676 56.3427L338.526 55.9108L339.824 58.444L338.973 58.8808L338.536 58.0315Z" fill="black"/>
<path d="M290.256 61.8701L290.217 63.0542L291.316 63.5007L290.178 63.8307L290.091 65.0051L289.425 64.0297L288.278 64.3111L289.002 63.3794L288.38 62.3748L289.493 62.7728L290.256 61.8701Z" fill="black"/>
<path d="M339.449 61.8701L339.488 63.0542L338.39 63.5007L339.527 63.8307L339.614 65.0051L340.275 64.0297L341.427 64.3111L340.703 63.3794L341.325 62.3748L340.212 62.7728L339.449 61.8701Z" fill="black"/>
<path d="M304.704 93.7394L304.592 93.9869L303.343 93.4192L304.373 91.1286L305.637 91.7012L305.52 91.9536L306.37 92.3418L306.642 91.74C306.675 91.6684 306.693 91.591 306.695 91.5124C306.698 91.4338 306.684 91.3555 306.656 91.282C306.628 91.2085 306.586 91.1412 306.532 91.0841C306.478 91.0269 306.413 90.981 306.341 90.949C305.909 90.75 305.466 90.5753 305.369 90.5219C305.272 90.4686 304.883 90.3036 304.48 90.0997C304.408 90.0665 304.329 90.0479 304.25 90.0451C304.17 90.0422 304.091 90.0552 304.016 90.0831C303.942 90.1111 303.873 90.1536 303.815 90.2081C303.757 90.2626 303.711 90.328 303.678 90.4006L302.337 93.3124C302.273 93.458 302.268 93.623 302.324 93.7719C302.381 93.9208 302.493 94.0416 302.638 94.1083L304.524 94.9672C304.595 94.9998 304.672 95.0179 304.751 95.0207C304.829 95.0234 304.908 95.0107 304.981 94.9832C305.055 94.9557 305.122 94.914 305.18 94.8605C305.237 94.8069 305.283 94.7426 305.316 94.6712L305.569 94.1083L304.704 93.7394Z" fill="black"/>
<path d="M291.976 68.6982L287.603 68.4216L287.661 67.4899L292.035 67.7665C292.035 67.9218 292.01 68.0819 292.001 68.2518C291.991 68.4216 291.986 68.543 291.976 68.6982Z" fill="black"/>
<path d="M291.816 74.1626L290.101 74.6139C289.998 74.6414 289.911 74.7073 289.857 74.7978C289.802 74.8883 289.785 74.9964 289.809 75.0992L290.188 76.5551L289.435 76.7444L288.949 74.9245L288.045 75.1623L288.633 77.3947C288.669 77.5258 288.756 77.6372 288.875 77.7045C288.993 77.7718 289.133 77.7895 289.265 77.7538L290.961 77.3413C291.063 77.3149 291.152 77.2492 291.206 77.1584C291.261 77.0676 291.277 76.9589 291.252 76.856L290.868 75.4001L291.612 75.206L292.098 77.055L293.041 76.8269L292.433 74.5363C292.417 74.4713 292.389 74.41 292.349 74.3561C292.309 74.3021 292.259 74.2565 292.202 74.2218C292.145 74.1871 292.081 74.164 292.015 74.1538C291.949 74.1437 291.881 74.1467 291.816 74.1626Z" fill="black"/>
<path d="M289.581 72.6534L292.117 72.4011L292.161 72.8864C292.161 73.0416 292.19 73.1921 292.21 73.3474L287.836 73.7647L287.749 72.8378L290.329 70.8966L287.574 70.9791V70.0474L291.947 69.9212C291.947 70.0814 291.947 70.2366 291.947 70.4065C291.947 70.5764 291.947 70.7122 291.947 70.8675L289.581 72.6534Z" fill="black"/>
<path d="M290.387 81.6459C290.418 81.7178 290.463 81.7829 290.519 81.8375C290.575 81.8921 290.641 81.9351 290.714 81.9639C290.786 81.9928 290.864 82.007 290.942 82.0058C291.021 82.0045 291.098 81.9877 291.17 81.9565L294.673 80.4472L294.294 79.5834L291.145 80.9519L290.591 79.6853L293.74 78.3265L293.356 77.4529L289.872 78.9671C289.799 78.9982 289.732 79.0436 289.677 79.1006C289.621 79.1576 289.577 79.2251 289.548 79.2991C289.518 79.3731 289.504 79.4523 289.505 79.5319C289.507 79.6115 289.524 79.69 289.556 79.7629L290.387 81.6459Z" fill="black"/>
<path d="M294.96 88.5128L295.718 88.0955L296.617 87.6199L297.677 87.0569L297.132 88.1246L296.617 87.6199L295.718 88.0955L296.666 89.0272L296.263 89.794L297.021 90.5413L299.139 86.3872L298.323 85.5865L294.202 87.7655L294.96 88.5128Z" fill="black"/>
<path d="M309.665 93.0115L309.918 92.0845C309.062 91.8856 308.222 91.6526 307.318 91.3517L306.088 95.5787L308.761 96.3503L309.014 95.4234L307.269 94.9381L307.473 94.2053L308.975 94.642L309.228 93.7103L307.741 93.2784L307.95 92.531L309.665 93.0115Z" fill="black"/>
<path d="M301.166 91.1334L302.58 89.0126L302.969 89.2796L303.357 89.5319L300.928 93.1765L300.155 92.6572L300.267 89.4203L298.585 91.5993L297.847 91.0266L300.534 87.5568L300.903 87.8479L301.273 88.1246L301.166 91.1334Z" fill="black"/>
<path d="M317.348 96.9326C317.191 96.9534 317.032 96.9116 316.906 96.8163C316.779 96.7209 316.696 96.5796 316.673 96.4231L316.24 93.2153C316.229 93.1372 316.232 93.0575 316.252 92.9809C316.271 92.9043 316.306 92.8323 316.353 92.7691C316.401 92.7059 316.46 92.6528 316.528 92.6127C316.597 92.5727 316.672 92.5466 316.75 92.5359C317.236 92.4728 317.698 92.4485 317.815 92.4291C317.931 92.4097 318.349 92.3418 318.787 92.2593C318.865 92.247 318.946 92.2506 319.023 92.27C319.1 92.2894 319.173 92.3242 319.236 92.3722C319.3 92.4202 319.353 92.4805 319.392 92.5495C319.432 92.6184 319.457 92.6947 319.467 92.7737L319.914 95.9669C319.926 96.0448 319.922 96.1242 319.902 96.2004C319.883 96.2767 319.848 96.3484 319.801 96.4112C319.753 96.474 319.694 96.5267 319.625 96.5662C319.557 96.6058 319.482 96.6314 319.404 96.6415L318.918 95.7582L318.578 93.2735L317.207 93.4628L317.557 95.9475L318.918 95.7582L319.404 96.6415L317.348 96.9326Z" fill="black"/>
<path d="M326.946 89.1922C327.046 89.1389 327.163 89.1274 327.271 89.1601C327.379 89.1929 327.47 89.2673 327.524 89.3669L328.423 91.0558C328.472 91.148 328.482 91.2556 328.452 91.3554C328.422 91.4552 328.354 91.5393 328.263 91.5896L326.567 92.4922L326.105 91.6284L327.043 91.1431C327.071 91.1283 327.096 91.1082 327.116 91.0837C327.136 91.0593 327.151 91.0312 327.16 91.0009C327.169 90.9706 327.172 90.9389 327.168 90.9074C327.165 90.876 327.155 90.8456 327.14 90.818L326.999 90.5559C326.984 90.528 326.964 90.5033 326.94 90.4832C326.915 90.4632 326.887 90.4482 326.857 90.4392C326.826 90.4301 326.795 90.4272 326.763 90.4306C326.732 90.434 326.701 90.4436 326.674 90.4588L325.741 90.9441L326.105 91.6284L326.567 92.4922L327.388 94.0209C327.048 94.2102 326.756 94.3412 326.489 94.5062L324.38 90.5656C324.973 90.289 326.241 89.629 326.946 89.1922Z" fill="black"/>
<path d="M339.78 80.9325L336.621 79.5688L336.237 80.452L335.358 80.0686C335.792 79.2243 336.171 78.3521 336.49 77.4578L337.37 77.8363L336.99 78.7098L340.154 80.0784L339.78 80.9325Z" fill="black"/>
<path d="M314.607 95.7874V96.064L313.232 96.0106L313.319 93.5016L314.704 93.555V93.8268L315.638 93.8656V93.2104C315.643 93.0512 315.585 92.8962 315.477 92.779C315.369 92.6619 315.219 92.592 315.059 92.5844C314.573 92.5844 314.087 92.5844 313.99 92.5844C313.893 92.5844 313.446 92.5844 313.018 92.5262C312.939 92.5223 312.86 92.5342 312.785 92.5612C312.71 92.5882 312.642 92.6299 312.583 92.6836C312.525 92.7374 312.478 92.8022 312.445 92.8743C312.412 92.9465 312.394 93.0244 312.391 93.1037L312.265 96.3309C312.26 96.4897 312.318 96.6441 312.426 96.7605C312.534 96.8769 312.684 96.9457 312.843 96.9521L314.918 97.0297C314.997 97.033 315.075 97.0207 315.148 96.9936C315.222 96.9665 315.289 96.9251 315.346 96.8719C315.404 96.8186 315.45 96.7546 315.483 96.6834C315.515 96.6122 315.533 96.5352 315.535 96.4571L315.56 95.8407L314.607 95.7874Z" fill="black"/>
<path d="M323.005 91.1189C323.057 91.1024 323.113 91.0965 323.168 91.1015C323.223 91.1065 323.276 91.1223 323.325 91.148C323.374 91.1737 323.417 91.2088 323.452 91.2513C323.487 91.2938 323.513 91.3428 323.529 91.3955L323.957 92.7834C323.973 92.8318 323.979 92.8829 323.975 92.9337C323.97 92.9844 323.956 93.0338 323.933 93.079C323.909 93.1242 323.877 93.1642 323.838 93.1968C323.798 93.2294 323.753 93.2538 323.704 93.2687C323.701 93.2737 323.699 93.2796 323.699 93.2857C323.699 93.2918 323.701 93.2977 323.704 93.3027C323.709 93.3071 323.715 93.3096 323.721 93.3096C323.728 93.3096 323.734 93.3071 323.738 93.3027C323.787 93.2869 323.838 93.2809 323.889 93.2851C323.94 93.2893 323.989 93.3036 324.034 93.3271C324.08 93.3506 324.12 93.3828 324.152 93.422C324.185 93.4611 324.209 93.5063 324.224 93.555C324.307 93.8462 324.569 94.6761 324.594 94.7586C324.604 94.8431 324.645 94.921 324.708 94.9781C324.772 95.0351 324.853 95.0675 324.939 95.0691V95.1128L323.879 95.4428C323.753 95.3696 323.66 95.2492 323.622 95.108C323.578 94.9575 323.442 94.3897 323.374 94.1762C323.361 94.1324 323.34 94.0915 323.311 94.056C323.282 94.0205 323.247 93.9911 323.206 93.9694C323.166 93.9477 323.122 93.9342 323.077 93.9298C323.031 93.9253 322.985 93.9299 322.941 93.9433L322.038 94.2247L321.751 93.3027L322.723 92.9969C322.782 92.978 322.832 92.9362 322.861 92.8808C322.89 92.8254 322.897 92.7608 322.878 92.7009L322.791 92.4243C322.782 92.3944 322.767 92.3666 322.747 92.3425C322.728 92.3184 322.703 92.2985 322.675 92.284C322.648 92.2696 322.618 92.2608 322.586 92.2582C322.555 92.2556 322.524 92.2593 322.494 92.269L321.522 92.5796L321.746 93.3027L322.033 94.2247L322.519 95.8553L321.547 96.1514L320.244 91.9584C321.181 91.7346 322.102 91.4542 323.005 91.1189V91.1189Z" fill="black"/>
<path d="M331.125 91.7303C331.002 91.83 330.844 91.8769 330.686 91.8605C330.529 91.8441 330.384 91.7659 330.284 91.643L328.248 89.1243C328.148 89.0006 328.101 88.8423 328.117 88.684C328.134 88.5258 328.212 88.3805 328.335 88.2799C328.705 87.979 329.098 87.7121 329.191 87.6393C329.283 87.5665 329.604 87.285 329.934 86.989C329.995 86.9376 330.065 86.8989 330.141 86.8754C330.217 86.8519 330.297 86.844 330.376 86.8522C330.455 86.8603 330.531 86.8844 330.601 86.9229C330.67 86.9615 330.731 87.0136 330.78 87.0763L332.821 89.5805C332.921 89.7042 332.968 89.8624 332.952 90.0207C332.935 90.1789 332.857 90.3242 332.733 90.4249L331.863 89.9396L330.284 87.9984L329.21 88.8719L330.794 90.8131L331.863 89.9493L332.733 90.4346L331.125 91.7303Z" fill="black"/>
<path d="M332.938 83.8248C333.011 83.7418 333.115 83.6912 333.226 83.6839C333.337 83.6766 333.446 83.7133 333.53 83.786L334.619 84.7566C334.694 84.8253 334.739 84.9207 334.745 85.0224C334.75 85.1241 334.716 85.2238 334.648 85.3001C334.646 85.3027 334.644 85.3056 334.643 85.3088C334.642 85.3121 334.642 85.3155 334.642 85.3188C334.642 85.3222 334.643 85.3255 334.644 85.3285C334.646 85.3316 334.648 85.3343 334.651 85.3365C334.653 85.3388 334.656 85.3405 334.659 85.3415C334.663 85.3426 334.666 85.3431 334.669 85.3428C334.673 85.3426 334.676 85.3417 334.679 85.3402C334.682 85.3387 334.685 85.3366 334.687 85.3341C334.72 85.296 334.761 85.2648 334.806 85.2425C334.852 85.2201 334.901 85.207 334.952 85.2038C335.003 85.2007 335.053 85.2076 335.101 85.2241C335.149 85.2406 335.193 85.2665 335.231 85.3001C335.455 85.504 336.106 86.0815 336.169 86.1348C336.222 86.2019 336.297 86.2476 336.381 86.2637C336.465 86.2797 336.552 86.265 336.626 86.2222L336.66 86.2562L335.926 87.086C335.854 87.0874 335.781 87.0744 335.714 87.0478C335.646 87.0211 335.585 86.9813 335.533 86.9307C335.421 86.8288 335.008 86.4114 334.838 86.261C334.769 86.2019 334.679 86.1719 334.589 86.1773C334.498 86.1828 334.413 86.2232 334.352 86.2901L333.725 86.9987L333.006 86.3581L333.696 85.5767C333.717 85.5551 333.735 85.5294 333.746 85.5011C333.758 85.4728 333.764 85.4424 333.764 85.4117C333.764 85.3811 333.758 85.3507 333.746 85.3224C333.735 85.2941 333.717 85.2684 333.696 85.2467L333.477 85.0526C333.432 85.0096 333.372 84.9856 333.309 84.9856C333.247 84.9856 333.187 85.0096 333.142 85.0526L332.452 85.8485L333.025 86.3338L333.744 86.9744L335.027 88.1051L334.361 88.8525L331.067 85.9407C331.73 85.271 332.354 84.5646 332.938 83.8248V83.8248Z" fill="black"/>
<path d="M337.69 84.9556L337.117 84.3053L336.456 83.5386L335.674 82.6311L336.835 82.9271L336.456 83.5386L337.117 84.3053L337.817 83.1794L338.657 83.4075L339.221 82.5049L334.697 81.3547L334.094 82.3253L337.131 85.8583L337.69 84.9556Z" fill="black"/>
<path d="M337.01 75.832L341.218 77.0986L340.946 77.9916L336.738 76.725C336.786 76.5794 336.835 76.4289 336.879 76.2785L337.01 75.832Z" fill="black"/>
<path d="M340.363 68.2615L337.812 68.3585C337.812 68.2032 337.812 68.0431 337.812 67.8732C337.812 67.7034 337.812 67.5675 337.812 67.4122L342.185 67.2618L342.215 68.1935L339.517 69.9988L342.273 70.0862L342.244 71.018L337.87 70.8724C337.87 70.7171 337.87 70.5569 337.87 70.3871C337.87 70.2172 337.87 70.0813 337.87 69.926L340.363 68.2615Z" fill="black"/>
<path d="M341.762 75.0653C341.736 75.2186 341.651 75.3554 341.524 75.4462C341.398 75.537 341.241 75.5745 341.087 75.5506L337.88 75.0653C337.725 75.0368 337.588 74.9494 337.498 74.8217C337.407 74.6939 337.37 74.5358 337.394 74.381C337.467 73.8957 337.578 73.4493 337.598 73.3328C337.617 73.2163 337.661 72.7941 337.71 72.3622C337.722 72.2851 337.749 72.2111 337.791 72.1448C337.832 72.0784 337.886 72.021 337.95 71.9758C338.014 71.9306 338.086 71.8986 338.162 71.8816C338.239 71.8646 338.318 71.863 338.395 71.8769L341.587 72.3622C341.742 72.3907 341.879 72.4781 341.969 72.6058C342.06 72.7336 342.098 72.8917 342.073 73.0465L341.101 73.2551L338.618 72.8718L338.414 74.2403L340.897 74.614L341.101 73.2551L342.073 73.0465L341.762 75.0653Z" fill="black"/>
<path d="M308.285 60.6132C308.358 60.6358 308.435 60.641 308.51 60.6283C308.585 60.6157 308.656 60.5856 308.717 60.5405C308.779 60.4954 308.828 60.4366 308.863 60.3687C308.897 60.3008 308.915 60.2258 308.915 60.1498C308.915 60.0737 308.897 59.9987 308.863 59.9309C308.828 59.863 308.779 59.8041 308.717 59.759C308.656 59.7139 308.585 59.6839 308.51 59.6712C308.435 59.6586 308.358 59.6638 308.285 59.6863C308.186 59.717 308.099 59.7786 308.038 59.862C307.976 59.9454 307.943 60.0462 307.943 60.1498C307.943 60.2533 307.976 60.3542 308.038 60.4376C308.099 60.521 308.186 60.5825 308.285 60.6132Z" fill="black"/>
<path d="M308.154 60.225L306.545 66.4707H306.939L308.086 62.0594V66.4707H308.523V62.0594L309.67 66.4707H306.545C306.693 66.8106 306.938 67.0999 307.248 67.3032C307.558 67.5064 307.921 67.6146 308.292 67.6146C308.664 67.6146 309.027 67.5064 309.337 67.3032C309.647 67.0999 309.891 66.8106 310.039 66.4707L308.431 60.225H308.154Z" fill="black"/>
<path d="M314.845 57.4491L315.599 57.784L315.521 57.915C315.166 57.915 315.093 58.5895 315.093 58.9292C315.096 58.9943 315.112 59.0581 315.141 59.1168C315.169 59.1755 315.209 59.2279 315.258 59.271C315.307 59.314 315.364 59.3467 315.426 59.3672C315.488 59.3877 315.553 59.3956 315.618 59.3903C316.196 59.2431 316.784 59.1393 317.377 59.0797C318.203 59.0797 319.063 59.4291 319.962 59.4291C320.417 59.4175 320.867 59.3323 321.294 59.1767C321.522 59.1767 321.969 59.2738 321.969 59.5989C321.969 59.9241 321.522 60.0212 321.294 60.0212C320.866 59.8684 320.417 59.7848 319.962 59.7737C319.063 59.7737 318.203 60.1182 317.377 60.1182C316.784 60.0595 316.196 59.9573 315.618 59.8125C315.551 59.8071 315.484 59.8157 315.42 59.8377C315.357 59.8596 315.298 59.8945 315.249 59.9401C315.2 59.9857 315.16 60.0411 315.133 60.1026C315.107 60.1642 315.093 60.2306 315.093 60.2978C315.093 60.487 315.501 60.8704 315.501 60.8704L314.845 61.8701L314.189 60.8462C314.189 60.8462 314.602 60.4628 314.602 60.2735C314.603 60.2064 314.589 60.1399 314.562 60.0784C314.535 60.0168 314.496 59.9615 314.447 59.9159C314.397 59.8703 314.339 59.8354 314.275 59.8134C314.212 59.7914 314.145 59.7828 314.078 59.7882C313.499 59.9327 312.911 60.0349 312.318 60.0939C311.492 60.0939 310.627 59.7494 309.728 59.7494C309.274 59.7623 308.825 59.8458 308.397 59.9969C308.173 59.9969 307.726 59.8998 307.726 59.5747C307.726 59.2495 308.173 59.1525 308.397 59.1525C308.824 59.3067 309.274 59.3919 309.728 59.4048C310.627 59.4048 311.492 59.0554 312.318 59.0554C312.912 59.1155 313.5 59.2193 314.078 59.366C314.143 59.3713 314.208 59.3634 314.27 59.3429C314.332 59.3224 314.389 59.2897 314.438 59.2467C314.487 59.2037 314.527 59.1512 314.555 59.0925C314.583 59.0338 314.599 58.97 314.602 58.905C314.602 58.5653 314.529 57.8907 314.17 57.8907L314.097 57.7597L314.845 57.4491Z" fill="black"/>
<path d="M321.406 60.6132C321.31 60.6132 321.216 60.5848 321.136 60.5314C321.056 60.4781 320.994 60.4023 320.957 60.3136C320.92 60.225 320.911 60.1274 320.929 60.0333C320.948 59.9391 320.994 59.8527 321.062 59.7848C321.13 59.7169 321.217 59.6707 321.311 59.652C321.405 59.6332 321.503 59.6428 321.592 59.6796C321.681 59.7163 321.757 59.7785 321.81 59.8583C321.863 59.9381 321.892 60.032 321.892 60.1279C321.892 60.2566 321.841 60.3801 321.75 60.4711C321.658 60.5621 321.535 60.6132 321.406 60.6132Z" fill="black"/>
<path d="M321.522 60.225L323.131 66.4707H322.732L321.586 62.0594V66.4707H321.148V62.0594L320.001 66.4707H323.126C322.979 66.8109 322.736 67.1007 322.426 67.3043C322.116 67.5079 321.753 67.6164 321.382 67.6164C321.01 67.6164 320.648 67.5079 320.338 67.3043C320.028 67.1007 319.784 66.8109 319.637 66.4707L321.275 60.225H321.522Z" fill="black"/>
<path d="M304.407 58.8031C304.492 58.804 304.575 58.7798 304.646 58.7335C304.717 58.6871 304.773 58.6208 304.806 58.5428C304.839 58.4649 304.848 58.3789 304.832 58.2957C304.816 58.2125 304.776 58.136 304.716 58.0758C304.657 58.0156 304.58 57.9744 304.497 57.9575C304.414 57.9407 304.328 57.9488 304.25 57.981C304.171 58.0132 304.104 58.0679 304.057 58.1382C304.01 58.2086 303.984 58.2913 303.984 58.376C303.984 58.4884 304.029 58.5963 304.108 58.6763C304.187 58.7562 304.295 58.8018 304.407 58.8031Z" fill="black"/>
<path d="M302.935 60.2687C303.018 60.2687 303.1 60.2439 303.17 60.1975C303.239 60.1511 303.293 60.0852 303.325 60.008C303.357 59.9309 303.366 59.846 303.349 59.7641C303.333 59.6822 303.293 59.607 303.234 59.5479C303.175 59.4889 303.099 59.4487 303.017 59.4324C302.935 59.4161 302.85 59.4244 302.773 59.4564C302.696 59.4884 302.63 59.5425 302.583 59.6119C302.537 59.6813 302.512 59.763 302.512 59.8465C302.512 59.9019 302.523 59.9568 302.544 60.008C302.565 60.0593 302.597 60.1058 302.636 60.145C302.675 60.1842 302.722 60.2153 302.773 60.2365C302.824 60.2577 302.879 60.2687 302.935 60.2687V60.2687Z" fill="black"/>
<path d="M305.88 60.2687C305.963 60.2687 306.045 60.2439 306.114 60.1975C306.184 60.1511 306.238 60.0852 306.27 60.008C306.302 59.9309 306.311 59.846 306.294 59.7641C306.278 59.6822 306.238 59.607 306.179 59.5479C306.119 59.4889 306.044 59.4487 305.962 59.4324C305.88 59.4161 305.795 59.4244 305.718 59.4564C305.641 59.4884 305.574 59.5425 305.528 59.6119C305.482 59.6813 305.457 59.763 305.457 59.8465C305.457 59.9019 305.468 59.9568 305.489 60.008C305.51 60.0593 305.541 60.1058 305.581 60.145C305.62 60.1842 305.666 60.2153 305.718 60.2365C305.769 60.2577 305.824 60.2687 305.88 60.2687V60.2687Z" fill="black"/>
<path d="M304.407 61.7391C304.491 61.7391 304.573 61.7144 304.642 61.668C304.712 61.6216 304.766 61.5556 304.798 61.4785C304.83 61.4013 304.838 61.3165 304.822 61.2346C304.806 61.1527 304.765 61.0774 304.706 61.0184C304.647 60.9593 304.572 60.9191 304.49 60.9028C304.408 60.8865 304.323 60.8949 304.245 60.9269C304.168 60.9588 304.102 61.0129 304.056 61.0824C304.009 61.1518 303.984 61.2334 303.984 61.3169C303.984 61.4289 304.029 61.5363 304.108 61.6155C304.187 61.6946 304.295 61.7391 304.407 61.7391V61.7391Z" fill="black"/>
<path d="M307.303 58.8031C307.388 58.8031 307.471 58.778 307.541 58.7311C307.611 58.6842 307.666 58.6175 307.698 58.5395C307.731 58.4614 307.739 58.3756 307.723 58.2927C307.706 58.2099 307.666 58.1338 307.606 58.0741C307.546 58.0143 307.47 57.9737 307.387 57.9572C307.304 57.9407 307.218 57.9492 307.14 57.9815C307.062 58.0138 306.995 58.0685 306.948 58.1388C306.901 58.209 306.876 58.2916 306.876 58.376C306.876 58.4893 306.921 58.5979 307.001 58.678C307.081 58.7581 307.19 58.8031 307.303 58.8031Z" fill="black"/>
<path d="M322.441 58.8031C322.525 58.8031 322.608 58.778 322.678 58.7311C322.749 58.6842 322.804 58.6175 322.836 58.5395C322.868 58.4614 322.877 58.3756 322.86 58.2927C322.844 58.2099 322.803 58.1338 322.743 58.0741C322.683 58.0143 322.607 57.9737 322.524 57.9572C322.441 57.9407 322.355 57.9492 322.277 57.9815C322.199 58.0138 322.132 58.0685 322.085 58.1388C322.038 58.209 322.013 58.2916 322.013 58.376C322.013 58.4893 322.058 58.5979 322.138 58.678C322.219 58.7581 322.327 58.8031 322.441 58.8031Z" fill="black"/>
<path d="M325.663 58.8031C325.896 58.8031 326.086 58.6141 326.086 58.3809C326.086 58.1477 325.896 57.9587 325.663 57.9587C325.429 57.9587 325.24 58.1477 325.24 58.3809C325.24 58.6141 325.429 58.8031 325.663 58.8031Z" fill="black"/>
<path d="M307.303 61.6906C307.387 61.6896 307.468 61.664 307.537 61.6171C307.606 61.5701 307.659 61.5038 307.691 61.4266C307.722 61.3494 307.729 61.2646 307.713 61.1831C307.696 61.1015 307.655 61.0267 307.596 60.9682C307.536 60.9096 307.461 60.8699 307.379 60.854C307.297 60.8381 307.213 60.8467 307.136 60.8788C307.059 60.9109 306.993 60.965 306.947 61.0343C306.9 61.1036 306.876 61.1851 306.876 61.2684C306.876 61.3242 306.887 61.3795 306.908 61.4311C306.93 61.4826 306.962 61.5294 307.001 61.5686C307.041 61.6079 307.088 61.6389 307.14 61.6598C307.192 61.6808 307.247 61.6912 307.303 61.6906V61.6906Z" fill="black"/>
<path d="M310.384 64.6315C310.469 64.6325 310.552 64.6082 310.623 64.5619C310.694 64.5156 310.75 64.4492 310.783 64.3713C310.816 64.2933 310.825 64.2073 310.809 64.1241C310.793 64.041 310.753 63.9644 310.693 63.9042C310.634 63.844 310.557 63.8028 310.474 63.786C310.391 63.7691 310.305 63.7773 310.227 63.8094C310.148 63.8416 310.081 63.8963 310.034 63.9667C309.987 64.037 309.961 64.1198 309.961 64.2044C309.961 64.2603 309.971 64.3157 309.992 64.3675C310.013 64.4193 310.044 64.4664 310.084 64.5061C310.123 64.5458 310.17 64.5774 310.221 64.5989C310.273 64.6204 310.328 64.6315 310.384 64.6315V64.6315Z" fill="black"/>
<path d="M311.998 66.0048C312.083 66.0058 312.166 65.9815 312.237 65.9349C312.308 65.8883 312.364 65.8217 312.397 65.7435C312.43 65.6652 312.439 65.579 312.422 65.4957C312.406 65.4124 312.365 65.3359 312.305 65.2758C312.245 65.2158 312.168 65.1751 312.085 65.1587C312.001 65.1424 311.915 65.1513 311.837 65.1842C311.758 65.2171 311.692 65.2726 311.645 65.3436C311.598 65.4145 311.574 65.4978 311.575 65.5826C311.575 65.6946 311.62 65.802 311.699 65.8812C311.778 65.9604 311.886 66.0048 311.998 66.0048Z" fill="black"/>
<path d="M305.831 63.1611C305.915 63.1611 305.996 63.1363 306.066 63.0899C306.135 63.0435 306.19 62.9776 306.222 62.9004C306.254 62.8233 306.262 62.7384 306.246 62.6565C306.229 62.5746 306.189 62.4994 306.13 62.4403C306.071 62.3813 305.995 62.3411 305.913 62.3248C305.831 62.3085 305.746 62.3168 305.669 62.3488C305.592 62.3807 305.526 62.4349 305.479 62.5043C305.433 62.5737 305.408 62.6553 305.408 62.7389C305.408 62.8508 305.453 62.9582 305.532 63.0374C305.611 63.1166 305.719 63.1611 305.831 63.1611Z" fill="black"/>
<path d="M304.407 64.5829C304.492 64.5839 304.576 64.5595 304.647 64.513C304.718 64.4664 304.773 64.3998 304.806 64.3215C304.839 64.2433 304.848 64.157 304.832 64.0738C304.815 63.9905 304.775 63.9139 304.714 63.8539C304.654 63.7939 304.578 63.7531 304.494 63.7368C304.411 63.7205 304.324 63.7293 304.246 63.7623C304.168 63.7952 304.101 63.8507 304.054 63.9216C304.008 63.9926 303.983 64.0758 303.984 64.1607C303.984 64.2727 304.029 64.3801 304.108 64.4593C304.188 64.5384 304.295 64.5829 304.407 64.5829V64.5829Z" fill="black"/>
<path d="M305.855 66.0291C305.96 66.0179 306.057 65.9683 306.128 65.8899C306.198 65.8116 306.237 65.7099 306.237 65.6045C306.237 65.4991 306.198 65.3974 306.128 65.319C306.057 65.2406 305.96 65.1911 305.855 65.1799C305.796 65.1735 305.735 65.1797 305.678 65.1981C305.621 65.2166 305.569 65.2468 305.524 65.2868C305.479 65.3269 305.444 65.3759 305.419 65.4306C305.395 65.4853 305.382 65.5446 305.382 65.6045C305.382 65.6644 305.395 65.7237 305.419 65.7784C305.444 65.8331 305.479 65.8821 305.524 65.9221C305.569 65.9622 305.621 65.9924 305.678 66.0108C305.735 66.0293 305.796 66.0355 305.855 66.0291Z" fill="black"/>
<path d="M308.868 69.0379C308.953 69.0389 309.036 69.0145 309.108 68.968C309.179 68.9214 309.234 68.8548 309.267 68.7765C309.3 68.6983 309.309 68.6121 309.293 68.5288C309.276 68.4455 309.235 68.3689 309.175 68.3089C309.115 68.2489 309.039 68.2081 308.955 68.1918C308.872 68.1755 308.785 68.1844 308.707 68.2173C308.629 68.2502 308.562 68.3057 308.515 68.3767C308.469 68.4476 308.444 68.5308 308.445 68.6157C308.445 68.7277 308.49 68.8351 308.569 68.9143C308.648 68.9934 308.756 69.0379 308.868 69.0379V69.0379Z" fill="black"/>
<path d="M304.407 67.4753C304.492 67.4763 304.575 67.452 304.646 67.4057C304.717 67.3594 304.773 67.293 304.806 67.2151C304.839 67.1371 304.848 67.0511 304.832 66.9679C304.816 66.8848 304.776 66.8082 304.716 66.748C304.657 66.6878 304.58 66.6467 304.497 66.6298C304.414 66.6129 304.328 66.6211 304.25 66.6533C304.171 66.6854 304.104 66.7402 304.057 66.8105C304.01 66.8808 303.984 66.9636 303.984 67.0482C303.984 67.1041 303.994 67.1595 304.015 67.2113C304.036 67.2631 304.067 67.3102 304.107 67.3499C304.146 67.3897 304.193 67.4212 304.244 67.4427C304.296 67.4642 304.351 67.4753 304.407 67.4753V67.4753Z" fill="black"/>
<path d="M304.407 70.5084C304.492 70.5094 304.575 70.4851 304.646 70.4388C304.717 70.3925 304.773 70.3261 304.806 70.2481C304.839 70.1702 304.848 70.0842 304.832 70.001C304.816 69.9179 304.776 69.8413 304.716 69.7811C304.657 69.7209 304.58 69.6797 304.497 69.6629C304.414 69.646 304.328 69.6542 304.25 69.6863C304.171 69.7185 304.104 69.7732 304.057 69.8436C304.01 69.9139 303.984 69.9967 303.984 70.0813C303.984 70.1372 303.994 70.1926 304.015 70.2444C304.036 70.2962 304.067 70.3433 304.107 70.383C304.146 70.4227 304.193 70.4543 304.244 70.4758C304.296 70.4973 304.351 70.5084 304.407 70.5084V70.5084Z" fill="black"/>
<path d="M304.407 73.3959C304.491 73.3959 304.573 73.3711 304.642 73.3247C304.712 73.2783 304.766 73.2124 304.798 73.1352C304.83 73.0581 304.838 72.9732 304.822 72.8913C304.806 72.8094 304.765 72.7342 304.706 72.6751C304.647 72.6161 304.572 72.5759 304.49 72.5596C304.408 72.5433 304.323 72.5516 304.245 72.5836C304.168 72.6155 304.102 72.6697 304.056 72.7391C304.009 72.8085 303.984 72.8902 303.984 72.9737C303.984 73.0856 304.029 73.193 304.108 73.2722C304.187 73.3514 304.295 73.3959 304.407 73.3959Z" fill="black"/>
<path d="M305.923 71.8818C306.008 71.8828 306.091 71.8585 306.162 71.8122C306.233 71.7659 306.289 71.6995 306.322 71.6216C306.355 71.5436 306.364 71.4576 306.348 71.3744C306.332 71.2913 306.292 71.2147 306.232 71.1545C306.173 71.0943 306.096 71.0532 306.013 71.0363C305.93 71.0194 305.844 71.0276 305.766 71.0597C305.687 71.0919 305.62 71.1467 305.573 71.217C305.526 71.2873 305.501 71.3701 305.501 71.4547C305.5 71.5106 305.51 71.566 305.531 71.6178C305.552 71.6696 305.583 71.7167 305.623 71.7564C305.662 71.7962 305.709 71.8277 305.76 71.8492C305.812 71.8707 305.867 71.8818 305.923 71.8818V71.8818Z" fill="black"/>
<path d="M307.444 70.5084C307.529 70.5094 307.612 70.4851 307.683 70.4388C307.754 70.3925 307.81 70.3261 307.843 70.2481C307.876 70.1702 307.885 70.0842 307.869 70.001C307.853 69.9179 307.813 69.8413 307.753 69.7811C307.694 69.7209 307.617 69.6797 307.534 69.6629C307.451 69.646 307.365 69.6542 307.287 69.6863C307.208 69.7185 307.141 69.7732 307.094 69.8436C307.047 69.9139 307.022 69.9967 307.022 70.0813C307.021 70.1372 307.031 70.1926 307.052 70.2444C307.073 70.2962 307.104 70.3433 307.144 70.383C307.183 70.4227 307.23 70.4543 307.281 70.4758C307.333 70.4973 307.388 70.5084 307.444 70.5084V70.5084Z" fill="black"/>
<path d="M305.923 68.9894C306.007 68.9894 306.089 68.9647 306.158 68.9183C306.228 68.8719 306.282 68.8059 306.314 68.7288C306.346 68.6516 306.354 68.5668 306.338 68.4849C306.322 68.403 306.281 68.3277 306.222 68.2687C306.163 68.2096 306.088 68.1694 306.006 68.1531C305.924 68.1368 305.839 68.1452 305.761 68.1772C305.684 68.2091 305.618 68.2632 305.572 68.3327C305.525 68.4021 305.5 68.4837 305.5 68.5672C305.5 68.6792 305.545 68.7866 305.624 68.8658C305.704 68.9449 305.811 68.9894 305.923 68.9894V68.9894Z" fill="black"/>
<path d="M302.959 74.8421C303.043 74.8421 303.124 74.8173 303.194 74.7709C303.263 74.7245 303.318 74.6586 303.35 74.5815C303.382 74.5043 303.39 74.4194 303.374 74.3375C303.357 74.2556 303.317 74.1804 303.258 74.1213C303.199 74.0623 303.123 74.0221 303.041 74.0058C302.959 73.9895 302.874 73.9979 302.797 74.0298C302.72 74.0618 302.654 74.1159 302.607 74.1853C302.561 74.2548 302.536 74.3364 302.536 74.4199C302.536 74.5319 302.581 74.6393 302.66 74.7184C302.739 74.7976 302.847 74.8421 302.959 74.8421Z" fill="black"/>
<path d="M310.384 61.6906C310.468 61.6906 310.55 61.6658 310.619 61.6194C310.689 61.5731 310.743 61.5071 310.775 61.43C310.807 61.3528 310.815 61.2679 310.799 61.186C310.783 61.1041 310.742 61.0289 310.683 60.9699C310.624 60.9108 310.549 60.8706 310.467 60.8543C310.385 60.838 310.3 60.8464 310.222 60.8783C310.145 60.9103 310.079 60.9644 310.033 61.0338C309.986 61.1033 309.961 61.1849 309.961 61.2684C309.961 61.3804 310.006 61.4878 310.085 61.5669C310.165 61.6461 310.272 61.6906 310.384 61.6906Z" fill="black"/>
<path d="M311.857 63.161C311.942 63.162 312.025 63.1376 312.096 63.0911C312.167 63.0445 312.223 62.9779 312.256 62.8997C312.289 62.8214 312.298 62.7352 312.281 62.6519C312.265 62.5686 312.224 62.492 312.164 62.432C312.104 62.372 312.027 62.3312 311.944 62.3149C311.861 62.2986 311.774 62.3075 311.696 62.3404C311.617 62.3733 311.551 62.4288 311.504 62.4998C311.458 62.5707 311.433 62.654 311.434 62.7388C311.434 62.8508 311.479 62.9582 311.558 63.0374C311.637 63.1166 311.745 63.161 311.857 63.161Z" fill="black"/>
<path d="M313.422 64.5344C313.505 64.5344 313.587 64.5097 313.656 64.4633C313.726 64.4169 313.78 64.3509 313.812 64.2738C313.844 64.1966 313.853 64.1117 313.836 64.0298C313.82 63.9479 313.78 63.8727 313.721 63.8137C313.661 63.7546 313.586 63.7144 313.504 63.6981C313.422 63.6818 313.337 63.6902 313.26 63.7221C313.183 63.7541 313.117 63.8082 313.07 63.8776C313.024 63.9471 312.999 64.0287 312.999 64.1122C313 64.2238 313.045 64.3305 313.124 64.4094C313.203 64.4883 313.31 64.5332 313.422 64.5344Z" fill="black"/>
<path d="M313.422 61.6906C313.505 61.6906 313.587 61.6658 313.656 61.6194C313.726 61.5731 313.78 61.5071 313.812 61.43C313.844 61.3528 313.853 61.2679 313.836 61.186C313.82 61.1041 313.78 61.0289 313.721 60.9699C313.661 60.9108 313.586 60.8706 313.504 60.8543C313.422 60.838 313.337 60.8464 313.26 60.8783C313.183 60.9103 313.117 60.9644 313.07 61.0338C313.024 61.1033 312.999 61.1849 312.999 61.2684C313 61.38 313.045 61.4866 313.124 61.5655C313.203 61.6445 313.31 61.6893 313.422 61.6906V61.6906Z" fill="black"/>
<path d="M314.894 63.161C314.979 63.162 315.062 63.1376 315.133 63.0911C315.204 63.0445 315.26 62.9779 315.293 62.8997C315.326 62.8214 315.335 62.7352 315.318 62.6519C315.302 62.5686 315.261 62.492 315.201 62.432C315.141 62.372 315.064 62.3312 314.981 62.3149C314.898 62.2986 314.811 62.3075 314.733 62.3404C314.655 62.3733 314.588 62.4288 314.541 62.4998C314.495 62.5707 314.47 62.654 314.471 62.7388C314.471 62.8508 314.516 62.9582 314.595 63.0374C314.674 63.1166 314.782 63.161 314.894 63.161Z" fill="black"/>
<path d="M316.366 61.6906C316.45 61.6906 316.532 61.6658 316.601 61.6194C316.671 61.5731 316.725 61.5071 316.757 61.43C316.789 61.3528 316.797 61.2679 316.781 61.186C316.765 61.1041 316.724 61.0289 316.665 60.9699C316.606 60.9108 316.531 60.8706 316.449 60.8543C316.367 60.838 316.282 60.8464 316.205 60.8783C316.127 60.9103 316.061 60.9644 316.015 61.0338C315.968 61.1033 315.944 61.1849 315.944 61.2684C315.944 61.3804 315.988 61.4878 316.067 61.5669C316.147 61.6461 316.254 61.6906 316.366 61.6906Z" fill="black"/>
<path d="M318.072 63.2095C318.132 63.2159 318.192 63.2097 318.249 63.1913C318.306 63.1728 318.359 63.1426 318.403 63.1026C318.448 63.0625 318.484 63.0135 318.508 62.9588C318.533 62.9041 318.545 62.8448 318.545 62.7849C318.545 62.725 318.533 62.6657 318.508 62.611C318.484 62.5563 318.448 62.5073 318.403 62.4673C318.359 62.4272 318.306 62.397 318.249 62.3786C318.192 62.3601 318.132 62.3539 318.072 62.3603C317.967 62.3715 317.87 62.4211 317.8 62.4995C317.729 62.5778 317.69 62.6795 317.69 62.7849C317.69 62.8903 317.729 62.992 317.8 63.0704C317.87 63.1488 317.967 63.1983 318.072 63.2095V63.2095Z" fill="black"/>
<path d="M319.496 61.7391C319.581 61.7401 319.664 61.7157 319.735 61.6692C319.807 61.6226 319.862 61.556 319.895 61.4777C319.928 61.3995 319.937 61.3132 319.921 61.2299C319.904 61.1466 319.863 61.0701 319.803 61.0101C319.743 60.9501 319.667 60.9093 319.583 60.893C319.5 60.8767 319.413 60.8855 319.335 60.9184C319.257 60.9514 319.19 61.0069 319.143 61.0778C319.097 61.1488 319.072 61.232 319.073 61.3169C319.073 61.4289 319.118 61.5363 319.197 61.6154C319.276 61.6946 319.384 61.7391 319.496 61.7391V61.7391Z" fill="black"/>
<path d="M316.556 64.6315C316.641 64.6325 316.724 64.6082 316.795 64.5619C316.866 64.5156 316.921 64.4492 316.954 64.3713C316.988 64.2933 316.997 64.2073 316.981 64.1241C316.965 64.041 316.924 63.9644 316.865 63.9042C316.805 63.844 316.729 63.8028 316.646 63.786C316.563 63.7691 316.477 63.7773 316.398 63.8094C316.32 63.8416 316.253 63.8963 316.206 63.9667C316.158 64.037 316.133 64.1198 316.133 64.2044C316.132 64.2603 316.143 64.3157 316.164 64.3675C316.185 64.4193 316.216 64.4664 316.255 64.5061C316.295 64.5458 316.341 64.5774 316.393 64.5989C316.445 64.6204 316.5 64.6315 316.556 64.6315V64.6315Z" fill="black"/>
<path d="M318.121 66.1844C318.206 66.1854 318.289 66.161 318.36 66.1145C318.431 66.0679 318.487 66.0013 318.52 65.923C318.553 65.8448 318.562 65.7585 318.545 65.6753C318.529 65.592 318.488 65.5154 318.428 65.4554C318.368 65.3954 318.291 65.3546 318.208 65.3383C318.124 65.322 318.038 65.3308 317.96 65.3638C317.881 65.3967 317.815 65.4522 317.768 65.5231C317.721 65.5941 317.697 65.6773 317.698 65.7622C317.698 65.8742 317.743 65.9816 317.822 66.0607C317.901 66.1399 318.009 66.1844 318.121 66.1844V66.1844Z" fill="black"/>
<path d="M319.618 64.6994C319.701 64.6985 319.782 64.6729 319.851 64.6259C319.92 64.579 319.973 64.5127 320.005 64.4355C320.036 64.3582 320.044 64.2735 320.027 64.1919C320.01 64.1103 319.969 64.0356 319.91 63.977C319.851 63.9184 319.775 63.8787 319.693 63.8628C319.612 63.8469 319.527 63.8555 319.45 63.8876C319.373 63.9197 319.307 63.9738 319.261 64.0432C319.215 64.1125 319.19 64.1939 319.19 64.2772C319.19 64.3331 319.201 64.3884 319.223 64.4399C319.244 64.4915 319.276 64.5382 319.315 64.5775C319.355 64.6168 319.402 64.6478 319.454 64.6687C319.506 64.6896 319.562 64.7001 319.618 64.6994V64.6994Z" fill="black"/>
<path d="M324.03 60.39C324.115 60.39 324.197 60.365 324.268 60.318C324.338 60.2711 324.393 60.2044 324.425 60.1264C324.457 60.0483 324.466 59.9625 324.449 59.8796C324.433 59.7968 324.392 59.7207 324.332 59.661C324.273 59.6012 324.196 59.5606 324.113 59.5441C324.03 59.5276 323.944 59.5361 323.866 59.5684C323.788 59.6007 323.721 59.6555 323.674 59.7257C323.627 59.7959 323.602 59.8785 323.602 59.9629C323.602 60.0192 323.612 60.075 323.634 60.1271C323.655 60.1792 323.686 60.2266 323.726 60.2664C323.766 60.3062 323.813 60.3376 323.866 60.3588C323.918 60.3801 323.974 60.3907 324.03 60.39V60.39Z" fill="black"/>
<path d="M327.067 60.2007C327.152 60.2007 327.234 60.1757 327.305 60.1288C327.375 60.0818 327.43 60.0151 327.462 59.9371C327.495 59.8591 327.503 59.7732 327.487 59.6904C327.47 59.6075 327.429 59.5314 327.369 59.4717C327.31 59.412 327.233 59.3713 327.151 59.3548C327.068 59.3383 326.982 59.3468 326.903 59.3791C326.825 59.4115 326.758 59.4662 326.712 59.5364C326.665 59.6066 326.639 59.6892 326.639 59.7737C326.639 59.8299 326.649 59.8858 326.671 59.9379C326.692 59.99 326.723 60.0373 326.763 60.0771C326.803 60.1169 326.85 60.1483 326.903 60.1696C326.955 60.1908 327.011 60.2014 327.067 60.2007Z" fill="black"/>
<path d="M325.522 61.7391C325.755 61.7391 325.945 61.5501 325.945 61.3169C325.945 61.0837 325.755 60.8947 325.522 60.8947C325.288 60.8947 325.099 61.0837 325.099 61.3169C325.099 61.5501 325.288 61.7391 325.522 61.7391Z" fill="black"/>
<path d="M324.006 63.2726C324.089 63.2726 324.171 63.2479 324.241 63.2015C324.31 63.1551 324.364 63.0891 324.396 63.012C324.428 62.9349 324.437 62.85 324.42 62.7681C324.404 62.6862 324.364 62.6109 324.305 62.5519C324.246 62.4928 324.17 62.4526 324.088 62.4363C324.006 62.42 323.921 62.4284 323.844 62.4604C323.767 62.4923 323.701 62.5464 323.654 62.6159C323.608 62.6853 323.583 62.7669 323.583 62.8504C323.583 62.9624 323.628 63.0698 323.707 63.149C323.786 63.2282 323.894 63.2726 324.006 63.2726Z" fill="black"/>
<path d="M324.006 66.199C324.239 66.199 324.429 66.0099 324.429 65.7768C324.429 65.5436 324.239 65.3546 324.006 65.3546C323.772 65.3546 323.583 65.5436 323.583 65.7768C323.583 66.0099 323.772 66.199 324.006 66.199Z" fill="black"/>
<path d="M325.522 64.7722C325.607 64.7731 325.69 64.7488 325.761 64.7022C325.832 64.6557 325.888 64.589 325.921 64.5108C325.954 64.4326 325.963 64.3463 325.946 64.263C325.93 64.1797 325.889 64.1032 325.829 64.0432C325.769 63.9832 325.692 63.9424 325.609 63.9261C325.526 63.9097 325.439 63.9186 325.361 63.9515C325.283 63.9845 325.216 64.0399 325.169 64.1109C325.123 64.1819 325.098 64.2651 325.099 64.35C325.1 64.4616 325.145 64.5682 325.224 64.6471C325.303 64.726 325.41 64.7709 325.522 64.7722V64.7722Z" fill="black"/>
<path d="M325.857 67.7082C325.94 67.7073 326.022 67.6817 326.091 67.6347C326.16 67.5877 326.213 67.5215 326.244 67.4442C326.275 67.367 326.283 67.2823 326.266 67.2007C326.249 67.1191 326.209 67.0444 326.149 66.9858C326.09 66.9272 326.015 66.8875 325.933 66.8716C325.851 66.8557 325.766 66.8643 325.689 66.8964C325.612 66.9285 325.547 66.9826 325.5 67.052C325.454 67.1213 325.429 67.2027 325.429 67.286C325.429 67.3419 325.441 67.3972 325.462 67.4487C325.484 67.5002 325.515 67.547 325.555 67.5863C325.595 67.6256 325.642 67.6565 325.694 67.6775C325.746 67.6984 325.801 67.7089 325.857 67.7082V67.7082Z" fill="black"/>
<path d="M324.288 69.1787C324.521 69.1787 324.71 68.9897 324.71 68.7565C324.71 68.5233 324.521 68.3343 324.288 68.3343C324.054 68.3343 323.865 68.5233 323.865 68.7565C323.865 68.9897 324.054 69.1787 324.288 69.1787Z" fill="black"/>
<path d="M321.158 69.1302C321.242 69.1302 321.323 69.1054 321.393 69.059C321.462 69.0126 321.516 68.9467 321.548 68.8695C321.58 68.7924 321.589 68.7075 321.573 68.6256C321.556 68.5437 321.516 68.4685 321.457 68.4094C321.398 68.3504 321.322 68.3102 321.24 68.2939C321.158 68.2776 321.073 68.286 320.996 68.3179C320.919 68.3499 320.853 68.404 320.806 68.4734C320.76 68.5428 320.735 68.6245 320.735 68.708C320.735 68.8199 320.78 68.9273 320.859 69.0065C320.938 69.0857 321.046 69.1302 321.158 69.1302Z" fill="black"/>
<path d="M322.771 70.6928C322.855 70.6928 322.937 70.668 323.006 70.6216C323.076 70.5753 323.13 70.5093 323.162 70.4322C323.194 70.355 323.202 70.2701 323.186 70.1882C323.17 70.1063 323.129 70.0311 323.07 69.972C323.011 69.913 322.936 69.8728 322.854 69.8565C322.772 69.8402 322.687 69.8486 322.61 69.8805C322.532 69.9125 322.466 69.9666 322.42 70.036C322.373 70.1055 322.349 70.1871 322.349 70.2706C322.349 70.326 322.36 70.3809 322.381 70.4322C322.402 70.4834 322.433 70.5299 322.472 70.5691C322.512 70.6083 322.558 70.6394 322.61 70.6607C322.661 70.6819 322.716 70.6928 322.771 70.6928V70.6928Z" fill="black"/>
<path d="M324.098 72.008C324.183 72.0089 324.266 71.9846 324.337 71.938C324.409 71.8915 324.464 71.8248 324.497 71.7466C324.53 71.6684 324.539 71.5821 324.523 71.4988C324.506 71.4155 324.465 71.339 324.405 71.279C324.345 71.2189 324.269 71.1782 324.185 71.1618C324.102 71.1455 324.015 71.1544 323.937 71.1873C323.859 71.2202 323.792 71.2757 323.745 71.3467C323.699 71.4177 323.674 71.5009 323.675 71.5858C323.675 71.6412 323.686 71.6961 323.708 71.7473C323.729 71.7985 323.76 71.8451 323.799 71.8843C323.838 71.9235 323.885 71.9546 323.936 71.9758C323.988 71.997 324.043 72.008 324.098 72.008V72.008Z" fill="black"/>
<path d="M325.76 73.4929C325.845 73.4939 325.928 73.4697 325.999 73.4233C326.07 73.377 326.125 73.3106 326.159 73.2327C326.192 73.1548 326.201 73.0687 326.185 72.9856C326.169 72.9024 326.129 72.8259 326.069 72.7657C326.009 72.7055 325.933 72.6643 325.85 72.6474C325.767 72.6305 325.681 72.6387 325.602 72.6709C325.524 72.7031 325.457 72.7578 325.41 72.8281C325.362 72.8985 325.337 72.9812 325.337 73.0659C325.337 73.1217 325.347 73.1772 325.368 73.2289C325.389 73.2807 325.42 73.3278 325.459 73.3676C325.499 73.4073 325.545 73.4388 325.597 73.4603C325.649 73.4819 325.704 73.4929 325.76 73.4929Z" fill="black"/>
<path d="M305.734 81.4081C305.967 81.4081 306.157 81.219 306.157 80.9859C306.157 80.7527 305.967 80.5637 305.734 80.5637C305.5 80.5637 305.311 80.7527 305.311 80.9859C305.311 81.219 305.5 81.4081 305.734 81.4081Z" fill="black"/>
<path d="M308.771 78.375C308.831 78.3814 308.891 78.3752 308.948 78.3567C309.005 78.3383 309.058 78.3081 309.102 78.268C309.147 78.228 309.183 78.179 309.207 78.1243C309.232 78.0695 309.244 78.0103 309.244 77.9504C309.244 77.8905 309.232 77.8312 309.207 77.7765C309.183 77.7218 309.147 77.6728 309.102 77.6327C309.058 77.5927 309.005 77.5625 308.948 77.544C308.891 77.5256 308.831 77.5194 308.771 77.5257C308.666 77.537 308.569 77.5865 308.498 77.6649C308.428 77.7433 308.389 77.845 308.389 77.9504C308.389 78.0558 308.428 78.1574 308.498 78.2358C308.569 78.3142 308.666 78.3638 308.771 78.375V78.375Z" fill="black"/>
<path d="M310.219 76.9288C310.453 76.9288 310.642 76.7398 310.642 76.5066C310.642 76.2734 310.453 76.0844 310.219 76.0844C309.986 76.0844 309.796 76.2734 309.796 76.5066C309.796 76.7398 309.986 76.9288 310.219 76.9288Z" fill="black"/>
<path d="M311.76 75.405C311.843 75.405 311.925 75.3803 311.995 75.3339C312.064 75.2875 312.118 75.2215 312.15 75.1444C312.182 75.0672 312.191 74.9823 312.174 74.9004C312.158 74.8185 312.118 74.7433 312.059 74.6843C312 74.6252 311.924 74.585 311.842 74.5687C311.76 74.5524 311.675 74.5608 311.598 74.5927C311.521 74.6247 311.455 74.6788 311.408 74.7482C311.362 74.8177 311.337 74.8993 311.337 74.9828C311.337 75.0948 311.381 75.2022 311.461 75.2814C311.54 75.3605 311.648 75.405 311.76 75.405V75.405Z" fill="black"/>
<path d="M313.256 73.8957C313.341 73.8967 313.424 73.8725 313.495 73.8261C313.566 73.7798 313.622 73.7134 313.655 73.6355C313.688 73.5575 313.697 73.4715 313.681 73.3884C313.665 73.3052 313.625 73.2287 313.565 73.1684C313.506 73.1082 313.429 73.0671 313.346 73.0502C313.263 73.0333 313.177 73.0415 313.099 73.0737C313.02 73.1058 312.953 73.1606 312.906 73.2309C312.859 73.3012 312.834 73.384 312.834 73.4687C312.833 73.5245 312.843 73.5799 312.864 73.6317C312.885 73.6835 312.916 73.7306 312.956 73.7703C312.995 73.8101 313.042 73.8416 313.093 73.8631C313.145 73.8846 313.2 73.8957 313.256 73.8957V73.8957Z" fill="black"/>
<path d="M314.753 72.401C314.836 72.4001 314.918 72.3745 314.987 72.3275C315.056 72.2806 315.109 72.2143 315.14 72.1371C315.171 72.0598 315.179 71.9751 315.162 71.8935C315.145 71.8119 315.105 71.7372 315.045 71.6786C314.986 71.62 314.911 71.5803 314.829 71.5644C314.747 71.5485 314.662 71.5571 314.585 71.5892C314.508 71.6213 314.443 71.6754 314.396 71.7448C314.35 71.8141 314.325 71.8955 314.325 71.9788C314.325 72.0347 314.337 72.09 314.358 72.1415C314.38 72.1931 314.411 72.2398 314.451 72.2791C314.491 72.3184 314.538 72.3494 314.59 72.3703C314.642 72.3912 314.697 72.4017 314.753 72.401V72.401Z" fill="black"/>
<path d="M316.294 73.9491C316.377 73.9491 316.459 73.9244 316.529 73.878C316.598 73.8316 316.652 73.7657 316.684 73.6885C316.716 73.6114 316.725 73.5265 316.708 73.4446C316.692 73.3627 316.652 73.2874 316.593 73.2284C316.533 73.1694 316.458 73.1291 316.376 73.1129C316.294 73.0966 316.209 73.1049 316.132 73.1369C316.055 73.1688 315.989 73.2229 315.942 73.2924C315.896 73.3618 315.871 73.4434 315.871 73.5269C315.871 73.5824 315.882 73.6373 315.903 73.6885C315.924 73.7397 315.955 73.7863 315.995 73.8255C316.034 73.8647 316.081 73.8958 316.132 73.917C316.183 73.9382 316.238 73.9491 316.294 73.9491V73.9491Z" fill="black"/>
<path d="M317.907 75.3662C317.992 75.3671 318.075 75.3429 318.146 75.2966C318.217 75.2502 318.272 75.1839 318.305 75.1059C318.339 75.028 318.348 74.942 318.332 74.8588C318.316 74.7757 318.275 74.6991 318.216 74.6389C318.156 74.5787 318.08 74.5375 317.997 74.5207C317.914 74.5038 317.828 74.5119 317.749 74.5441C317.671 74.5763 317.604 74.631 317.557 74.7014C317.509 74.7717 317.484 74.8544 317.484 74.9391C317.484 75.0515 317.529 75.1594 317.608 75.2394C317.687 75.3193 317.794 75.3649 317.907 75.3662V75.3662Z" fill="black"/>
<path d="M319.379 76.8317C319.463 76.8308 319.544 76.8052 319.613 76.7582C319.682 76.7113 319.735 76.645 319.766 76.5678C319.798 76.4905 319.805 76.4058 319.788 76.3242C319.772 76.2427 319.731 76.1679 319.672 76.1093C319.612 76.0508 319.537 76.011 319.455 75.9951C319.373 75.9792 319.289 75.9879 319.212 76.02C319.135 76.0521 319.069 76.1062 319.023 76.1755C318.976 76.2448 318.952 76.3262 318.952 76.4095C318.952 76.4654 318.963 76.5207 318.984 76.5722C319.006 76.6238 319.037 76.6705 319.077 76.7098C319.117 76.7491 319.164 76.7801 319.216 76.801C319.268 76.8219 319.323 76.8324 319.379 76.8317V76.8317Z" fill="black"/>
<path d="M316.294 76.8609C316.379 76.8618 316.462 76.8375 316.533 76.7909C316.604 76.7444 316.66 76.6777 316.693 76.5995C316.726 76.5213 316.734 76.435 316.718 76.3517C316.702 76.2684 316.661 76.1919 316.601 76.1319C316.541 76.0718 316.464 76.0311 316.381 76.0147C316.297 75.9984 316.211 76.0073 316.133 76.0402C316.054 76.0731 315.988 76.1286 315.941 76.1996C315.894 76.2706 315.87 76.3538 315.871 76.4387C315.871 76.5506 315.915 76.658 315.995 76.7372C316.074 76.8164 316.182 76.8609 316.294 76.8609V76.8609Z" fill="black"/>
<path d="M314.821 75.405C314.905 75.405 314.987 75.3803 315.056 75.3339C315.126 75.2875 315.18 75.2215 315.212 75.1444C315.244 75.0672 315.252 74.9823 315.236 74.9004C315.22 74.8185 315.179 74.7433 315.12 74.6843C315.061 74.6252 314.986 74.585 314.904 74.5687C314.822 74.5524 314.737 74.5608 314.659 74.5927C314.582 74.6247 314.516 74.6788 314.47 74.7482C314.423 74.8177 314.398 74.8993 314.398 74.9828C314.398 75.0948 314.443 75.2022 314.522 75.2814C314.602 75.3605 314.709 75.405 314.821 75.405V75.405Z" fill="black"/>
<path d="M313.305 76.9288C313.39 76.9298 313.473 76.9055 313.544 76.8592C313.615 76.8129 313.67 76.7465 313.703 76.6686C313.737 76.5906 313.746 76.5046 313.73 76.4214C313.714 76.3383 313.673 76.2617 313.614 76.2015C313.554 76.1413 313.478 76.1001 313.395 76.0833C313.312 76.0664 313.226 76.0746 313.147 76.1067C313.069 76.1389 313.002 76.1937 312.955 76.264C312.907 76.3343 312.882 76.4171 312.882 76.5017C312.881 76.5576 312.892 76.613 312.913 76.6648C312.934 76.7166 312.965 76.7637 313.004 76.8034C313.044 76.8431 313.09 76.8747 313.142 76.8962C313.194 76.9177 313.249 76.9288 313.305 76.9288Z" fill="black"/>
<path d="M311.832 78.3944C311.916 78.3944 311.998 78.3696 312.067 78.3232C312.137 78.2769 312.191 78.2109 312.223 78.1338C312.255 78.0566 312.263 77.9717 312.247 77.8898C312.231 77.8079 312.191 77.7327 312.131 77.6736C312.072 77.6146 311.997 77.5744 311.915 77.5581C311.833 77.5418 311.748 77.5502 311.671 77.5821C311.593 77.6141 311.527 77.6682 311.481 77.7376C311.434 77.8071 311.41 77.8887 311.41 77.9722C311.41 78.0842 311.454 78.1916 311.533 78.2707C311.613 78.3499 311.72 78.3944 311.832 78.3944V78.3944Z" fill="black"/>
<path d="M314.821 78.3944C314.905 78.3944 314.987 78.3696 315.056 78.3232C315.126 78.2769 315.18 78.2109 315.212 78.1338C315.244 78.0566 315.252 77.9717 315.236 77.8898C315.22 77.8079 315.179 77.7327 315.12 77.6736C315.061 77.6146 314.986 77.5744 314.904 77.5581C314.822 77.5418 314.737 77.5502 314.659 77.5821C314.582 77.6141 314.516 77.6682 314.47 77.7376C314.423 77.8071 314.398 77.8887 314.398 77.9722C314.398 78.0842 314.443 78.1916 314.522 78.2707C314.602 78.3499 314.709 78.3944 314.821 78.3944V78.3944Z" fill="black"/>
<path d="M317.766 78.3944C317.849 78.3935 317.931 78.3679 318 78.3209C318.068 78.274 318.122 78.2077 318.153 78.1305C318.184 78.0532 318.192 77.9685 318.175 77.8869C318.158 77.8054 318.118 77.7306 318.058 77.672C317.999 77.6135 317.924 77.5737 317.842 77.5578C317.76 77.5419 317.675 77.5506 317.598 77.5826C317.521 77.6147 317.456 77.6689 317.409 77.7382C317.363 77.8075 317.338 77.8889 317.338 77.9722C317.338 78.0281 317.349 78.0834 317.371 78.1349C317.393 78.1865 317.424 78.2332 317.464 78.2725C317.504 78.3118 317.551 78.3428 317.603 78.3637C317.655 78.3846 317.71 78.3951 317.766 78.3944V78.3944Z" fill="black"/>
<path d="M322.368 79.7727C322.453 79.7736 322.536 79.7494 322.607 79.7031C322.678 79.6567 322.734 79.5904 322.767 79.5124C322.8 79.4345 322.809 79.3485 322.793 79.2653C322.777 79.1822 322.737 79.1056 322.677 79.0454C322.617 78.9852 322.541 78.944 322.458 78.9271C322.375 78.9103 322.289 78.9184 322.21 78.9506C322.132 78.9828 322.065 79.0375 322.018 79.1079C321.971 79.1782 321.945 79.2609 321.945 79.3456C321.945 79.4015 321.955 79.4569 321.976 79.5087C321.997 79.5605 322.028 79.6076 322.067 79.6473C322.107 79.687 322.154 79.7186 322.205 79.7401C322.257 79.7616 322.312 79.7727 322.368 79.7727V79.7727Z" fill="black"/>
<path d="M323.933 81.1945C324.018 81.1955 324.101 81.1713 324.172 81.1249C324.243 81.0786 324.298 81.0123 324.331 80.9343C324.364 80.8564 324.374 80.7703 324.358 80.6872C324.342 80.604 324.301 80.5275 324.242 80.4673C324.182 80.4071 324.106 80.3659 324.023 80.349C323.94 80.3321 323.854 80.3403 323.775 80.3725C323.697 80.4047 323.63 80.4594 323.582 80.5297C323.535 80.6001 323.51 80.6828 323.51 80.7675C323.509 80.8233 323.52 80.8788 323.541 80.9305C323.562 80.9823 323.593 81.0295 323.632 81.0692C323.671 81.1089 323.718 81.1404 323.77 81.162C323.822 81.1835 323.877 81.1945 323.933 81.1945Z" fill="black"/>
<path d="M322.417 82.7572C322.501 82.7572 322.584 82.732 322.655 82.6849C322.725 82.6377 322.78 82.5707 322.812 82.4924C322.844 82.4141 322.853 82.328 322.836 82.245C322.819 82.162 322.778 82.086 322.717 82.0264C322.657 81.9669 322.58 81.9266 322.497 81.9107C322.414 81.8948 322.328 81.9039 322.25 81.937C322.172 81.9701 322.105 82.0256 322.059 82.0964C322.012 82.1673 321.988 82.2503 321.989 82.335C321.989 82.3908 322 82.4462 322.022 82.4977C322.043 82.5492 322.075 82.596 322.115 82.6353C322.154 82.6745 322.202 82.7055 322.253 82.7265C322.305 82.7474 322.361 82.7578 322.417 82.7572V82.7572Z" fill="black"/>
<path d="M316.415 82.8057C316.5 82.8057 316.582 82.7807 316.653 82.7337C316.723 82.6868 316.778 82.6201 316.81 82.5421C316.842 82.464 316.851 82.3782 316.834 82.2953C316.818 82.2125 316.777 82.1364 316.717 82.0767C316.658 82.017 316.581 81.9763 316.498 81.9598C316.415 81.9433 316.329 81.9518 316.251 81.9841C316.173 82.0164 316.106 82.0712 316.059 82.1414C316.012 82.2116 315.987 82.2942 315.987 82.3787C315.987 82.4919 316.032 82.6005 316.113 82.6806C316.193 82.7607 316.302 82.8057 316.415 82.8057Z" fill="black"/>
<path d="M313.305 82.8058C313.39 82.8067 313.473 82.7825 313.544 82.7362C313.615 82.6898 313.67 82.6235 313.703 82.5455C313.737 82.4676 313.746 82.3815 313.73 82.2984C313.714 82.2152 313.673 82.1387 313.614 82.0785C313.554 82.0183 313.478 81.9771 313.395 81.9602C313.312 81.9434 313.226 81.9515 313.147 81.9837C313.069 82.0159 313.002 82.0706 312.955 82.1409C312.907 82.2113 312.882 82.294 312.882 82.3787C312.882 82.4911 312.926 82.599 313.006 82.679C313.085 82.7589 313.192 82.8045 313.305 82.8058Z" fill="black"/>
<path d="M317.815 84.2277C317.899 84.2277 317.982 84.2026 318.052 84.1557C318.123 84.1088 318.177 84.0421 318.21 83.964C318.242 83.886 318.251 83.8001 318.234 83.7173C318.218 83.6344 318.177 83.5583 318.117 83.4986C318.057 83.4389 317.981 83.3982 317.898 83.3817C317.815 83.3653 317.729 83.3737 317.651 83.406C317.573 83.4384 317.506 83.4931 317.459 83.5633C317.412 83.6336 317.387 83.7161 317.387 83.8006C317.387 83.9139 317.432 84.0225 317.512 84.1026C317.592 84.1827 317.701 84.2277 317.815 84.2277Z" fill="black"/>
<path d="M314.821 84.2277C314.881 84.234 314.941 84.2278 314.998 84.2094C315.055 84.191 315.108 84.1607 315.152 84.1207C315.197 84.0806 315.233 84.0317 315.257 83.9769C315.282 83.9222 315.294 83.863 315.294 83.803C315.294 83.7431 315.282 83.6839 315.257 83.6292C315.233 83.5744 315.197 83.5254 315.152 83.4854C315.108 83.4453 315.055 83.4151 314.998 83.3967C314.941 83.3783 314.881 83.372 314.821 83.3784C314.716 83.3896 314.619 83.4392 314.549 83.5176C314.478 83.596 314.439 83.6976 314.439 83.803C314.439 83.9084 314.478 84.0101 314.549 84.0885C314.619 84.1669 314.716 84.2164 314.821 84.2277V84.2277Z" fill="black"/>
<path d="M311.832 84.2276C311.917 84.2286 312 84.2044 312.071 84.158C312.142 84.1117 312.198 84.0453 312.231 83.9674C312.264 83.8894 312.273 83.8034 312.257 83.7203C312.241 83.6371 312.201 83.5606 312.141 83.5003C312.082 83.4401 312.006 83.399 311.923 83.3821C311.839 83.3652 311.753 83.3734 311.675 83.4056C311.596 83.4377 311.529 83.4925 311.482 83.5628C311.435 83.6331 311.41 83.7159 311.41 83.8006C311.41 83.913 311.454 84.0209 311.533 84.1008C311.612 84.1808 311.72 84.2263 311.832 84.2276V84.2276Z" fill="black"/>
<path d="M330.853 60.5356C331.587 60.8268 332.753 62.1468 332.019 62.8796C329.337 61.909 328.496 64.2724 328.496 65.5924C328.496 68.6352 330.804 70.2124 330.804 75.6379C330.804 77.3413 330.367 83.9559 321.348 86.0378C319.938 86.3629 316.867 87.1831 314.85 89.0515V88.5079C317.061 86.46 321.318 85.7321 322.013 85.5282C325.386 84.514 330.445 81.7429 330.445 75.5312C330.445 71.7119 328.87 68.7371 327.407 68.7371C326.79 68.7371 326.985 69.499 327.334 70.0085C327.539 70.3094 327.782 70.8141 327.223 70.7025C326.664 70.5909 325.911 70.7753 325.911 71.28C325.911 71.5227 326.227 71.5227 326.397 71.4304C326.616 71.3139 326.862 71.2554 327.111 71.2606C327.728 71.2606 328.404 71.6537 328.404 72.105C328.404 72.5563 327.539 72.3671 327.539 72.7213C327.539 72.964 329.604 74.4247 329.604 76.1475C329.604 76.691 329.376 76.4872 329.244 76.1475C329.113 75.8078 328.758 75.3613 328.423 75.3613C328.088 75.3613 327.898 75.4924 328.044 75.7738C328.488 76.4752 328.735 77.2833 328.758 78.1129C328.758 79.3116 327.879 80.884 327.3 81.5974C327.019 81.9468 326.926 81.7284 326.873 81.5974C326.819 81.4663 326.683 81.0538 326.387 81.0538C325.901 81.0538 326.202 83.3735 320.857 84.7954C319.797 85.0818 317.091 85.766 314.841 87.4743C312.591 85.7515 309.884 85.0818 308.824 84.7954C303.479 83.3735 303.78 81.0538 303.294 81.0538C303.012 81.0538 302.881 81.4663 302.808 81.5974C302.735 81.7284 302.663 81.9468 302.381 81.5974C301.798 80.884 300.923 79.3116 300.923 78.1129C300.945 77.2838 301.19 76.4759 301.632 75.7738C301.783 75.4924 301.598 75.3613 301.258 75.3613C300.918 75.3613 300.568 75.8127 300.437 76.1475C300.306 76.4824 300.077 76.691 300.077 76.1475C300.077 74.4247 302.143 72.964 302.143 72.7213C302.143 72.3671 301.278 72.5563 301.278 72.105C301.278 71.6537 301.953 71.2606 302.57 71.2606C302.819 71.2554 303.065 71.3139 303.285 71.4304C303.455 71.5227 303.771 71.5227 303.771 71.28C303.771 70.7947 303.022 70.5909 302.458 70.7025C301.895 70.8141 302.143 70.3094 302.347 70.0085C302.697 69.499 302.891 68.7371 302.274 68.7371C300.816 68.7371 299.237 71.7313 299.237 75.5312C299.237 81.7429 304.295 84.514 307.668 85.5282C308.363 85.7321 312.62 86.46 314.831 88.5079V89.0709C312.814 87.2025 309.723 86.3824 308.319 86.0572C299.295 83.9753 298.858 77.3607 298.858 75.6574C298.858 70.2318 301.171 68.6546 301.171 65.6118C301.171 64.2918 300.325 61.9478 297.647 62.899C296.909 62.1662 298.085 60.8462 298.819 60.555C298.673 59.895 300.913 56.9978 304.543 56.9978C306.895 56.9978 308.727 58.1334 311.225 58.1334C312.489 58.0684 313.722 57.7183 314.831 57.1094V57.6238C313.721 58.2306 312.489 58.5805 311.225 58.6478C308.727 58.6478 306.895 57.5122 304.543 57.5122C303.07 57.5062 301.643 58.0221 300.515 58.9681C300.73 59.0243 300.939 59.099 301.142 59.1913C301.365 59.3612 301.253 59.6038 300.952 59.4922C300.72 59.3746 300.473 59.2897 300.218 59.2399C300.097 59.3554 299.983 59.4785 299.878 59.6087C300.297 59.6012 300.709 59.7104 301.069 59.9241C301.326 60.0649 301.244 60.3609 300.908 60.2104C300.511 60.007 300.064 59.9227 299.62 59.9678C299.536 60.0952 299.475 60.2365 299.441 60.3852L299.577 60.9481C299.091 60.9481 297.818 61.3994 298.061 62.205C298.493 62.074 301.545 62.1468 301.545 65.2381C301.545 65.7622 301.734 65.7234 301.734 65.5341C301.834 64.827 301.71 64.1065 301.381 63.4726C301.052 62.8387 300.533 62.3228 299.897 61.9963C299.436 61.7779 299.538 61.38 300.194 61.7343C300.764 62.0271 301.244 62.4696 301.581 63.0143C301.919 63.559 302.101 64.1852 302.109 64.8256C302.109 65.2381 301.997 66.0777 301.997 66.0777C302.356 65.6149 302.529 65.0353 302.483 64.4519C302.483 62.5107 300.928 60.9481 299.596 60.9481L299.46 60.3852C300.233 60.2735 303.022 61.0063 303.022 64.7819C303.022 65.4079 302.658 67.3879 301.997 68.2275C302.731 68.1207 304.125 68.1547 303.022 70.1007C304.636 70.4307 304.232 72.0419 303.722 72.0419C303.042 72.0419 303.095 71.6731 302.434 71.6731C301.948 71.6731 301.914 71.9885 302.177 72.0759C302.331 72.1042 302.472 72.1856 302.573 72.3061C302.674 72.4266 302.73 72.5786 302.731 72.7359C302.731 73.4153 301.759 73.0659 300.874 75.0459C301.086 74.9633 301.309 74.9142 301.535 74.9003C301.739 74.9003 302.215 74.9731 302.215 75.3856C302.215 75.7981 301.35 76.3756 301.35 78.0013C301.35 78.8603 302.235 80.3987 302.454 80.6947C302.557 80.5689 302.685 80.4654 302.829 80.3903C302.974 80.3153 303.132 80.2702 303.294 80.2579C304.32 80.2579 304.174 81.0635 304.174 81.2868C304.174 81.51 305.311 83.4851 308.581 84.2907C310.175 84.6838 313.655 85.669 314.865 86.8385C316.075 85.669 319.559 84.6838 321.148 84.2907C324.419 83.4851 325.556 81.5051 325.556 81.2868C325.556 81.0684 325.41 80.2579 326.435 80.2579C326.752 80.2928 327.042 80.4516 327.242 80.6996C327.461 80.4035 328.345 78.8652 328.345 78.0062C328.345 76.3562 327.5 75.7496 327.5 75.3468C327.5 74.944 327.986 74.8615 328.18 74.8615C328.407 74.8754 328.63 74.9245 328.841 75.0071C327.976 73.0271 326.985 73.3765 326.985 72.6971C326.985 72.5398 327.041 72.3878 327.142 72.2673C327.244 72.1468 327.384 72.0653 327.539 72.0371C327.801 71.9497 327.757 71.6343 327.281 71.6343C326.62 71.6343 326.674 72.0031 325.993 72.0031C325.507 72.0031 325.08 70.3919 326.693 70.0619C325.59 68.1207 326.985 68.0819 327.718 68.1887C327.058 67.3491 326.693 65.3691 326.693 64.7431C326.693 62.4913 327.665 61.346 328.637 60.7685C328.504 60.5879 328.349 60.4248 328.175 60.2832C327.898 60.0406 328.131 59.8416 328.374 60.0163C328.604 60.1736 328.802 60.3729 328.958 60.6035C329.084 60.5502 329.205 60.5065 329.322 60.4677C329.181 60.2734 329.018 60.0959 328.836 59.9387C328.608 59.7154 328.783 59.5116 329.03 59.6475C329.322 59.821 329.557 60.0734 329.711 60.3754C329.891 60.3364 330.077 60.3266 330.26 60.3463L330.129 60.9093C328.797 60.9093 327.242 62.4816 327.242 64.4131C327.196 64.9965 327.369 65.5761 327.728 66.0388C327.728 66.0388 327.592 65.2138 327.592 64.7916C327.6 64.1512 327.782 63.525 328.119 62.9803C328.457 62.4357 328.936 61.9931 329.507 61.7003C330.163 61.346 330.265 61.744 329.803 61.9624C329.166 62.2877 328.647 62.8034 328.318 63.4376C327.988 64.0718 327.866 64.7929 327.966 65.5002C327.966 65.67 328.156 65.7282 328.156 65.2041C328.156 62.1128 331.212 62.04 331.64 62.171C331.883 61.3654 330.59 60.9141 330.124 60.9141L330.255 60.3512C330.148 59.6572 328.277 57.4928 325.157 57.4928C322.805 57.4928 320.973 58.6284 318.476 58.6284C317.212 58.5611 315.98 58.2112 314.87 57.6044V57.09C315.972 57.6986 317.198 58.0488 318.456 58.114C320.954 58.114 322.796 56.9784 325.148 56.9784C328.758 56.9638 330.994 59.8756 330.853 60.5356Z" fill="black"/>
<path d="M316.541 86.7803C318.235 85.8362 320.052 85.1323 321.94 84.6887C322.635 84.5576 322.489 84.8343 321.829 84.9847C320.08 85.4082 318.39 86.0472 316.799 86.8871C316.507 87.1248 316.002 87.1151 316.541 86.7803Z" fill="black"/>
<path d="M313.601 87.0229C312.809 86.4163 310.496 85.436 308.562 85.0818C307.862 84.9507 308.013 85.2274 308.669 85.3729C310.315 85.7015 311.894 86.3001 313.344 87.1443C313.66 87.3432 314.112 87.4112 313.601 87.0229Z" fill="black"/>
<path d="M314.841 64.646L328.399 77.9043C328.447 77.6257 328.429 77.3397 328.345 77.0696L314.841 63.8696L301.35 77.0696C301.27 77.3402 301.251 77.6256 301.297 77.9043L314.841 64.646Z" fill="black"/>
<path d="M314.841 70.6103L325.677 81.2091L325.974 80.719L314.841 69.829L303.707 80.719L304.004 81.2091L314.841 70.6103Z" fill="black"/>
<path d="M314.841 69.2709L326.557 80.7432C327.5 81.5003 328.175 79.1272 328.374 78.4526L314.841 65.2138L301.312 78.4429L302.769 79.3262V78.6419L302.361 78.0935L303.012 77.8897L303.411 77.3316L303.809 77.8897L304.67 77.4675V76.7832L304.261 76.2348L304.917 76.031L305.311 75.4778L305.71 76.031L306.57 75.6137V74.9294L306.161 74.381L306.813 74.1772L307.211 73.6191L307.605 74.1772L308.465 73.755V73.0707L308.057 72.5223L308.708 72.3185L309.106 71.7604L309.5 72.3185L310.365 71.8963V71.212L309.957 70.6637L310.613 70.4598L311.006 69.9017L311.405 70.4598L312.265 70.0376V69.3582L311.857 68.8098L312.527 68.6109L312.921 68.0528L313.32 68.6109L314.18 68.1887V67.5044L313.772 66.956L314.423 66.7522L314.821 66.1941L315.215 66.7522L315.866 66.956L315.458 67.5044V68.1887L315.652 68.8147L316.303 68.6109L316.702 68.0528L317.1 68.6109L317.751 68.8147L317.343 69.3631V70.0425L318.208 70.4647L318.602 69.9066L319 70.4647L319.652 70.6685L319.243 71.2169V71.9012L320.104 72.3234L320.497 71.7653L320.896 72.3234L321.547 72.5272L321.139 73.0756V73.7598L321.999 74.182L322.397 73.624L322.791 74.182L323.447 74.3859L323.039 74.9342V75.6185L323.899 76.0359L324.297 75.4826L324.696 76.0359L325.347 76.2397L324.939 76.7881V77.4723L325.804 77.8945L326.197 77.3365L326.596 77.8945L327.247 78.0984L326.839 78.6467V79.331L326.188 79.1126L325.541 79.331V78.6467L325.133 78.0984L325.789 77.8945L324.924 77.4723L324.278 77.254L323.632 77.4723V76.7881L323.223 76.2397L323.875 76.0359L323.014 75.6185L322.368 75.4001L321.717 75.6185V74.9342L321.309 74.3859L321.96 74.182L321.1 73.7598L320.449 73.5415L319.802 73.7598V73.0756L319.394 72.5272L320.045 72.3234L319.185 71.9012L318.534 71.6828L317.888 71.9012V71.2169L317.479 70.6685L318.135 70.4647L317.27 70.0425L316.624 69.829L315.978 70.0425V69.3631L315.57 68.8147L315.375 68.1887L314.729 67.9703L314.078 68.1887L313.218 68.6109L313.869 68.8147L313.461 69.3631V70.0425L312.809 69.829L312.163 70.0425L311.303 70.4647L311.954 70.6685L311.546 71.2169V71.9012L310.9 71.6828L310.253 71.9012L309.388 72.3234L310.044 72.5272L309.636 73.0756V73.7598L308.99 73.5415L308.339 73.7598L307.478 74.182L308.134 74.3859L307.862 74.9197V75.604L307.216 75.3856L306.565 75.604L305.705 76.0213L306.356 76.2251L305.948 76.7735V77.4578L305.296 77.2394L304.65 77.4578L303.79 77.88L304.441 78.0838L304.033 78.6322V79.3165L303.387 79.0981L302.74 79.3165L301.282 78.4332C301.477 79.1078 302.152 81.4809 303.1 80.7238L314.841 69.2709Z" fill="black"/>
<path d="M34.5124 32.6312V54.7363H72.2809V83.8588H34.5124V135.785H0.0825195V3.50867H76.1491V32.6312H34.5124Z" fill="black"/>
<path d="M82.6123 3.50867V135.78H116.877L117.042 106.663V32.6263H125.124C147.259 32.6263 162.892 45.9622 162.892 69.6445C162.892 95.4331 145.325 106.663 124.774 106.663H117.042L116.877 135.78H131.456C168.174 135.78 198.741 106.837 198.741 69.6445C198.741 32.4516 168.34 3.50867 131.446 3.50867H82.6123Z" fill="black"/>
<path d="M238.06 3.50867H203.63V135.785H238.06V3.50867Z" fill="black"/>
<path d="M344.114 47.8937C337.088 38.4159 325.648 33.3349 313.903 33.3349C292.822 33.3349 278.593 49.4757 278.593 69.9988C278.593 90.8665 292.997 105.964 314.427 105.964C325.648 105.979 336.903 100.519 344.114 91.905V133.155C332.699 136.664 324.443 139.294 313.723 139.294C295.257 139.294 277.714 132.277 264.01 119.824C249.431 106.668 242.754 89.4737 242.754 69.8387C242.68 51.7767 249.678 34.4013 262.255 21.4209C275.245 8.07044 294.061 0 312.663 0C323.729 0 333.919 2.45559 344.105 6.66309L344.114 47.8937Z" fill="black"/>
<path d="M1.54048 146.258V149.728H5.83632V151.135H1.54048V157.187H0V144.865H5.98211V146.258H1.54048Z" fill="black"/>
<path d="M7.99878 144.865H14.6369V146.258H9.53926V149.708H14.4863V151.111H9.53926V155.775H14.6369V157.182H7.99878V144.865Z" fill="black"/>
<path d="M16.6245 144.865H19.1806C22.9662 144.865 26.1104 146.86 26.1104 150.965C26.1104 155.173 23.0294 157.201 19.132 157.201H16.6245V144.865ZM18.165 155.794H18.7044C21.8485 155.794 24.5699 154.615 24.5699 151.033C24.5699 147.452 21.8485 146.258 18.7044 146.258H18.165V155.794Z" fill="black"/>
<path d="M27.8696 144.865H34.5029V146.258H29.4052V149.708H34.3571V151.111H29.4052V155.775H34.5029V157.182H27.8696V144.865Z" fill="black"/>
<path d="M44.3094 157.201H42.4385L38.8035 151.984H38.1621V157.201H36.6216V144.865H38.4877C39.5859 144.865 40.7668 144.865 41.7533 145.438C42.2556 145.747 42.6689 146.18 42.9526 146.697C43.2363 147.213 43.3807 147.795 43.3715 148.384C43.4017 149.225 43.1135 150.048 42.5642 150.687C42.015 151.326 41.2449 151.736 40.4072 151.834L44.3094 157.201ZM38.1621 150.703H38.648C40.2225 150.703 41.9282 150.412 41.9282 148.447C41.9282 146.481 40.0962 146.258 38.5703 146.258H38.1621V150.703Z" fill="black"/>
<path d="M47.4924 154.11L46.0831 157.201H44.426L50.3255 144.341L56.225 157.201H54.5679L53.1586 154.11H47.4924ZM50.3255 147.714L48.129 152.703H52.5026L50.3255 147.714Z" fill="black"/>
<path d="M59.0144 155.794H62.7465V157.201H57.4739V144.865H59.0144V155.794Z" fill="black"/>
<path d="M68.8113 144.865H71.3674C75.153 144.865 78.302 146.86 78.302 150.965C78.302 155.173 75.221 157.201 71.3188 157.201H68.8113V144.865ZM70.3518 155.794H70.896C74.0402 155.794 76.7615 154.615 76.7615 151.033C76.7615 147.452 74.0402 146.273 70.896 146.273H70.3518V155.794Z" fill="black"/>
<path d="M80.0562 144.865H86.6943V146.258H81.5966V149.708H86.5582V151.111H81.5966V155.775H86.6943V157.182H80.0562V144.865Z" fill="black"/>
<path d="M90.3537 157.201H88.8132V144.865H90.5821C94.3823 144.865 95.5631 146.171 95.5631 148.432C95.5631 151.033 93.5805 152.033 91.2382 152.033H90.3537V157.201ZM90.3537 150.655H90.8397C92.4093 150.655 94.115 150.364 94.115 148.398C94.115 146.433 92.2781 146.239 90.7571 146.239H90.3489L90.3537 150.655Z" fill="black"/>
<path d="M109.213 151.033C109.213 152.748 108.531 154.392 107.318 155.604C106.104 156.816 104.457 157.497 102.741 157.497C101.024 157.497 99.3774 156.816 98.1635 155.604C96.9495 154.392 96.2676 152.748 96.2676 151.033C96.2676 149.319 96.9495 147.675 98.1635 146.462C99.3774 145.25 101.024 144.569 102.741 144.569C104.457 144.569 106.104 145.25 107.318 146.462C108.531 147.675 109.213 149.319 109.213 151.033V151.033ZM107.673 151.033C107.673 149.727 107.153 148.474 106.228 147.55C105.303 146.626 104.049 146.107 102.741 146.107C101.432 146.107 100.178 146.626 99.2527 147.55C98.3277 148.474 97.8081 149.727 97.8081 151.033C97.8081 152.34 98.3277 153.592 99.2527 154.516C100.178 155.44 101.432 155.959 102.741 155.959C104.049 155.959 105.303 155.44 106.228 154.516C107.153 153.592 107.673 152.34 107.673 151.033Z" fill="black"/>
<path d="M116.415 147.229C116.231 146.866 115.946 146.563 115.595 146.358C115.243 146.152 114.84 146.052 114.433 146.069C113.461 146.069 112.367 146.738 112.367 147.816C112.367 148.786 113.315 149.272 114.088 149.582L114.972 149.927C116.726 150.616 118.034 151.582 118.034 153.644C118.04 154.159 117.941 154.669 117.744 155.145C117.547 155.621 117.255 156.051 116.886 156.411C116.517 156.77 116.078 157.051 115.597 157.236C115.116 157.421 114.603 157.507 114.088 157.488C113.137 157.485 112.22 157.132 111.515 156.494C110.809 155.857 110.365 154.982 110.268 154.037L111.828 153.707C111.819 154.022 111.873 154.336 111.988 154.629C112.103 154.922 112.277 155.19 112.498 155.414C112.719 155.639 112.984 155.816 113.276 155.936C113.567 156.056 113.88 156.116 114.196 156.111C114.511 156.107 114.823 156.039 115.111 155.911C115.4 155.784 115.659 155.599 115.875 155.369C116.09 155.138 116.256 154.866 116.363 154.57C116.47 154.274 116.516 153.959 116.498 153.644C116.498 152.319 115.429 151.747 114.365 151.305L113.514 150.941C112.105 150.339 110.827 149.534 110.827 147.816C110.827 145.821 112.596 144.627 114.462 144.627C115.113 144.614 115.755 144.782 116.317 145.11C116.879 145.439 117.338 145.917 117.645 146.491L116.415 147.229Z" fill="black"/>
<path d="M121.43 157.201H119.89V144.865H121.43V157.201Z" fill="black"/>
<path d="M127.281 157.201H125.741V146.258H122.825V144.851H130.231V146.258H127.315L127.281 157.201Z" fill="black"/>
<path d="M138.07 157.201H136.529V144.865H138.07V157.201Z" fill="black"/>
<path d="M140.46 144.273L149.732 153.979V144.865H151.273V157.711L141.996 148.005V157.201H140.46V144.273Z" fill="black"/>
<path d="M159.175 147.229C158.991 146.865 158.707 146.562 158.355 146.356C158.003 146.15 157.599 146.05 157.192 146.069C156.22 146.069 155.132 146.738 155.132 147.816C155.132 148.786 156.079 149.272 156.852 149.582L157.736 149.927C159.491 150.616 160.798 151.582 160.798 153.644C160.804 154.159 160.706 154.67 160.508 155.145C160.311 155.621 160.019 156.051 159.65 156.411C159.281 156.77 158.843 157.051 158.362 157.236C157.881 157.421 157.367 157.507 156.852 157.488C155.901 157.485 154.984 157.132 154.279 156.495C153.574 155.857 153.129 154.982 153.032 154.037L154.587 153.707C154.578 154.022 154.632 154.336 154.747 154.629C154.863 154.923 155.036 155.19 155.257 155.414C155.479 155.639 155.743 155.816 156.035 155.936C156.327 156.056 156.64 156.116 156.955 156.111C157.271 156.107 157.582 156.039 157.871 155.911C158.159 155.784 158.419 155.599 158.634 155.369C158.849 155.138 159.015 154.866 159.122 154.57C159.229 154.274 159.275 153.959 159.257 153.644C159.257 152.319 158.193 151.747 157.129 151.305L156.278 150.941C154.869 150.339 153.591 149.534 153.591 147.816C153.591 145.821 155.36 144.627 157.226 144.627C157.876 144.615 158.518 144.782 159.079 145.111C159.64 145.44 160.098 145.918 160.404 146.491L159.175 147.229Z" fill="black"/>
<path d="M164.029 144.865V152.145C164.029 154.159 164.637 156.027 167.013 156.027C169.389 156.027 169.997 154.163 169.997 152.145V144.865H171.532V152.669C171.532 155.386 169.846 157.463 167.013 157.463C164.18 157.463 162.489 155.386 162.489 152.669V144.865H164.029Z" fill="black"/>
<path d="M181.567 157.201H179.701L176.062 151.984H175.425V157.201H173.885V144.865H175.751C176.849 144.865 178.03 144.865 179.011 145.438C179.515 145.746 179.929 146.18 180.213 146.696C180.498 147.213 180.643 147.794 180.634 148.384C180.663 149.225 180.375 150.047 179.826 150.686C179.277 151.325 178.507 151.735 177.67 151.834L181.567 157.201ZM175.425 150.703H175.911C177.485 150.703 179.186 150.412 179.186 148.447C179.186 146.481 177.354 146.239 175.828 146.239H175.42L175.425 150.703Z" fill="black"/>
<path d="M184.75 154.11L183.341 157.201H181.689L187.588 144.341L193.469 157.201H191.816L190.407 154.11H184.75ZM187.588 147.714L185.392 152.703H189.766L187.588 147.714Z" fill="black"/>
<path d="M194.586 144.273L203.863 153.979V144.865H205.404V157.711L196.127 148.005V157.201H194.586V144.273Z" fill="black"/>
<path d="M216.794 147.228C215.887 146.45 214.73 146.022 213.534 146.02C212.714 146.004 211.903 146.188 211.171 146.557C210.438 146.925 209.808 147.467 209.333 148.135C208.859 148.802 208.555 149.576 208.448 150.387C208.341 151.199 208.434 152.025 208.72 152.792C209.006 153.56 209.475 154.246 210.087 154.791C210.699 155.335 211.435 155.723 212.231 155.919C213.027 156.115 213.859 156.113 214.654 155.915C215.449 155.716 216.184 155.327 216.794 154.78V156.595C215.804 157.156 214.687 157.455 213.548 157.463C211.854 157.47 210.226 156.804 209.022 155.613C207.819 154.422 207.138 152.803 207.129 151.111C207.128 150.252 207.298 149.402 207.629 148.609C207.959 147.817 208.445 147.098 209.056 146.494C209.667 145.89 210.392 145.413 211.189 145.091C211.986 144.769 212.839 144.608 213.699 144.618C214.794 144.605 215.872 144.893 216.814 145.452L216.794 147.228Z" fill="black"/>
<path d="M218.865 144.865H225.503V146.258H220.405V149.708H225.352V151.111H220.405V155.775H225.503V157.182H218.865V144.865Z" fill="black"/>
<path d="M241.578 147.229C240.671 146.449 239.514 146.021 238.317 146.02C237.497 146.004 236.686 146.188 235.954 146.557C235.222 146.925 234.591 147.467 234.117 148.135C233.642 148.802 233.338 149.576 233.231 150.387C233.124 151.199 233.218 152.025 233.504 152.792C233.789 153.56 234.259 154.246 234.87 154.791C235.482 155.336 236.218 155.723 237.014 155.919C237.81 156.115 238.642 156.113 239.438 155.915C240.233 155.716 240.968 155.327 241.578 154.78V156.595C240.59 157.156 239.474 157.455 238.337 157.463C237.495 157.471 236.66 157.313 235.879 156.997C235.099 156.682 234.388 156.216 233.789 155.626C233.189 155.035 232.712 154.333 232.385 153.558C232.058 152.783 231.888 151.952 231.883 151.111C231.882 150.252 232.051 149.402 232.382 148.609C232.712 147.816 233.197 147.096 233.809 146.492C234.42 145.888 235.145 145.411 235.943 145.09C236.74 144.768 237.593 144.607 238.453 144.618C239.547 144.605 240.623 144.894 241.563 145.452L241.578 147.229Z" fill="black"/>
<path d="M255.695 151.033C255.695 152.748 255.013 154.392 253.799 155.604C252.585 156.816 250.939 157.497 249.222 157.497C247.505 157.497 245.859 156.816 244.645 155.604C243.431 154.392 242.749 152.748 242.749 151.033C242.749 149.319 243.431 147.675 244.645 146.462C245.859 145.25 247.505 144.569 249.222 144.569C250.939 144.569 252.585 145.25 253.799 146.462C255.013 147.675 255.695 149.319 255.695 151.033ZM254.154 151.033C254.154 150.386 254.027 149.746 253.779 149.148C253.531 148.551 253.168 148.008 252.71 147.55C252.252 147.093 251.708 146.73 251.11 146.482C250.511 146.235 249.87 146.107 249.222 146.107C248.574 146.107 247.933 146.235 247.334 146.482C246.736 146.73 246.192 147.093 245.734 147.55C245.276 148.008 244.913 148.551 244.665 149.148C244.417 149.746 244.29 150.386 244.29 151.033C244.29 151.68 244.417 152.321 244.665 152.918C244.913 153.516 245.276 154.059 245.734 154.516C246.192 154.974 246.736 155.336 247.334 155.584C247.933 155.832 248.574 155.959 249.222 155.959C249.87 155.959 250.511 155.832 251.11 155.584C251.708 155.336 252.252 154.974 252.71 154.516C253.168 154.059 253.531 153.516 253.779 152.918C254.027 152.321 254.154 151.68 254.154 151.033Z" fill="black"/>
<path d="M265.088 157.201H263.222L259.583 151.984H258.946V157.201H257.406V144.865H259.272C260.37 144.865 261.551 144.865 262.532 145.438C263.036 145.746 263.45 146.18 263.734 146.696C264.019 147.213 264.164 147.794 264.155 148.384C264.184 149.225 263.896 150.047 263.347 150.686C262.798 151.325 262.028 151.735 261.191 151.834L265.088 157.201ZM258.946 150.703H259.432C261.002 150.703 262.707 150.412 262.707 148.447C262.707 146.481 260.87 146.239 259.349 146.239H258.941L258.946 150.703Z" fill="black"/>
<path d="M268.058 157.201H266.517V144.865H268.305C272.11 144.865 273.291 146.171 273.291 148.432C273.291 151.033 271.309 152.033 268.961 152.033H268.077L268.058 157.201ZM268.058 150.655H268.544C270.118 150.655 271.824 150.364 271.824 148.398C271.824 146.433 269.987 146.239 268.466 146.239H268.053L268.058 150.655Z" fill="black"/>
<path d="M286.922 151.033C286.922 152.748 286.24 154.392 285.027 155.604C283.813 156.816 282.166 157.497 280.449 157.497C278.733 157.497 277.086 156.816 275.872 155.604C274.659 154.392 273.977 152.748 273.977 151.033C273.977 149.319 274.659 147.675 275.872 146.462C277.086 145.25 278.733 144.569 280.449 144.569C282.166 144.569 283.813 145.25 285.027 146.462C286.24 147.675 286.922 149.319 286.922 151.033V151.033ZM285.382 151.033C285.382 150.386 285.254 149.746 285.006 149.148C284.759 148.551 284.395 148.008 283.937 147.55C283.479 147.093 282.935 146.73 282.337 146.482C281.739 146.235 281.097 146.107 280.449 146.107C279.802 146.107 279.16 146.235 278.562 146.482C277.964 146.73 277.42 147.093 276.962 147.55C276.504 148.008 276.14 148.551 275.893 149.148C275.645 149.746 275.517 150.386 275.517 151.033C275.517 151.68 275.645 152.321 275.893 152.918C276.14 153.516 276.504 154.059 276.962 154.516C277.42 154.974 277.964 155.336 278.562 155.584C279.16 155.832 279.802 155.959 280.449 155.959C281.097 155.959 281.739 155.832 282.337 155.584C282.935 155.336 283.479 154.974 283.937 154.516C284.395 154.059 284.759 153.516 285.006 152.918C285.254 152.321 285.382 151.68 285.382 151.033V151.033Z" fill="black"/>
<path d="M296.316 157.201H294.45L290.81 151.984H290.174V157.201H288.633V144.865H290.499C291.597 144.865 292.778 144.865 293.76 145.438C294.263 145.746 294.677 146.18 294.962 146.696C295.247 147.213 295.392 147.794 295.383 148.384C295.412 149.225 295.123 150.047 294.574 150.686C294.025 151.325 293.256 151.735 292.419 151.834L296.316 157.201ZM290.174 150.703H290.659C292.234 150.703 293.935 150.412 293.935 148.447C293.935 146.481 292.117 146.258 290.582 146.258H290.174V150.703Z" fill="black"/>
<path d="M299.499 154.11L298.09 157.201H296.438L302.322 144.341L308.222 157.201H306.565L305.156 154.11H299.499ZM302.322 147.714L300.126 152.703H304.499L302.322 147.714Z" fill="black"/>
<path d="M311.502 157.201H309.962V146.258H307.046V144.851H314.457V146.258H311.541L311.502 157.201Z" fill="black"/>
<path d="M317.353 157.201H315.812V144.865H317.353V157.201Z" fill="black"/>
<path d="M331.966 151.033C331.919 152.716 331.217 154.315 330.009 155.489C328.801 156.663 327.181 157.32 325.495 157.32C323.809 157.32 322.19 156.663 320.981 155.489C319.773 154.315 319.071 152.716 319.025 151.033C319.071 149.35 319.773 147.751 320.981 146.577C322.19 145.403 323.809 144.746 325.495 144.746C327.181 144.746 328.801 145.403 330.009 146.577C331.217 147.751 331.919 149.35 331.966 151.033V151.033ZM330.43 151.033C330.43 149.727 329.91 148.474 328.985 147.55C328.06 146.626 326.806 146.108 325.498 146.108C324.189 146.108 322.935 146.626 322.01 147.55C321.085 148.474 320.565 149.727 320.565 151.033C320.565 152.34 321.085 153.593 322.01 154.516C322.935 155.44 324.189 155.959 325.498 155.959C326.806 155.959 328.06 155.44 328.985 154.516C329.91 153.593 330.43 152.34 330.43 151.033V151.033Z" fill="black"/>
<path d="M333.516 144.273L342.788 153.979V144.865H344.333V157.711L335.056 148.005V157.201H333.516V144.273Z" fill="black"/>
</g>
<defs>
<clipPath id="clip0_224_285">
<rect width="346" height="165" fill="white"/>
</clipPath>
</defs>
</svg>
