<svg width="331" height="199" viewBox="0 0 331 199" fill="none" xmlns="http://www.w3.org/2000/svg">
<path fill-rule="evenodd" clip-rule="evenodd" d="M276.353 0.288298C261.856 1.72819 250.399 9.75507 246.837 20.9686C243.977 29.9723 246.561 40.8267 253.197 47.678C257.693 52.3199 262.263 54.5492 276.362 58.9811C287.372 62.4418 290.657 63.6854 293.329 65.4053C297.955 68.3822 299.722 73.2943 298.099 78.6666C297.532 80.5424 297.051 81.3613 295.575 82.9649C291.603 87.2774 284.707 89.1981 274.721 88.774C266.873 88.4406 260.337 87.0178 253.011 84.0484C248.487 82.214 246.302 81.9094 245.338 82.9781C244.77 83.6082 244.672 84.2551 244.577 87.9903C244.444 93.2345 244.786 94.6918 246.515 96.262C250.375 99.7683 261.835 103.125 272.992 104.017C291.175 105.47 306.79 99.1595 313.502 87.6453C318.668 78.7847 318.557 66.9755 313.233 58.8436C310.638 54.8794 306.979 51.9018 301.531 49.3207C298.74 47.998 296.072 47.0727 281.74 42.457C268.587 38.221 264.245 34.5781 264.315 27.8379C264.344 25.0776 264.845 23.3439 266.175 21.4035C268.979 17.3126 274.762 15.3656 284.108 15.3656C291.606 15.3656 297.619 16.5472 304.211 19.3164C310.936 22.1413 311.775 21.6037 311.775 14.467C311.775 10.7499 311.688 10.0807 311.04 8.7888C309.544 5.80629 303.963 3.23208 295.125 1.44855C288.06 0.0227706 282.492 -0.321529 276.353 0.288298ZM47.1743 0.627675C37.3526 1.65335 23.4174 6.43614 21.0756 9.58505C20.4838 10.3807 20.3914 11.0545 20.2977 15.2668C20.1834 20.3952 20.2843 21.2702 21.0809 22.0711C21.9561 22.9514 23.5976 22.6553 29.2363 20.601C41.0537 16.2955 49.2816 14.9931 57.9476 16.0562C63.969 16.795 68.6192 18.9885 70.9602 22.1952C73.7055 25.9552 74.6908 30.2539 74.9885 39.7748C75.186 46.0933 75.1729 46.2899 74.5683 46.0986C73.2465 45.6808 65.8354 44.2546 62.1431 43.7075C56.6464 42.8929 45.0304 42.8889 41.0126 43.7003C32.5842 45.4021 26.8094 48.3616 21.71 53.5928C15.9482 59.5036 13.4073 66.7553 13.8291 76.0858C14.054 81.0652 14.9133 84.818 16.6602 88.4511C19.6699 94.7102 24.7236 99.2783 31.3126 101.696C35.0601 103.071 38.8615 103.656 44.034 103.655C51.4729 103.652 57.0352 102.401 63.0079 99.3863C66.9434 97.3996 69.5816 95.4526 73.35 91.7526L76.3469 88.8108L77.548 91.2281C79.2381 94.6298 82.0127 98.7515 83.5556 100.153C86.2284 102.581 87.7014 102.328 93.458 98.4548C95.8931 96.8164 98.1179 95.1418 98.4023 94.7338C99.1822 93.6139 99.0454 91.5206 98.0719 89.6796C96.4415 86.5966 94.6407 81.9868 94.1426 79.621C93.7325 77.6724 93.5934 72.8673 93.3858 53.4388C93.1103 27.7004 93.0731 27.1535 91.1907 21.1508C86.7024 6.83886 74.8955 0.124518 54.5446 0.311274C51.9273 0.335233 48.6107 0.47768 47.1743 0.627675ZM104.555 3.3952C103.542 4.10875 103.35 5.70159 103.982 8.16519C105.012 12.1849 130.627 96.5974 131.214 97.909C131.985 99.6302 133.164 100.688 134.717 101.05C136.449 101.454 147.068 101.419 148.868 101.003C150.872 100.541 152.026 99.3318 152.748 96.9404C153.077 95.8504 157.074 79.258 161.631 60.0688C166.187 40.8796 169.948 25.2975 169.989 25.4419C170.029 25.5863 173.901 41.8035 178.591 61.4801C183.281 81.1568 187.416 97.8877 187.778 98.6596C188.913 101.077 189.389 101.194 198.001 101.194C204.966 101.194 205.592 101.146 206.641 100.527C207.263 100.159 208.044 99.3906 208.376 98.8188C209.342 97.1554 236.726 8.55576 236.924 6.44992C237.084 4.75665 237.022 4.51278 236.233 3.71915L235.366 2.84774L228.273 2.95244C219.882 3.0765 219.482 3.19794 218.208 5.99403C217.772 6.95144 213.232 24.0368 208.119 43.9616C203.006 63.8863 198.709 80.457 198.569 80.7852C198.402 81.1768 195.302 68.5339 189.556 44.0298C184.738 23.4857 180.516 6.12433 180.173 5.44853C179.074 3.2823 178.295 3.07158 170.925 2.95014C163.749 2.83165 162.168 3.07257 160.844 4.48718C160.397 4.96441 159.816 6.01963 159.552 6.83197C159.287 7.6443 155.277 24.5189 150.64 44.3315C146.003 64.1436 142.115 80.2427 142.001 80.1071C141.886 79.9713 138.3 65.9767 134.032 49.0079C121.954 0.984452 123.015 4.5932 120.664 3.51993C119.49 2.98428 118.446 2.90682 112.295 2.90058C106.509 2.89467 105.141 2.98198 104.555 3.3952ZM65.1299 57.0318C66.3868 57.2156 69.1412 57.6932 71.2511 58.0929L75.0871 58.8196V62.834C75.0871 69.9767 74.1586 74.2468 71.813 77.891C68.7928 82.5835 63.8113 85.9763 57.2366 87.8186C54.3693 88.6217 53.4947 88.7166 48.9698 88.712C44.4512 88.7077 43.7075 88.626 42.022 87.9486C36.794 85.8477 33.8329 81.4335 33.4027 75.1002C32.6942 64.6648 37.9764 58.5078 49.1602 56.7328C51.4715 56.3659 61.9129 56.5615 65.1299 57.0318ZM297.968 124.485C287.826 125.777 278.939 128.741 272.436 133.003C269.456 134.957 268.415 136.35 268.796 137.879C269.154 139.31 270.33 139.517 274.898 138.955C287.08 137.456 298.345 136.868 303.939 137.44C312.163 138.281 314.577 139.714 315.148 144.098C315.785 148.981 312.829 160.272 306.842 175.827C305.425 179.507 304.266 183.012 304.266 183.615C304.266 185.229 305.456 185.948 307.238 185.411C309.663 184.68 315.268 178.731 319.101 172.819C326.392 161.573 331.668 143.953 330.931 133.311C330.704 130.027 330.099 128.49 328.689 127.618C327.173 126.68 323.036 125.407 319.503 124.791C315.35 124.068 302.661 123.888 297.968 124.485ZM1.38062 130.789C0.857952 131.001 0 132.642 0 133.431C0 135.089 1.9428 137.055 10.9366 144.499C46.4055 173.855 91.5096 192.643 138.585 197.673C152.127 199.119 171.041 199.423 183.147 198.388C219.913 195.245 254.804 184.823 283.046 168.547C290.923 164.007 299.512 158.112 300.885 156.302C302.718 153.886 302.039 150.79 299.365 149.369C297.183 148.209 295.926 148.386 290.421 150.628C251.488 166.484 209.461 174.86 168.749 174.876C113.879 174.899 57.0192 160.163 9.90954 133.713C5.42096 131.193 4.06254 130.575 3.05376 130.596C2.36165 130.61 1.60882 130.697 1.38062 130.789Z" fill="black"/>
</svg>
