<svg width="324" height="56" viewBox="0 0 324 56" fill="none" xmlns="http://www.w3.org/2000/svg">
<path fill-rule="evenodd" clip-rule="evenodd" d="M183.418 0.429759C176.597 2.52254 171.628 9.04532 171.004 16.7291C170.839 18.7537 170.456 20.5778 170.152 20.7819C169.848 20.9859 168.774 21.1561 167.764 21.1606C166.16 21.1672 165.859 21.3687 165.377 22.7585C164.44 25.4583 164.588 25.6507 167.715 25.8143L170.604 25.9658L170.739 38.0231C170.832 46.3589 170.7 50.2909 170.312 50.7616C170.003 51.1358 168.989 51.5858 168.059 51.761C166.39 52.0756 165.417 53.419 166.079 54.4946C166.273 54.8103 170.298 55.0042 176.664 55.0042H186.936V53.8427C186.936 52.5019 186.075 51.4701 184.951 51.4661C184.523 51.4646 183.325 51.2267 182.288 50.9373L180.403 50.4116V38.0625V25.7133H184.645C186.978 25.7133 188.993 25.5411 189.122 25.3305C189.252 25.1204 189.515 24.1064 189.706 23.0777L190.056 21.2076L185.355 21.0616L180.655 20.9157V14.603C180.655 9.15187 180.795 8.04892 181.684 6.52277C182.368 5.34861 183.149 4.70371 184.01 4.60119C185.184 4.4618 185.338 4.65219 185.643 6.62125C186.402 11.5249 191.028 13.5521 194.348 10.4376C195.227 9.61346 195.479 8.81856 195.479 6.87325C195.479 4.68603 195.265 4.16738 193.791 2.77C191.225 0.337343 186.9 -0.638347 183.418 0.429759ZM15.3267 4.55472C11.1619 5.16781 6.45884 7.59491 4.29702 10.2462C1.82665 13.2758 0.67689 17.8881 1.48644 21.5232C2.2558 24.9775 4.66737 28.5106 7.65433 30.5595C9.94379 32.1295 12.2373 33.0093 19.879 35.249C26.4344 37.1711 28.8947 39.6937 28.8947 44.4938C28.8947 47.4542 28.8309 47.6017 26.7268 49.4778C22.1032 53.6013 13.0006 53.2503 8.12418 48.7607C7.47945 48.1673 5.93472 45.8064 4.69149 43.5151C2.82314 40.0709 2.22062 39.3487 1.21559 39.3487C0.192966 39.3487 0 39.5957 0 40.9042C0 43.505 1.09197 52.2009 1.47036 52.6135C2.3362 53.5578 11.181 55.5764 15.673 55.8557C21.6379 56.2258 25.8153 55.4855 29.8254 53.3467C37.0872 49.4743 39.7973 40.1568 35.9023 32.4548C33.7942 28.2864 30.2394 25.9815 21.6132 23.1898C16.1187 21.4116 14.6453 20.7162 12.9614 19.1067C10.9579 17.1912 10.9348 17.1276 11.1498 14.1359C11.3931 10.7568 12.2986 9.34176 14.9338 8.22063C18.3253 6.7783 25.9097 7.85903 27.8992 10.0685C28.4098 10.6351 29.8846 13.0804 31.1766 15.5024C32.7967 18.5386 33.8073 19.9057 34.4329 19.9057C35.2686 19.9057 35.3309 19.3683 35.2209 13.0925C35.1555 9.3453 35.0068 6.18441 34.8907 6.06775C34.7751 5.95109 33.8304 6.11168 32.7912 6.42479C31.1706 6.91264 30.4394 6.82628 27.6374 5.81575C23.7032 4.39666 19.3966 3.95577 15.3267 4.55472ZM43.8606 17.5225C37.7646 22.0272 37.2174 22.5636 37.2023 24.0468C37.1862 25.6623 37.1877 25.6628 40.0757 25.8143L42.9652 25.9658L43.2164 38.3387C43.4611 50.3944 43.4988 50.755 44.6742 52.412C48.0431 57.1586 56.8869 57.1975 62.8 52.4907C63.9135 51.6044 64.8246 50.4591 64.8246 49.9455C64.8246 48.5042 63.0151 48.2072 61.505 49.4011C59.6502 50.8671 57.219 51.2156 55.4085 50.2752C52.8527 48.9471 52.513 47.279 52.513 36.0661V25.9658L57.8718 25.8229L63.2301 25.68L63.7764 24.1064C64.7965 21.1657 64.801 21.1682 58.8949 21.1682C55.3436 21.1682 53.2592 20.9586 52.8647 20.5622C52.5059 20.2016 52.2617 18.4633 52.2617 16.2696C52.2617 13.089 52.1411 12.585 51.3823 12.5986C50.8984 12.6072 47.5139 14.8232 43.8606 17.5225ZM302.766 17.4265C296.854 21.8 296.219 22.4206 296.079 23.9599L295.924 25.6613L298.843 25.8133L301.761 25.9658L302.012 38.3796L302.264 50.7934L303.637 52.6013C307.397 57.552 317.685 56.9672 322.842 51.509C324.238 50.0318 324.274 49.8894 323.47 49.0809C322.665 48.2724 322.457 48.3082 319.912 49.6914C317.391 51.0626 317.071 51.1191 315.142 50.5379C311.776 49.5248 311.56 48.6683 311.56 36.3439V25.7133H316.807C322.429 25.7133 322.502 25.6805 323.132 22.8762L323.515 21.1682L318.166 21.1606C315.224 21.1561 312.545 20.9793 312.212 20.7672C311.855 20.5389 311.548 18.8406 311.459 16.6084C311.326 13.2708 311.193 12.8213 310.304 12.7148C309.697 12.642 306.712 14.5076 302.766 17.4265ZM79.8353 19.634C69.689 21.4798 64.0909 30.3049 65.7884 41.7758C66.7643 48.3693 69.2347 52.0175 74.3724 54.4522C76.8468 55.6249 77.7408 55.7617 82.9152 55.7617C89.8504 55.7617 92.5288 54.9178 96.0269 51.6292C100.603 47.3275 102.44 40.0103 100.84 32.4543C99.5771 26.4906 96.4731 22.6868 91.2736 20.7319C88.0147 19.5062 83.1182 19.0365 79.8353 19.634ZM144.84 19.9309C138.355 21.6858 134.381 25.5684 132.42 32.0684C130.926 37.0151 131.703 44.1716 134.167 48.1789C135.864 50.9378 139.365 53.7952 142.504 54.9835C146.508 56.4985 153.755 56.291 157.469 54.5547C159.681 53.521 164.323 49.4021 164.323 48.4739C164.323 48.2658 163.765 47.8406 163.083 47.5285C162.032 47.0472 161.412 47.1886 159.012 48.4572C152.343 51.9827 145.519 49.0768 143.043 41.6577C142.586 40.2886 142.212 38.5321 142.212 37.7539V36.3394L152.633 36.2025L163.054 36.0661L163.721 34.6652C165.238 31.4841 162.243 24.4316 158.318 21.9414C156.074 20.5182 151.395 19.1295 149.016 19.1815C148.176 19.1996 146.297 19.537 144.84 19.9309ZM234.759 19.894C229.022 21.197 225.662 23.8594 223.272 28.9959C221.957 31.8185 221.862 32.4578 221.879 38.3387C221.895 43.7898 222.053 45.0034 223.041 47.2305C225.544 52.8771 230.127 55.5834 237.747 55.9157C250.234 56.4597 257.299 49.8465 257.283 37.6292C257.271 28.6409 253.413 22.4504 246.547 20.4011C242.778 19.2764 238.322 19.0845 234.759 19.894ZM113.317 20.188C112.488 20.4006 109.605 20.9622 106.91 21.4359C102.378 22.2328 102.011 22.3848 102.011 23.4615C102.011 24.3437 102.436 24.7659 103.774 25.2098C104.743 25.531 105.817 26.2875 106.16 26.89C107.009 28.3828 107.357 48.9122 106.559 50.4121C106.18 51.1227 105.503 51.4691 104.493 51.4691C103.34 51.4691 102.876 51.7726 102.497 52.7741C102.226 53.4917 102.131 54.2871 102.288 54.5416C102.444 54.7961 106.856 55.0042 112.091 55.0042H121.609V53.2725C121.609 51.5802 121.546 51.5277 118.846 50.9641C115.451 50.2561 115.349 49.9712 115.691 42.1995C115.923 36.9408 116.064 36.3227 117.833 32.7835C118.873 30.7004 120.175 28.3566 120.724 27.5748L121.724 26.1532L122.902 27.897C125.184 31.271 129.614 31.2195 131.375 27.798C133.31 24.0377 131.266 20.2743 127.029 19.7941C123.266 19.3678 120.512 21.0005 118.21 25.0225C116.08 28.7439 115.672 28.4803 115.614 23.3443C115.595 21.6247 115.409 20.1243 115.202 20.0097C114.994 19.8951 114.147 19.9754 113.317 20.188ZM204.448 19.8961C204.351 19.9915 201.56 20.5642 198.245 21.1692C190.771 22.5327 189.705 23.4786 193.704 25.2018C195.193 25.8426 196.045 26.5602 196.233 27.3299C196.389 27.9682 196.453 33.6042 196.374 39.8538L196.233 51.2166L194.725 51.3873C192.77 51.609 191.961 52.316 191.961 53.8033V55.0042H201.76H211.559V53.5068C211.559 51.8403 210.82 51.2822 207.916 50.755L206.032 50.4131V43.3545V36.2964L207.984 32.3937C209.059 30.2474 210.387 27.9344 210.935 27.2536L211.932 26.0163L212.784 27.6723C214.724 31.4427 219.512 31.3195 221.338 27.4521C223.099 23.7231 220.453 19.6532 216.269 19.6532C212.375 19.6532 209.625 21.705 207.133 26.4709L206.076 28.4909L206.054 24.3786C206.037 21.3323 205.849 20.196 205.327 19.9945C204.94 19.8451 204.544 19.8006 204.448 19.8961ZM268.595 20.2703C267.489 20.5092 264.55 21.093 262.062 21.5677C258.105 22.3227 257.52 22.5696 257.383 23.5392C257.254 24.4508 257.578 24.7427 259.207 25.1836C262.188 25.9901 262.355 26.7936 262.198 39.6043L262.062 50.7116L259.927 51.1873C257.94 51.6297 257.791 51.7797 257.791 53.3336V55.0042H267.119H276.448L276.29 53.427C276.155 52.0691 275.818 51.7337 273.871 51.0141L271.61 50.1788L271.473 40.1366C271.34 30.2994 271.36 30.0691 272.478 28.8646C275.028 26.1189 278.9 25.0462 281.675 26.3168C284.201 27.4733 284.614 29.1611 284.835 39.22C284.946 44.2878 284.901 48.9809 284.734 49.6485C284.511 50.5389 283.927 50.9813 282.543 51.308C280.897 51.6969 280.635 51.9615 280.498 53.3791L280.34 55.0042H289.669H298.997V53.3255C298.997 51.761 298.835 51.5984 296.61 50.9267L294.223 50.2066L293.972 38.0862C293.766 28.1172 293.574 25.6967 292.893 24.4498C289.8 18.7855 281.543 18.0871 274.442 22.8893C273.055 23.8276 271.795 24.4675 271.64 24.3124C271.485 24.1569 271.359 23.1721 271.359 22.1237C271.359 21.0753 271.19 20.1319 270.982 20.0269C270.774 19.9218 269.701 20.0314 268.595 20.2703ZM86.6303 23.7413C88.8399 25.4876 90.0112 28.4763 90.6092 33.889C91.6138 42.9884 89.6605 50.5944 85.8017 52.6069C82.3609 54.4017 79.0046 52.4069 77.3021 47.5547C76.1187 44.1832 76.0609 32.7876 77.2071 28.8257C78.7865 23.3665 83.1665 21.0031 86.6303 23.7413ZM242.41 23.7413C244.643 25.5053 245.768 28.4197 246.344 33.9269C247.298 43.053 245.439 50.5187 241.702 52.5731C238.435 54.3684 235.045 52.512 233.302 47.9744C231.999 44.5802 232.017 31.0402 233.329 27.6213C235.076 23.0726 239.288 21.2727 242.41 23.7413ZM152.135 24.421C153.555 25.6214 154.775 28.5212 154.775 30.6958C154.775 31.7392 154.573 31.7735 148.438 31.7735H142.1L142.45 29.8974C143.545 24.0352 148.42 21.2788 152.135 24.421Z" fill="black"/>
</svg>
