<svg width="291" height="68" viewBox="0 0 291 68" fill="none" xmlns="http://www.w3.org/2000/svg">
<g clip-path="url(#clip0_224_251)">
<path d="M87.9133 43.3664H96.8435C97.0001 42.2681 97.0001 41.1698 97.0001 40.0713C97.0001 24.6951 84.4664 12.1429 69.1126 12.1429C53.7588 12.1429 41.2251 24.6951 41.2251 40.0713C41.2251 55.4478 53.7588 68 69.1126 68C82.2731 68 93.0834 58.8997 96.2168 46.8183H80.2363C77.8862 50.5839 73.8127 53.0943 69.1126 53.0943C63.0024 53.0943 57.989 48.8578 56.5789 43.3664H81.8031H87.9133ZM69.1126 27.2054C73.4995 27.2054 77.4162 29.4021 79.7663 32.697H58.4589C60.809 29.4021 64.7259 27.2054 69.1126 27.2054Z" fill="black"/>
<path d="M281.914 43.3664H290.844C291 42.2681 291 41.1698 291 40.0713C291 24.6951 278.467 12.1429 263.113 12.1429C247.758 12.1429 235.225 24.6951 235.225 40.0713C235.225 55.4478 247.758 68 263.113 68C276.272 68 287.083 58.8997 290.217 46.8183H274.236C271.886 50.5839 267.813 53.0943 263.113 53.0943C257.002 53.0943 251.99 48.8578 250.58 43.3664H275.804H281.914ZM263.113 27.2054C267.499 27.2054 271.416 29.4021 273.767 32.697H252.458C254.809 29.4021 258.727 27.2054 263.113 27.2054Z" fill="black"/>
<path d="M0 65.5714H2.95218C10.7754 65.5714 16.975 58.8582 16.975 50.7398V0H14.0228C6.19957 0 0 6.71327 0 14.8316V65.5714Z" fill="black"/>
<path d="M31.7023 46.1429C26.9427 46.1429 23.1046 49.7177 22.3369 54.2252C21.1087 60.2869 17.5775 63.2401 17.5775 63.2401C16.5028 64.0172 16.9634 65.5715 18.1916 65.5715H31.7023C36.9222 65.5715 41.2211 61.2195 41.2211 55.9349C41.3746 50.495 37.0759 46.1429 31.7023 46.1429Z" fill="black"/>
<path d="M129.326 12.1429C123.408 12.1429 117.957 15.414 114.531 18.6852C113.752 15.1025 112.039 12.6102 107.834 12.6102H99.4248V65.5715H114.998V37.5332C114.998 32.0812 120.449 27.5639 125.9 27.5639C131.35 27.5639 134.776 31.9255 134.776 37.5332V65.5715H150.35V36.5985C150.038 22.5793 143.342 12.1429 129.326 12.1429Z" fill="black"/>
<path d="M210.656 12.1429C204.032 12.1429 198.333 14.3236 195.407 17.9063C192.016 14.4794 187.088 12.1429 180.773 12.1429C177.075 12.1429 171.991 14.6352 169.835 17.2832C169.064 14.6352 167.062 12.6102 163.519 12.6102H155.2V65.5715H170.605V37.5332C170.605 32.0812 172.453 27.5639 177.845 27.5639C183.236 27.5639 185.085 31.9255 185.085 37.5332V65.5715H200.49V37.5332C200.49 32.0812 202.339 27.5639 207.73 27.5639C213.122 27.5639 214.971 31.9255 214.971 37.5332V65.5715H230.375V30.6793C230.222 20.2429 222.827 12.1429 210.656 12.1429Z" fill="black"/>
</g>
<defs>
<clipPath id="clip0_224_251">
<rect width="291" height="68" fill="white"/>
</clipPath>
</defs>
</svg>
