<svg width="331" height="83" viewBox="0 0 331 83" fill="none" xmlns="http://www.w3.org/2000/svg">
<path fill-rule="evenodd" clip-rule="evenodd" d="M184.33 0.431629C182.929 1.41572 182.902 1.65241 182.883 13.3186L182.866 24.1945L183.84 25.0931C184.655 25.8452 185.029 25.9915 186.128 25.9907C187.91 25.9893 189.115 25.2272 189.493 23.8632C189.857 22.5504 189.879 4.19104 189.519 2.62683C189.142 0.987411 187.916 0 186.258 0C185.515 0 184.679 0.187196 184.33 0.431629ZM172.546 3.76798C166.305 7.06064 161.106 13.704 159.111 20.9361C158.617 22.7251 158.515 23.8585 158.504 27.6508C158.492 31.8109 158.558 32.4571 159.256 34.9783C160.729 40.3041 162.522 43.6336 165.784 47.1032C169.061 50.5897 173.527 53.1651 178.908 54.6721C181.447 55.383 182.019 55.4394 186.615 55.4338C191.533 55.4277 191.606 55.4189 194.3 54.4898C198.949 52.8875 203.712 49.6037 206.955 45.7657C215.069 36.1645 215.665 22.695 208.449 12.0281C206.314 8.87205 202.337 5.35016 198.969 3.6336C197.105 2.68351 195.829 2.86214 195.155 4.16753C194.6 5.24481 194.586 12.0784 195.137 13.3504C195.349 13.8398 196.414 15.1103 197.503 16.1738C201.1 19.6879 202.551 22.9342 202.569 27.5126C202.603 36.0799 197.253 42.7294 188.984 44.3951C180.813 46.0411 172.844 41.2445 170.022 32.9814C168.606 28.8357 169.264 23.2245 171.603 19.4938C172.08 18.7334 173.431 17.1159 174.605 15.8992L176.74 13.6872L176.921 9.67779C177.127 5.11457 176.912 3.84955 175.844 3.36206C174.787 2.87928 174.061 2.96859 172.546 3.76798ZM239.297 3.41156C235.927 4.53114 234.03 6.715 230.13 13.9637C225.889 21.8464 210.474 53.164 210.474 53.897C210.474 54.1011 212.251 54.1956 216.085 54.1956C221.089 54.1956 221.742 54.1431 222.109 53.7117C222.336 53.4455 226.601 44.913 231.587 34.7502C236.804 24.1162 240.867 16.1572 241.157 16.0013C241.435 15.8522 241.911 15.8094 242.214 15.9059C242.613 16.0328 244.946 20.4915 250.649 32.0277C254.985 40.7982 259.2 49.3742 260.015 51.0849L261.497 54.1956H267.292C270.893 54.1956 273.085 54.093 273.085 53.9244C273.085 53.5171 258.185 23.3732 254.768 16.867C250.148 8.07266 247.887 4.96084 245.275 3.80254C243.697 3.10298 240.797 2.91329 239.297 3.41156ZM0.0893665 23.365C0.186732 43.8404 0.145634 43.2799 1.80774 46.9284C2.58418 48.6331 4.64678 50.9314 6.23993 51.8674C8.652 53.2845 10.3734 53.6747 15.3294 53.9274C21.625 54.2487 35.9747 54.2484 39.0223 53.9269C45.543 53.2395 49.4241 50.4039 51.2393 45.0017L52.0058 42.7205L52.0929 23.8049C52.1635 8.50042 52.1117 4.84553 51.8212 4.66082C51.2282 4.28394 42.1109 4.36966 41.7256 4.75594C41.4751 5.00701 41.3946 9.27685 41.3946 22.2794C41.3946 36.986 41.3336 39.6441 40.9737 40.6675C40.4576 42.1335 39.9272 42.7429 38.4985 43.5102C37.4214 44.089 37.1238 44.1031 25.9485 44.1031H14.5019L13.2643 43.4082C12.4495 42.9511 11.7895 42.2895 11.3335 41.4727L10.6404 40.232L10.5025 22.3972L10.3646 4.56239H5.18243H0L0.0893665 23.365ZM58.4037 4.60856C58.1483 4.86461 58.1712 53.9128 58.4266 53.9462C59.3057 54.061 68.2553 54.0245 68.4475 53.9053C68.5827 53.8215 68.7258 49.7776 68.7661 44.9188L68.8389 36.0843L84.285 35.9215C101.452 35.7404 101.806 35.7041 104.322 33.8739C105.817 32.7859 106.881 30.8417 107.336 28.3662C107.524 27.3417 107.598 23.8817 107.534 19.1031C107.438 12.0043 107.388 11.3678 106.818 9.9272C106.112 8.14649 104.709 6.61601 103.037 5.80446C100.321 4.4869 99.3736 4.43409 78.3319 4.42883C67.4725 4.42634 58.5047 4.50709 58.4037 4.60856ZM113.568 4.60856C113.467 4.70977 113.384 14.2062 113.384 25.7111C113.384 48.8156 113.349 48.3162 115.127 50.658C116.259 52.1481 118.916 53.5306 121.383 53.9133C122.441 54.0776 130.254 54.1923 140.454 54.1934C155.957 54.1954 157.75 54.1506 157.9 53.7582C157.992 53.5176 158.067 51.4175 158.067 49.0916C158.067 45.9206 157.976 44.7861 157.703 44.5585C157.449 44.3478 152.541 44.2317 141.681 44.1788L126.024 44.1031L125.359 43.3272L124.693 42.5513V24.0225C124.693 11.779 124.596 5.31228 124.407 4.9589C124.141 4.45925 123.781 4.42413 118.937 4.42413C116.085 4.42413 113.669 4.50709 113.568 4.60856ZM276.804 4.75345C276.729 4.95254 276.699 16.1273 276.738 29.5864L276.809 54.0574L292.393 54.0532C309.305 54.0485 311.77 53.8796 316.009 52.434C324.006 49.7065 329.062 43.5725 330.618 34.709C331.418 30.1518 330.923 23.5582 329.496 19.7579C326.163 10.8792 319.993 6.13102 310.321 5.00231C309.032 4.85161 300.994 4.65281 292.459 4.56018C279.809 4.42275 276.917 4.45842 276.804 4.75345ZM96.3348 14.3071C96.8595 14.833 96.9753 15.3188 97.1008 17.516C97.1822 18.94 97.1866 21.24 97.1107 22.627C96.9932 24.7754 96.8799 25.2416 96.3448 25.7775L95.7167 26.4065L82.5779 26.4859C74.7368 26.5335 69.3354 26.4618 69.1826 26.3087C68.8116 25.9368 68.6894 14.3303 69.0513 13.8821C69.2825 13.5962 71.9908 13.5406 82.5288 13.6056L95.7167 13.6872L96.3348 14.3071ZM309.166 14.6184C316.276 16.1503 319.415 19.532 320.27 26.5785C320.617 29.444 320.246 33.405 319.397 35.8933C318.163 39.5105 315.517 41.961 311.457 43.2467C308.095 44.3116 305.629 44.5178 296.267 44.5178H287.492L287.326 43.8957C287.008 42.7039 287.132 14.9339 287.458 14.322C287.761 13.7549 287.858 13.7508 297.181 13.907C305.152 14.0405 306.992 14.1498 309.166 14.6184ZM5.03376 68.5309C0.181767 70.2666 -1.33967 76.6041 2.10921 80.7128C3.32366 82.1597 5.28448 82.9467 7.68414 82.9497C10.9995 82.9541 12.9653 81.7997 14.3406 79.041C16.2253 75.2603 15.0075 71.0538 11.4182 68.9451C9.75032 67.9652 7.09636 67.7929 5.03376 68.5309ZM35.8696 68.4292C32.365 69.559 30.2387 73.5963 31.1735 77.3466C32.0624 80.9124 34.7208 82.9519 38.4803 82.9522C43.0178 82.9528 46.0389 79.6421 45.7554 74.9796C45.5802 72.0984 44.2742 70.0418 41.823 68.787C40.3909 68.0539 37.5612 67.8839 35.8696 68.4292ZM67.8719 68.263C65.9196 68.9045 64.2675 70.3122 63.2869 72.1687C62.519 73.6225 62.5684 77.4433 63.3749 78.9619C64.0868 80.303 65.9185 82.0254 67.2055 82.5645C68.549 83.1272 71.8956 83.0556 73.2582 82.4351C74.7799 81.7422 76.111 80.3359 76.918 78.5684C77.4948 77.3059 77.577 76.7894 77.4683 75.1104C77.278 72.1723 75.9499 70.0396 73.5279 68.7825C72.3284 68.1601 69.0897 67.8626 67.8719 68.263ZM98.9587 68.4507C97.0299 69.0693 95.0818 71.0554 94.5174 72.9794C93.3361 77.0048 94.6449 80.4296 98.0085 82.1147C101.73 83.9786 106.081 82.814 108.063 79.4237C109.034 77.7619 109.264 74.6763 108.555 72.8149C107.946 71.2178 106.464 69.5435 104.99 68.7892C103.527 68.0398 100.729 67.8831 98.9587 68.4507ZM131.451 68.2622C129.315 68.8282 127.549 70.4228 126.551 72.6846C126.119 73.6624 126.032 74.329 126.133 75.8786C126.289 78.272 126.978 79.7226 128.665 81.211C130.158 82.5289 131.452 82.9533 133.965 82.95C135.564 82.9478 136.09 82.8173 137.294 82.1246C139.737 80.7202 140.966 78.5814 140.966 75.7351C140.966 74.7974 140.821 73.5418 140.642 72.9448C140.231 71.57 138.468 69.5479 137.047 68.821C135.844 68.2058 132.808 67.9027 131.451 68.2622ZM161.54 68.456C158.767 69.4749 157.226 71.6463 157.023 74.8234C156.859 77.3728 157.291 78.9954 158.515 80.428C161.359 83.7599 167.051 83.8445 169.895 80.5969C171.287 79.0078 171.687 77.8542 171.667 75.4868C171.639 72.2016 170.278 69.9281 167.585 68.6711C165.968 67.916 163.272 67.82 161.54 68.456ZM192.998 68.4557C191.035 69.0845 189.127 71.0903 188.528 73.1564C187.654 76.1722 188.361 78.9793 190.522 81.0742C191.864 82.3743 193.5 82.9525 195.836 82.9525C200.108 82.9525 203.014 79.9861 203.014 75.625C203.014 72.545 201.597 70.1128 199.027 68.785C197.579 68.0368 194.782 67.8839 192.998 68.4557ZM224.808 68.4281C224.121 68.6501 223.018 69.2957 222.357 69.8629C218.211 73.4204 219.403 80.7872 224.402 82.4946C226.151 83.0924 229.263 83.0938 230.516 82.4974C231.998 81.7928 233.807 79.8103 234.304 78.3472C235.585 74.5779 234.088 70.511 230.791 68.8083C229.389 68.0838 226.45 67.8972 224.808 68.4281ZM256.584 68.5298C250.586 70.6797 250.069 79.3919 255.769 82.2397C256.929 82.8192 257.585 82.9514 259.279 82.9464C261.579 82.9398 262.931 82.4722 264.505 81.14C267.156 78.8978 267.529 73.6524 265.252 70.6598C263.577 68.4576 259.547 67.4675 256.584 68.5298ZM287.556 68.6753C285.901 69.4475 284.066 71.4356 283.615 72.9448C282.857 75.4821 283.417 78.6556 284.953 80.5236C286.268 82.1232 288.24 82.9525 290.727 82.9525C293.051 82.9525 294.302 82.4639 295.934 80.9202C297.925 79.036 298.634 76.0705 297.789 73.1569C296.589 69.019 291.548 66.8113 287.556 68.6753ZM318.136 68.2713C312.691 69.6649 310.682 76.6171 314.543 80.705C317.419 83.7499 322.744 83.6971 325.459 80.5969C326.804 79.062 327.242 77.8432 327.248 75.625C327.259 71.4426 324.637 68.5478 320.505 68.1806C319.683 68.1076 318.617 68.1482 318.136 68.2713Z" fill="black"/>
</svg>
