<svg width="366" height="83" viewBox="0 0 366 83" fill="none" xmlns="http://www.w3.org/2000/svg">
<path fill-rule="evenodd" clip-rule="evenodd" d="M2.46618 0.448206C1.52641 0.714229 0.472986 1.40761 0.125634 1.99057C-0.264337 2.64379 0.268411 9.79128 1.51717 20.6538L3.5402 38.2579L1.92419 41.448C0.907 43.455 0.300376 45.9425 0.28759 48.1553C0.269832 51.3153 0.545441 51.9391 3.00532 54.301L5.74364 56.9304L7.00448 68.7108C8.26461 80.4839 8.85276 83 10.3466 83C10.922 83 11.0072 79.3488 10.6549 69.7913C10.3288 60.9681 10.4105 56.43 10.8999 56.1252C12.0897 55.3831 11.8141 46.7585 10.5675 45.7137C8.78102 44.2165 9.30453 42.3386 11.7481 41.4782C12.9833 41.0436 14.1454 40.8407 14.3308 41.0271C14.5155 41.2136 15.7252 48.2334 17.0187 56.6264C18.3122 65.0187 19.5298 72.724 19.7244 73.748C20.022 75.3133 19.5759 75.9672 16.9207 77.8559C15.1847 79.0914 13.764 80.3964 13.764 80.7564C13.764 81.9739 17.2908 82.3131 19.6185 81.3185C23.7875 79.5374 24.2151 78.4719 24.5823 68.9431C24.767 64.169 25.1471 59.8882 25.4276 59.4301C26.7197 57.3198 27.2603 60.1715 27.2603 69.1001V78.778L30.4795 80.2157C33.823 81.7086 37.9678 81.8032 38.4239 80.3971C38.5688 79.9518 37.2348 78.7286 35.4596 77.6781C33.6845 76.6284 32.2326 75.3083 32.2326 74.7454C32.2326 73.5049 34.2649 58.9124 34.7529 56.6486C34.956 55.7072 35.6308 55.0353 36.3724 55.0353C37.0714 55.0353 38.225 54.6065 38.9346 54.0824C40.0036 53.2936 40.0839 52.8612 39.4034 51.5777C38.6732 50.2003 39.0269 49.4954 42.5523 45.3C44.7366 42.7007 46.8796 39.7852 47.3151 38.8208C48.5255 36.1398 46.2034 33.539 40.6891 31.4015C36.6551 29.8377 35.0121 29.6347 26.1948 29.6089C17.4201 29.5838 15.8531 29.7652 12.8761 31.1534L9.50201 32.7266V31.0079C9.50201 28.5807 12.7773 27.7461 24.1462 27.2757C32.5253 26.9286 38.6021 27.4384 44.1307 28.9514C46.5472 29.6132 46.2134 27.0068 43.1788 21.53C40.2366 16.2189 40.2956 15.3233 43.9694 9.52526C47.7953 3.48919 47.3193 2.49823 40.0221 1.30292C31.089 -0.159846 24.0794 0.44175 9.67959 3.90794C8.44575 4.2048 8.08135 3.97893 8.08135 2.91842C8.08135 0.206562 6.21957 -0.611585 2.46618 0.448206ZM184.007 22.5296C183.746 22.792 183.533 25.5462 183.533 28.6495C183.533 34.0051 183.464 34.2539 182.159 33.5491C181.404 33.1411 179.337 32.8069 177.567 32.8069C171.703 32.8069 167.742 38.0113 167.742 45.7137C167.742 53.2061 171.182 57.9056 176.662 57.9006C178.309 57.8992 180.599 57.299 181.816 56.5504C183.959 55.2311 184.023 55.2311 184.841 56.5533C185.357 57.3865 186.49 57.9035 187.801 57.9035H189.926V39.9774V22.0513H187.203C185.705 22.0513 184.267 22.2664 184.007 22.5296ZM340.126 22.9627C339.935 23.4639 339.865 31.4496 339.97 40.7095L340.161 57.545L343.18 57.7651L346.199 57.9859V40.0183V22.0513H343.336C341.675 22.0513 340.326 22.4342 340.126 22.9627ZM357.396 23.8905C355.052 25.1747 353.302 28.357 353.302 31.337C353.302 33.2078 353.038 33.524 351.477 33.524C349.991 33.524 349.694 33.8237 349.879 35.1373C350.004 36.025 350.816 37.0655 351.685 37.4505C353.19 38.1167 353.274 38.6057 353.461 47.8477L353.657 57.545H356.499H359.34L359.538 47.6856L359.735 37.8263H362.557C365.218 37.8263 365.378 37.7044 365.378 35.6751C365.378 33.6437 365.22 33.524 362.537 33.524C359.88 33.524 359.695 33.3899 359.695 31.4603C359.695 29.1278 360.618 28.1211 363.403 27.4155C365.331 26.9272 366.568 24.8485 365.737 23.4918C365.076 22.412 359.62 22.673 357.396 23.8905ZM70.045 40.5152L70.2353 57.545L78.7593 57.5335C85.5877 57.5249 87.8111 57.2603 89.9357 56.2027C93.211 54.5728 95.4521 51.0593 95.4521 47.5537C95.4521 44.1362 94.5017 42.411 91.8592 41.0314L89.7289 39.9193L91.8557 38.1124C94.6814 35.7124 95.305 32.2964 93.5718 28.7148C91.4863 24.4053 88.8531 23.4875 78.5689 23.4868L69.8546 23.4854L70.045 40.5152ZM192.767 23.7693C192.767 23.9665 195.472 28.6589 198.778 34.1966L204.79 44.2646L204.994 50.9044L205.198 57.545L208.217 57.7651L211.236 57.9859V51.3941V44.8024L217.274 34.6196C220.595 29.0195 223.312 24.2232 223.312 23.9615C223.312 23.6998 221.731 23.4854 219.798 23.4854H216.286L212.257 31.0674L208.228 38.6494L204.227 31.2467L200.226 23.8439L196.497 23.6274C194.446 23.5076 192.767 23.5721 192.767 23.7693ZM86.0594 29.6211C87.1625 30.4006 87.6384 31.4689 87.6384 33.1655C87.6384 36.4323 85.5728 37.8263 80.7319 37.8263H76.9835V33.1655V28.5047H80.7319C82.9758 28.5047 85.1153 28.9528 86.0594 29.6211ZM100.028 33.7319C99.8348 34.241 99.7645 39.8067 99.8732 46.1009L100.069 57.545L103.088 57.7651L106.107 57.9859V50.1365C106.107 40.5854 106.971 38.8739 111.728 38.9993C114.162 39.0639 114.704 38.8229 114.976 37.5552C115.898 33.2494 115.862 33.1777 112.685 32.9453C110.236 32.7661 109.338 33.0658 107.866 34.5515C106.248 36.1842 106.009 36.2459 105.601 35.1302C105.351 34.444 104.802 33.6452 104.383 33.3555C103.141 32.4979 100.407 32.7338 100.028 33.7319ZM121.603 34.226C118.177 36.1046 117.929 36.6338 119.535 38.6358C120.861 40.2893 120.915 40.2957 123.462 39.0696C127.099 37.3186 129.293 37.4842 130.675 39.6131C132.374 42.2303 131.567 43.3217 127.654 43.7031C120.275 44.4223 116.175 48.27 117.547 53.1853C117.886 54.4 118.842 55.9581 119.672 56.6486C121.678 58.3165 127.119 58.2964 129.869 56.6106C131.886 55.3745 132.015 55.3745 133.243 56.6142C133.946 57.3234 135.183 57.9035 135.994 57.9035C137.427 57.9035 137.46 57.6231 137.237 47.5207C137.01 37.3114 136.974 37.1049 135.072 35.1868C132.445 32.5381 125.574 32.0476 121.603 34.226ZM143.044 45.3552V57.9035H145.886H148.727V48.9813C148.727 40.574 148.818 39.9946 150.306 38.9427C152.603 37.3186 155.546 37.533 156.855 39.4202C157.705 40.6442 157.961 42.9796 157.961 49.4997V57.9859L160.98 57.7651L163.999 57.545L164.204 49.299C164.443 39.6117 163.365 35.5905 160.063 33.8675C157.408 32.4814 153.469 32.5194 150.714 33.9571C148.692 35.0133 148.458 35.0133 147.873 33.9571C147.513 33.3067 146.325 32.8069 145.14 32.8069H143.044V45.3552ZM227.018 33.9994C220.962 37.0131 218.937 46.9492 223.079 53.3309C225.034 56.3418 229.35 58.1014 233.957 57.7651C241.237 57.2338 244.622 53.1237 244.622 44.8153C244.622 39.365 242.874 36.0652 238.925 34.0632C235.833 32.495 230.103 32.4649 227.018 33.9994ZM248.431 33.8796C247.663 35.8988 248.594 51.7469 249.602 53.8342C251.48 57.7206 257.581 59.1519 261.729 56.6788C263.677 55.5172 263.831 55.52 264.715 56.7404C265.337 57.5995 266.342 57.9465 267.742 57.7859L269.838 57.545V45.3552V33.1655L266.82 32.9453L263.801 32.7245V41.7105V50.6965L261.705 51.79C256.064 54.7349 254.566 52.5235 254.566 41.2516V32.8069H251.703C249.816 32.8069 248.7 33.1726 248.431 33.8796ZM275.48 33.7319C275.287 34.241 275.216 39.8067 275.325 46.1009L275.521 57.545L278.54 57.7651L281.559 57.9859V50.0246C281.559 42.4426 281.646 41.9758 283.374 40.2312C284.874 38.7168 285.611 38.4788 287.615 38.8581C289.745 39.2611 290.085 39.1169 290.398 37.6757C291.354 33.2587 291.317 33.1777 288.227 32.9496C285.914 32.779 284.841 33.1282 283.077 34.6268C281.013 36.3807 280.849 36.4151 280.849 35.0986C280.849 32.9288 276.232 31.7536 275.48 33.7319ZM296.426 34.4332C291.726 37.6312 292.081 43.8258 297.11 46.367C298.519 47.079 300.542 47.872 301.605 48.1302C302.669 48.3876 303.873 49.2294 304.281 50.0002C304.894 51.1554 304.708 51.61 303.222 52.593C301.536 53.708 301.207 53.703 298.116 52.5113C294.827 51.2436 294.807 51.245 293.517 52.8526C291.96 54.7937 292.34 55.5788 295.474 56.9011C300.625 59.0737 307.896 57.3958 309.774 53.6012C310.262 52.6153 310.666 50.789 310.672 49.542C310.685 46.8567 307.923 44.1628 303.774 42.814C300.571 41.7721 299.317 40.8558 299.317 39.5565C299.317 37.7051 301.873 37.0375 305.359 37.979C308.129 38.7269 308.729 38.7003 309.289 37.8062C310.472 35.9175 310.016 34.9036 307.509 33.8459C303.797 32.2806 299.235 32.5223 296.426 34.4332ZM319.429 33.8173C311.349 37.5057 311.209 51.8459 319.209 56.3848C322.6 58.3079 327.751 58.3509 331.815 56.4887C335.016 55.0217 335.45 54.0092 333.836 51.7806C332.875 50.4534 332.742 50.4484 330.26 51.6437C325.429 53.9691 321.479 52.7996 320.035 48.6163L319.296 46.4767L327.242 46.2745L335.189 46.0723L335.418 43.6565C335.71 40.5689 334.565 37.8047 331.941 35.2671C330.25 33.6308 329.103 33.2128 325.778 33.0206C323.262 32.8751 320.823 33.1812 319.429 33.8173ZM328.118 38.8696C330.842 41.6187 330.337 42.1285 324.889 42.1285C319.309 42.1285 318.5 41.2064 321.788 38.5956C324.246 36.6438 325.988 36.7191 328.118 38.8696ZM182.681 38.6867C183.197 39.208 183.533 41.737 183.533 45.0992C183.533 50.0239 183.355 50.7782 181.954 51.7677C179.801 53.2907 177.423 53.1696 175.72 51.4501C173.292 48.9992 173.959 40.2319 176.714 38.3748C177.949 37.5423 181.744 37.7409 182.681 38.6867ZM236.808 39.2603C238.918 41.3907 238.841 48.9074 236.684 51.2249C234.501 53.5704 230.971 53.4643 229.046 50.9948C226.981 48.3439 226.966 41.623 229.022 39.3959C230.903 37.3573 234.855 37.2885 236.808 39.2603ZM38.161 40.5152C38.3422 40.8113 37.7235 42.0217 36.7858 43.2041L35.081 45.3552L35.0775 42.6663C35.0746 40.4815 35.3325 39.9774 36.4527 39.9774C37.2113 39.9774 37.9799 40.2197 38.161 40.5152ZM87.5994 44.7507C90.624 48.6321 87.5575 52.1671 81.1666 52.1671H76.9835V47.5063V42.8456H81.5488C85.6453 42.8456 86.2675 43.0413 87.5994 44.7507ZM131.349 47.9057C132.256 49.3872 130.968 51.9936 128.903 52.8569C126.355 53.9225 124.623 53.6428 123.598 52.0015C122.587 50.381 124.229 48.6479 127.516 47.8641C130.866 47.0646 130.834 47.0646 131.349 47.9057Z" fill="black"/>
</svg>
